<?xml version="1.0" encoding="utf-8"?>
<!-- Generator: Adobe Illustrator 26.5.0, SVG Export Plug-In . SVG Version: 6.00 Build 0)  -->
<svg version="1.1" id="Layer_1" xmlns="http://www.w3.org/2000/svg" xmlns:xlink="http://www.w3.org/1999/xlink" x="0px" y="0px"
	 width="765.737px" height="767.858px" viewBox="0 0 765.737 767.858" style="enable-background:new 0 0 765.737 767.858;"
	 xml:space="preserve">
<polyline style="opacity:0.2;fill:none;stroke:#000000;stroke-width:3;stroke-miterlimit:10;" points="74.034,88.093 
	74.034,697.569 240.464,254.522 "/>
<polyline style="fill:none;stroke:#000000;stroke-width:3;stroke-miterlimit:10;" points="74.18,420.874 74.034,88.093 
	683.511,88.093 "/>
<line style="fill:none;stroke:#000000;stroke-width:3;stroke-miterlimit:10;" x1="74.034" y1="88.093" x2="240.464" y2="254.522"/>
<line style="fill:none;stroke:#000000;stroke-width:3;stroke-miterlimit:10;" x1="683.511" y1="88.093" x2="171.431" y2="280.454"/>
<g style="opacity:0.8;">
	<text transform="matrix(1 0 0 1 190.8395 155.0186)" style="font-family:'TimesNewRomanPS-ItalicMT'; font-size:50px;">P</text>
	<text transform="matrix(0.583 0 0 0.583 221.3815 171.6685)" style="font-family:'TimesNewRomanPS-ItalicMT'; font-size:50px;">1</text>
</g>
<text transform="matrix(1 0 0 1 242.0911 420.8737)" style="font-family:'TimesNewRomanPS-ItalicMT'; font-size:50px;">R</text>
<text transform="matrix(0.583 0 0 0.583 272.6331 437.5236)" style="font-family:'TimesNewRomanPS-ItalicMT'; font-size:50px;">1</text>
<path style="opacity:0.8;fill:none;stroke:#000000;stroke-width:3;stroke-miterlimit:10;" d="M239.688,238.041
	c4.749-4.749,2.71-21.236-8.382-32.328c-11.091-11.091-23.049-11.965-33.532-20.289c-10.621-8.434-19.469-21.737-17.736-26.65
	c-5.408,1.647-18.216-7.115-26.65-17.736c-8.325-10.483-9.198-22.44-20.289-33.532s-27.579-13.131-32.328-8.382"/>
<g>
	<path style="fill:none;stroke:#000000;stroke-width:3;stroke-miterlimit:10;" d="M74.18,420.874
		c0-64.274,40.425-119.106,97.237-140.457"/>
</g>
<line style="fill:none;stroke:#000000;stroke-width:3;stroke-miterlimit:10;" x1="232.241" y1="412.812" x2="216.118" y2="428.935"/>
<g>
	<g>
		
			<line style="fill:none;stroke:#000000;stroke-width:3;stroke-miterlimit:10;" x1="251.917" y1="448.611" x2="124.111" y2="320.805"/>
		<g>
			<polygon points="143.398,326.597 142.128,329.317 124.318,321.012 132.623,338.822 129.905,340.09 118.117,314.811 			"/>
		</g>
	</g>
</g>
<line style="fill:none;stroke:#000000;stroke-width:3;stroke-miterlimit:10;" x1="457.175" y1="162.64" x2="466.8" y2="179.975"/>
<line style="opacity:0.2;fill:none;stroke:#000000;stroke-width:3;stroke-miterlimit:10;" x1="148.581" y1="471.233" x2="165.917" y2="480.859"/>
</svg>
