<?xml version="1.0" encoding="utf-8"?>
<!-- Generator: Adobe Illustrator 26.5.0, SVG Export Plug-In . SVG Version: 6.00 Build 0)  -->
<svg version="1.1" id="Layer_1" xmlns="http://www.w3.org/2000/svg" xmlns:xlink="http://www.w3.org/1999/xlink" x="0px" y="0px"
	 width="1000px" height="1000px" viewBox="0 0 1000 1000" style="enable-background:new 0 0 1000 1000;" xml:space="preserve">
<g>
	<g>
		
			<line style="fill:none;stroke:#29ABE2;stroke-width:3;stroke-miterlimit:10;" x1="254.423" y1="800.155" x2="254.423" y2="858.89"/>
		<g>
			<polygon style="fill:#29ABE2;" points="254.423,880.072 242.227,850.224 254.423,857.306 266.616,850.224 			"/>
		</g>
	</g>
</g>
<line style="opacity:0.3;fill:none;stroke:#29ABE2;stroke-width:3;stroke-miterlimit:10;" x1="254.423" y1="664.658" x2="254.423" y2="800.155"/>
<g>
	
		<ellipse transform="matrix(0.006 -1 1 0.006 421.4428 1141.0159)" style="fill:none;stroke:#000000;stroke-width:3;stroke-miterlimit:10;" cx="784.689" cy="358.509" rx="18.231" ry="31.578"/>
	
		<ellipse transform="matrix(0.006 -1 1 0.006 4.8409 1028.0369)" style="fill:none;stroke:#000000;stroke-width:3;stroke-miterlimit:10;" cx="519.556" cy="511.583" rx="18.231" ry="31.578"/>
	
		<ellipse transform="matrix(0.006 -1 1 0.006 -411.761 915.0578)" style="fill:none;stroke:#000000;stroke-width:3;stroke-miterlimit:10;" cx="254.423" cy="664.658" rx="18.231" ry="31.578"/>
</g>
<g>
	<g>
		<g>
			
				<line style="fill:none;stroke:#000000;stroke-width:3;stroke-miterlimit:10;" x1="46.71" y1="653.661" x2="41.514" y2="650.661"/>
			
				<line style="fill:none;stroke:#000000;stroke-width:3;stroke-miterlimit:10;stroke-dasharray:15.2411,15.2411;" x1="28.315" y1="643.04" x2="8.516" y2="631.609"/>
			<line style="fill:none;stroke:#000000;stroke-width:3;stroke-miterlimit:10;" x1="1.916" y1="627.799" x2="-3.28" y2="624.799"/>
		</g>
	</g>
	<polyline style="fill:none;stroke:#000000;stroke-width:3;stroke-miterlimit:10;" points="765.641,238.585 965.008,353.69 
		246.077,768.765 46.71,653.661 	"/>
	<g>
		<g>
			
				<line style="fill:none;stroke:#000000;stroke-width:3;stroke-miterlimit:10;" x1="348.591" y1="-2.199" x2="353.787" y2="0.801"/>
			
				<line style="fill:none;stroke:#000000;stroke-width:3;stroke-miterlimit:10;stroke-dasharray:12.0402,12.0402;" x1="364.214" y1="6.821" x2="755.232" y2="232.575"/>
			
				<line style="fill:none;stroke:#000000;stroke-width:3;stroke-miterlimit:10;" x1="760.445" y1="235.585" x2="765.641" y2="238.585"/>
		</g>
	</g>
</g>
<g>
	<g>
		<g>
			
				<line style="fill:none;stroke:#000000;stroke-width:3;stroke-miterlimit:10;" x1="46.71" y1="689.869" x2="41.514" y2="686.869"/>
			
				<line style="fill:none;stroke:#000000;stroke-width:3;stroke-miterlimit:10;stroke-dasharray:12.8073,12.8073;" x1="30.422" y1="680.465" x2="13.785" y2="670.86"/>
			<line style="fill:none;stroke:#000000;stroke-width:3;stroke-miterlimit:10;" x1="8.239" y1="667.658" x2="3.043" y2="664.658"/>
		</g>
	</g>
	<polyline style="fill:none;stroke:#000000;stroke-width:3;stroke-miterlimit:10;" points="965.008,353.69 965.008,389.898 
		246.077,804.973 46.71,689.869 	"/>
</g>
<line style="fill:none;stroke:#000000;stroke-width:3;stroke-miterlimit:10;" x1="246.077" y1="768.765" x2="246.077" y2="804.973"/>
<g>
	<g>
		
			<line style="fill:none;stroke:#ED1C24;stroke-width:3;stroke-miterlimit:10;" x1="784.689" y1="358.509" x2="784.689" y2="197.041"/>
		<g>
			<polygon style="fill:#ED1C24;" points="784.689,175.86 796.885,205.707 784.689,198.625 772.496,205.707 			"/>
		</g>
	</g>
</g>
<g>
	<g>
		
			<line style="fill:none;stroke:#000000;stroke-width:3;stroke-miterlimit:10;" x1="519.556" y1="511.583" x2="659.391" y2="592.317"/>
		<g>
			<polygon points="677.735,602.908 645.788,598.546 658.02,591.525 657.983,577.424 			"/>
		</g>
	</g>
</g>
<g>
	<g>
		
			<line style="fill:none;stroke:#93278F;stroke-width:3;stroke-miterlimit:10;" x1="254.423" y1="664.658" x2="114.588" y2="745.392"/>
		<g>
			<polygon style="fill:#93278F;" points="96.244,755.982 115.995,730.496 115.96,744.6 128.19,751.618 			"/>
		</g>
	</g>
</g>
<text transform="matrix(1 0 0 1 765.6414 153.0184)" style="fill:#ED1C24; font-family:'TimesNewRomanPS-ItalicMT'; font-size:50px;">T</text>
<text transform="matrix(0.583 0 0 0.583 793.449 169.6683)" style="fill:#ED1C24; font-family:'TimesNewRomanPS-ItalicMT'; font-size:50px;">R</text>
<text transform="matrix(1 0 0 1 695.1292 634.1312)" style="font-family:'TimesNewRomanPS-ItalicMT'; font-size:50px;">T</text>
<text transform="matrix(0.583 0 0 0.583 722.9368 650.7811)" style="font-family:'TimesNewRomanPS-ItalicMT'; font-size:50px;">L</text>
<text transform="matrix(1 0 0 1 234.8831 935.2386)" style="fill:#29ABE2; font-family:'TimesNewRomanPS-ItalicMT'; font-size:50px;">T</text>
<text transform="matrix(0.583 0 0 0.583 262.6907 951.8885)" style="fill:#29ABE2; font-family:'TimesNewRomanPS-ItalicMT'; font-size:50px;">B</text>
<text transform="matrix(1 0 0 1 46.71 786.8691)" style="fill:#93278F; font-family:'TimesNewRomanPS-ItalicMT'; font-size:50px;">T</text>
<text transform="matrix(0.583 0 0 0.583 74.5176 803.519)" style="fill:#93278F; font-family:'TimesNewRomanPS-ItalicMT'; font-size:50px;">P</text>
</svg>
