<?xml version="1.0" encoding="utf-8"?>
<!-- Generator: Adobe Illustrator 26.5.0, SVG Export Plug-In . SVG Version: 6.00 Build 0)  -->
<svg version="1.1" id="LayeR_A" xmlns="http://www.w3.org/2000/svg" xmlns:xlink="http://www.w3.org/1999/xlink" x="0px" y="0px"
	 width="640.5px" height="642.9px" viewBox="0 0 640.5 642.9" style="enable-background:new 0 0 640.5 642.9;" xml:space="preserve"
	>
<style type="text/css">
	.st0{fill:none;stroke:#000000;stroke-miterlimit:10;}
	.st1{opacity:0.28;fill:none;stroke:#000000;stroke-miterlimit:10;}
	.st2{opacity:0.5;fill:none;stroke:#000000;stroke-miterlimit:10;}
	.st3{fill:none;stroke:#000000;stroke-width:0.5;stroke-miterlimit:10;}
	.st4{fill:none;stroke:#000000;stroke-width:0.5;stroke-miterlimit:10;stroke-dasharray:5.9458,5.9458;}
	.st5{font-family:'MyriadPro-Regular';}
	.st6{font-size:12px;}
</style>
<circle class="st0" cx="144" cy="149.2" r="6"/>
<circle class="st0" cx="144" cy="149.2" r="6"/>
<circle class="st0" cx="524" cy="149.2" r="6"/>
<circle class="st0" cx="524" cy="529.2" r="6"/>
<circle class="st0" cx="144" cy="529.2" r="6"/>
<rect x="84" y="89.2" class="st0" width="500" height="500"/>
<g>
	<g>
		<line class="st3" x1="54.5" y1="339.2" x2="57.5" y2="339.2"/>
		<line class="st4" x1="63.5" y1="339.2" x2="607.5" y2="339.2"/>
		<line class="st3" x1="610.5" y1="339.2" x2="613.5" y2="339.2"/>
	</g>
</g>
<g>
	<g>
		<line class="st3" x1="334" y1="618.7" x2="334" y2="615.7"/>
		<line class="st4" x1="334" y1="609.8" x2="334" y2="65.7"/>
		<line class="st3" x1="334" y1="62.8" x2="334" y2="59.8"/>
	</g>
</g>
<g>
	<g>
		<line class="st0" x1="521.2" y1="53.3" x2="146.8" y2="53.3"/>
		<g>
			<polygon points="515.3,50.1 514.9,51.1 521.1,53.3 514.9,55.5 515.3,56.5 524,53.3 			"/>
		</g>
		<g>
			<polygon points="152.7,50.1 153.1,51.1 146.9,53.3 153.1,55.5 152.7,56.5 144,53.3 			"/>
		</g>
	</g>
</g>
<line class="st0" x1="144" y1="149.2" x2="144" y2="24.9"/>
<line class="st0" x1="524" y1="149.2" x2="524" y2="24.9"/>
<g>
	<g>
		<g>
			<line class="st0" x1="48.1" y1="152.1" x2="48.1" y2="526.4"/>
			<g>
				<polygon points="44.9,158 45.8,158.3 48.1,152.2 50.3,158.3 51.2,158 48.1,149.2 				"/>
			</g>
			<g>
				<polygon points="44.9,520.5 45.8,520.2 48.1,526.3 50.3,520.2 51.2,520.5 48.1,529.2 				"/>
			</g>
		</g>
	</g>
	<line class="st0" x1="144" y1="529.2" x2="19.6" y2="529.2"/>
	<line class="st0" x1="144" y1="149.2" x2="19.6" y2="149.2"/>
</g>
<g>
	<g>
		<line class="st0" x1="521.2" y1="53.3" x2="146.8" y2="53.3"/>
		<g>
			<polygon points="515.3,50.1 514.9,51.1 521.1,53.3 514.9,55.5 515.3,56.5 524,53.3 			"/>
		</g>
		<g>
			<polygon points="152.7,50.1 153.1,51.1 146.9,53.3 153.1,55.5 152.7,56.5 144,53.3 			"/>
		</g>
	</g>
</g>
<line class="st0" x1="144" y1="149.2" x2="144" y2="24.9"/>
<line class="st0" x1="524" y1="149.2" x2="524" y2="24.9"/>
<text transform="matrix(1 0 0 1 331.4108 43.595)" class="st5 st6">D</text>
</svg>
