<?xml version="1.0" encoding="utf-8"?>
<!-- Generator: Adobe Illustrator 26.5.0, SVG Export Plug-In . SVG Version: 6.00 Build 0)  -->
<svg version="1.1" id="Layer_1" xmlns="http://www.w3.org/2000/svg" xmlns:xlink="http://www.w3.org/1999/xlink" x="0px" y="0px"
	 width="637.316px" height="273.752px" viewBox="0 0 637.316 273.752" style="enable-background:new 0 0 637.316 273.752;"
	 xml:space="preserve">
<rect x="447.751" y="18.544" style="fill:none;stroke:#000000;stroke-width:3;stroke-miterlimit:10;" width="170.079" height="124.724"/>
<rect x="22.555" y="222.638" style="fill:none;stroke:#000000;stroke-width:3;stroke-miterlimit:10;" width="240.945" height="28.346"/>
<line style="fill:none;stroke:#000000;stroke-width:3;stroke-miterlimit:10;" x1="447.751" y1="18.544" x2="206.681" y2="80.906"/>
<g>
	<g>
		
			<line style="fill:none;stroke:#000000;stroke-width:3;stroke-miterlimit:10;" x1="65.376" y1="222.638" x2="206.681" y2="80.906"/>
		<g>
			<path d="M69.37,226.62c-2.199,2.205-5.77,2.211-7.976,0.012c-2.205-2.199-2.211-5.77-0.012-7.976
				c2.199-2.205,5.77-2.211,7.976-0.012C71.563,220.843,71.569,224.414,69.37,226.62z"/>
		</g>
		<g>
			<polygon points="200.918,100.201 198.196,98.935 206.474,81.113 188.677,89.445 187.406,86.729 212.667,74.902 			"/>
		</g>
	</g>
</g>
<g>
	<g>
		
			<line style="fill:none;stroke:#000000;stroke-width:3;stroke-miterlimit:10;" x1="238.25" y1="222.638" x2="303.672" y2="151.772"/>
		<g>
			<path d="M242.394,226.464c-2.112,2.288-5.681,2.431-7.969,0.318c-2.288-2.112-2.431-5.681-0.318-7.969
				c2.112-2.288,5.681-2.431,7.969-0.318C244.364,220.607,244.507,224.175,242.394,226.464z"/>
		</g>
		<g>
			<polygon points="298.654,171.274 295.886,170.114 303.473,151.987 286.009,160.997 284.634,158.331 309.422,145.543 			"/>
		</g>
	</g>
</g>
<line style="fill:none;stroke:#000000;stroke-width:3;stroke-miterlimit:10;" x1="447.751" y1="143.268" x2="303.672" y2="151.772"/>
<text transform="matrix(1 0 0 1 34.8766 80.9056)" style="font-family:'TimesNewRomanPS-ItalicMT'; font-size:52.815px;">C</text>
<text transform="matrix(0.583 0 0 0.583 70.1037 98.493)" style="font-family:'TimesNewRomanPS-ItalicMT'; font-size:52.815px;">outside</text>
<text transform="matrix(1 0 0 1 297.9822 222.638)" style="font-family:'TimesNewRomanPS-ItalicMT'; font-size:52px;">C</text>
<text transform="matrix(0.583 0 0 0.583 332.6658 239.9539)" style="font-family:'TimesNewRomanPS-ItalicMT'; font-size:52px;">inside</text>
</svg>
