<?xml version="1.0" encoding="utf-8"?>
<!-- Generator: Adobe Illustrator 26.5.0, SVG Export Plug-In . SVG Version: 6.00 Build 0)  -->
<svg version="1.1" id="LayeR_A" xmlns="http://www.w3.org/2000/svg" xmlns:xlink="http://www.w3.org/1999/xlink" x="0px" y="0px"
	 width="750.1px" height="218.2px" viewBox="0 0 750.1 218.2" style="enable-background:new 0 0 750.1 218.2;" xml:space="preserve"
	>
<line style="fill:none;stroke:#AAAAAA;stroke-width:0.75;stroke-miterlimit:10;" x1="463.9" y1="112.1" x2="486.6" y2="112.1"/>
<g>
	<g>
		<line style="fill:none;stroke:#AAAAAA;stroke-width:0.75;stroke-miterlimit:10;" x1="477.2" y1="113" x2="477.2" y2="125.5"/>
		<g>
			<polygon style="fill:#AAAAAA;" points="474.2,115.4 474.7,116 477.2,113.2 479.8,116 480.3,115.4 477.2,112.1 			"/>
		</g>
		<g>
			<polygon style="fill:#AAAAAA;" points="474.2,123 474.7,122.5 477.2,125.2 479.8,122.5 480.3,123 477.2,126.3 			"/>
		</g>
	</g>
</g>
<line style="fill:none;stroke:#AAAAAA;stroke-width:0.75;stroke-miterlimit:10;" x1="651.7" y1="115.8" x2="671.1" y2="113.4"/>
<line style="fill:none;stroke:#AAAAAA;stroke-width:0.75;stroke-miterlimit:10;" x1="652.4" y1="126.3" x2="672.4" y2="126.3"/>
<g>
	<rect x="498.6" y="55.4" style="fill:none;stroke:#000000;stroke-miterlimit:10;" width="141.7" height="141.7"/>
	<g>
		
			<rect x="538.7" y="73.3" transform="matrix(0.9921 -0.1253 0.1253 0.9921 -10.711 75.5981)" style="fill:none;stroke:#000000;stroke-miterlimit:10;" width="113.4" height="99.2"/>
		<g>
			
				<ellipse transform="matrix(0.9921 -0.1253 0.1253 0.9921 -10.0921 78.8425)" style="fill:none;stroke:#000000;stroke-miterlimit:10;" cx="621.5" cy="119.6" rx="2.3" ry="2.3"/>
			
				<ellipse transform="matrix(0.9921 -0.1253 0.1253 0.9921 -11.3322 72.3416)" style="fill:none;stroke:#000000;stroke-miterlimit:10;" cx="569.3" cy="126.2" rx="2.3" ry="2.3"/>
		</g>
	</g>
	<g style="opacity:0.5;">
		<g>
			<line style="fill:none;stroke:#000000;stroke-width:0.5;stroke-miterlimit:10;" x1="569.5" y1="55.4" x2="569.5" y2="56.9"/>
			
				<line style="fill:none;stroke:#000000;stroke-width:0.5;stroke-miterlimit:10;stroke-dasharray:2.9518,2.9518;" x1="569.5" y1="59.9" x2="569.5" y2="194.2"/>
			<line style="fill:none;stroke:#000000;stroke-width:0.5;stroke-miterlimit:10;" x1="569.5" y1="195.6" x2="569.5" y2="197.1"/>
		</g>
	</g>
	<g style="opacity:0.5;">
		<g>
			
				<line style="fill:none;stroke:#000000;stroke-width:0.75;stroke-miterlimit:10;stroke-dasharray:3.0093,3.0093;" x1="652.4" y1="126.3" x2="35.5" y2="126.3"/>
			<line style="fill:none;stroke:#000000;stroke-width:0.75;stroke-miterlimit:10;" x1="34" y1="126.3" x2="32.5" y2="126.3"/>
		</g>
	</g>
	
		<rect x="555.3" y="112.1" transform="matrix(0.9921 -0.1253 0.1253 0.9921 -11.3339 72.3658)" style="fill:none;stroke:#000000;stroke-miterlimit:10;stroke-dasharray:7,2;" width="28.3" height="28.3"/>
	<rect x="32.5" y="55.4" style="fill:none;stroke:#000000;stroke-miterlimit:10;" width="4.5" height="141.7"/>
	
		<rect x="461.7" y="62.5" transform="matrix(0.9976 -6.900899e-02 6.900899e-02 0.9976 -6.6284 32.2845)" style="fill:none;stroke:#000000;stroke-miterlimit:10;" width="4.5" height="99.2"/>
	<path style="fill:none;stroke:#000000;stroke-miterlimit:10;" d="M37,112.2c233.6,0,423.7-14,423.7-14l2,28.2
		c0,0-191.4,14.1-425.7,14.1V112.2z"/>
	<g>
		<g>
			<line style="fill:none;stroke:#A033FF;stroke-miterlimit:10;" x1="621.5" y1="119.7" x2="621.5" y2="24.2"/>
			<g>
				<circle style="fill:#A033FF;" cx="621.5" cy="119.7" r="1.1"/>
			</g>
			<g>
				<polygon style="fill:#A033FF;" points="624.7,30.1 623.7,30.5 621.5,24.3 619.3,30.5 618.3,30.1 621.5,21.4 				"/>
			</g>
		</g>
	</g>
	<g>
		<g>
			<line style="fill:none;stroke:#A033FF;stroke-miterlimit:10;" x1="463.9" y1="111" x2="463.9" y2="15.5"/>
			<g>
				<circle style="fill:#A033FF;" cx="463.9" cy="112.1" r="1.1"/>
			</g>
			<g>
				<polygon style="fill:#A033FF;" points="467.1,21.4 466.2,21.8 463.9,15.6 461.7,21.8 460.8,21.4 463.9,12.7 				"/>
			</g>
		</g>
	</g>
	<g>
		<g>
			<path style="fill:none;stroke:#A033FF;stroke-miterlimit:10;" d="M573.9,120.2c0,0,1,1.6,1.4,2.1c1.7,2.4,1.8,5.8-0.1,8.3
				c-2.3,3.1-6.7,3.8-9.8,1.5c-1.4-1-2.3-2.5-2.7-4.2"/>
			<g>
				<polygon style="fill:#A033FF;" points="574.4,126.8 575.4,126.6 573.9,120.2 579.2,124.1 579.8,123.3 572.3,117.8 				"/>
			</g>
		</g>
	</g>
	
		<text transform="matrix(1 0 0 1 574.4911 116.3615)" style="fill:#A033FF; font-family:'TimesNewRomanPS-ItalicMT'; font-size:16px;">T</text>
	
		<text transform="matrix(1 0 0 1 626.8726 24.194)" style="fill:#A033FF; font-family:'TimesNewRomanPS-ItalicMT'; font-size:16px;">F</text>
	
		<text transform="matrix(1 0 0 1 468.2679 17.2916)" style="fill:#A033FF; font-family:'TimesNewRomanPS-ItalicMT'; font-size:16px;">F</text>
	<path style="fill:none;stroke:#000000;stroke-width:0.75;stroke-miterlimit:10;stroke-dasharray:3.0093,3.0093;" d="M463.9,112.1
		c0,0-184.1,14.2-428.4,14.2"/>
	
		<line style="fill:none;stroke:#000000;stroke-width:0.75;stroke-miterlimit:10;stroke-dasharray:3.0093,3.0093;" x1="539.2" y1="130" x2="651.7" y2="115.8"/>
</g>
<text transform="matrix(1 0 0 1 469.6262 103.6778)" style="font-family:'TimesNewRomanPS-ItalicMT'; font-size:16px;">∂</text>
<text transform="matrix(0.583 0 0 0.583 477.5324 109.0059)" style="font-family:'TimesNewRomanPS-ItalicMT'; font-size:16px;">max</text>
<text transform="matrix(1 0 0 1 673.3253 123.9301)" style="font-family:'TimesNewRomanPS-ItalicMT'; font-size:16px;">θ</text>
<text transform="matrix(0.583 0 0 0.583 681.1846 129.2582)" style="font-family:'TimesNewRomanPS-ItalicMT'; font-size:16px;">max</text>
<path style="fill:none;stroke:#AAAAAA;stroke-width:0.75;stroke-miterlimit:10;" d="M663.8,126.2c0-4-0.3-8-0.8-11.9"/>
</svg>
