<?xml version="1.0" encoding="utf-8"?>
<!-- Generator: Adobe Illustrator 26.5.0, SVG Export Plug-In . SVG Version: 6.00 Build 0)  -->
<svg version="1.1" id="LayeR_A" xmlns="http://www.w3.org/2000/svg" xmlns:xlink="http://www.w3.org/1999/xlink" x="0px" y="0px"
	 width="750.1px" height="218.2px" viewBox="0 0 750.1 218.2" style="enable-background:new 0 0 750.1 218.2;" xml:space="preserve"
	>
<g>
	<rect x="498.6" y="55.4" style="fill:none;stroke:#000000;stroke-miterlimit:10;" width="141.7" height="141.7"/>
	<g style="opacity:0.5;">
		<rect x="539.2" y="76.7" style="fill:none;stroke:#000000;stroke-miterlimit:10;" width="113.4" height="99.2"/>
		<g>
			<circle style="fill:none;stroke:#000000;stroke-miterlimit:10;" cx="622.2" cy="126.3" r="2.3"/>
			<circle style="fill:none;stroke:#000000;stroke-miterlimit:10;" cx="569.5" cy="126.3" r="2.3"/>
		</g>
	</g>
	<g style="opacity:0.5;">
		<g>
			<line style="fill:none;stroke:#000000;stroke-miterlimit:10;" x1="569.5" y1="55.4" x2="569.5" y2="56.9"/>
			
				<line style="fill:none;stroke:#000000;stroke-miterlimit:10;stroke-dasharray:2.9518,2.9518;" x1="569.5" y1="59.9" x2="569.5" y2="194.2"/>
			<line style="fill:none;stroke:#000000;stroke-miterlimit:10;" x1="569.5" y1="195.6" x2="569.5" y2="197.1"/>
		</g>
	</g>
	<g style="opacity:0.5;">
		<g>
			<line style="fill:none;stroke:#000000;stroke-miterlimit:10;" x1="640.4" y1="126.3" x2="638.9" y2="126.3"/>
			
				<line style="fill:none;stroke:#000000;stroke-miterlimit:10;stroke-dasharray:3.0093,3.0093;" x1="635.8" y1="126.3" x2="35.5" y2="126.3"/>
			<line style="fill:none;stroke:#000000;stroke-miterlimit:10;" x1="34" y1="126.3" x2="32.5" y2="126.3"/>
		</g>
	</g>
	<rect x="555.3" y="112.1" style="fill:none;stroke:#000000;stroke-miterlimit:10;" width="28.3" height="28.3"/>
	<rect x="32.5" y="55.4" style="fill:none;stroke:#000000;stroke-miterlimit:10;" width="4.5" height="141.7"/>
	<rect x="462.2" y="76.7" style="fill:none;stroke:#000000;stroke-miterlimit:10;" width="4.5" height="99.2"/>
	<rect x="37" y="112.1" style="fill:none;stroke:#000000;stroke-miterlimit:10;" width="425.2" height="28.3"/>
	<g style="opacity:0.5;">
		<g>
			<line style="fill:none;stroke:#A033FF;stroke-miterlimit:10;" x1="464.5" y1="126.3" x2="464.5" y2="30.8"/>
			<g>
				<circle style="fill:#A033FF;" cx="464.5" cy="126.3" r="1.1"/>
			</g>
			<g>
				<polygon style="fill:#A033FF;" points="467.7,36.7 466.7,37.1 464.5,30.9 462.3,37.1 461.3,36.7 464.5,28 				"/>
			</g>
		</g>
	</g>
	<g style="opacity:0.5;">
		<g>
			<line style="fill:none;stroke:#A033FF;stroke-miterlimit:10;" x1="622.2" y1="126.3" x2="622.2" y2="30.8"/>
			<g>
				<circle style="fill:#A033FF;" cx="622.2" cy="126.3" r="1.1"/>
			</g>
			<g>
				<polygon style="fill:#A033FF;" points="625.4,36.7 624.5,37.1 622.2,30.9 620,37.1 619,36.7 622.2,28 				"/>
			</g>
		</g>
	</g>
	<g>
		<g>
			<line style="fill:none;stroke:#A033FF;stroke-miterlimit:10;" x1="569.5" y1="126.3" x2="569.5" y2="30.8"/>
			<g>
				<circle style="fill:#A033FF;" cx="569.5" cy="126.3" r="1.1"/>
			</g>
			<g>
				<polygon style="fill:#A033FF;" points="572.7,36.7 571.7,37.1 569.5,30.9 567.3,37.1 566.3,36.7 569.5,28 				"/>
			</g>
		</g>
	</g>
	<g>
		<g>
			<line style="fill:none;stroke:#A033FF;stroke-miterlimit:10;" x1="37" y1="126.3" x2="37" y2="30.8"/>
			<g>
				<circle style="fill:#A033FF;" cx="37" cy="126.3" r="1.1"/>
			</g>
			<g>
				<polygon style="fill:#A033FF;" points="40.2,36.7 39.3,37.1 37,30.9 34.8,37.1 33.9,36.7 37,28 				"/>
			</g>
		</g>
	</g>
	<g>
		<g>
			<line style="fill:none;stroke:#FF390B;stroke-miterlimit:10;" x1="69.2" y1="89.4" x2="43" y2="107.5"/>
			<g>
				<path style="fill:#FF390B;" d="M38,110.9c1.7-2.5,3.6-6,4.3-8.8l1.3,4.9l4.1,2.9C44.9,109.6,41,110.2,38,110.9z"/>
			</g>
		</g>
	</g>
	<g>
		<g>
			<line style="fill:none;stroke:#39B54A;stroke-miterlimit:10;" x1="564.6" y1="83.4" x2="580.3" y2="107.3"/>
			<g>
				<path style="fill:#39B54A;" d="M583.7,112.4c-2.4-1.8-5.9-3.7-8.7-4.5l4.9-1.2l3-4.1C582.5,105.5,583,109.4,583.7,112.4z"/>
			</g>
		</g>
	</g>
	<g>
		<g>
			<line style="fill:none;stroke:#39B54A;stroke-miterlimit:10;" x1="575.7" y1="168.2" x2="558.9" y2="145.3"/>
			<g>
				<path style="fill:#39B54A;" d="M555.3,140.5c2.5,1.7,6.1,3.4,8.9,4.1l-4.9,1.4l-2.8,4.2C556.8,147.3,556.1,143.4,555.3,140.5z"
					/>
			</g>
		</g>
	</g>
	<g>
		<g>
			<line style="fill:none;stroke:#0071BC;stroke-miterlimit:10;" x1="68.5" y1="164.3" x2="42.9" y2="146"/>
			<g>
				<path style="fill:#0071BC;" d="M38,142.5c2.9,0.8,6.8,1.4,9.7,1.1l-4.2,2.9l-1.4,4.9C41.6,148.5,39.7,145,38,142.5z"/>
			</g>
		</g>
	</g>
	<g>
		<g>
			<path style="fill:none;stroke:#A033FF;stroke-miterlimit:10;" d="M573.9,120.2c0,0,1,1.6,1.4,2.1c1.7,2.4,1.8,5.8-0.1,8.3
				c-2.3,3.1-6.7,3.8-9.8,1.5c-1.4-1-2.3-2.5-2.7-4.2"/>
			<g>
				<polygon style="fill:#A033FF;" points="574.4,126.8 575.4,126.6 573.9,120.2 579.2,124.1 579.8,123.3 572.3,117.8 				"/>
			</g>
		</g>
	</g>
	<circle style="fill:#D4145A;" cx="583.6" cy="112.1" r="1.4"/>
	<circle style="fill:#D4145A;" cx="555.3" cy="140.5" r="1.4"/>
	
		<text transform="matrix(1 0 0 1 587.8077 114.7604)" style="fill:#D4145A; font-family:'TimesNewRomanPS-ItalicMT'; font-size:12px;">p</text>
	
		<text transform="matrix(1 0 0 1 593.8076 118.7565)" style="fill:#D4145A; font-family:'TimesNewRomanPS-ItalicMT'; font-size:6.996px;">1</text>
	
		<text transform="matrix(1 0 0 1 542.788 139.034)" style="fill:#D4145A; font-family:'TimesNewRomanPS-ItalicMT'; font-size:12px;">p</text>
	
		<text transform="matrix(1 0 0 1 548.7881 143.03)" style="fill:#D4145A; font-family:'TimesNewRomanPS-ItalicMT'; font-size:6.996px;">2</text>
	
		<text transform="matrix(1 0 0 1 576.516 136.9537)" style="fill:#A033FF; font-family:'TimesNewRomanPS-ItalicMT'; font-size:12px;">τ</text>
	<g>
		<g>
			<path style="fill:none;stroke:#A033FF;stroke-miterlimit:10;" d="M41.3,120.2c0,0,1,1.6,1.4,2.1c1.7,2.4,1.8,5.8-0.1,8.3
				c-2.3,3.1-6.7,3.8-9.8,1.5c-1.4-1-2.3-2.5-2.7-4.2"/>
			<g>
				<polygon style="fill:#A033FF;" points="41.9,126.8 42.9,126.6 41.4,120.2 46.6,124.1 47.2,123.3 39.8,117.8 				"/>
			</g>
		</g>
	</g>
	
		<text transform="matrix(1 0 0 1 43.9878 136.9537)" style="fill:#A033FF; font-family:'TimesNewRomanPS-ItalicMT'; font-size:12px;">M</text>
	
		<text transform="matrix(1 0 0 1 574.6567 31.0767)" style="fill:#A033FF; font-family:'TimesNewRomanPS-ItalicMT'; font-size:12px;">F</text>
	
		<text transform="matrix(1 0 0 1 581.9863 35.0734)" style="fill:#A033FF; font-family:'TimesNewRomanPS-ItalicMT'; font-size:6.996px;">1</text>
	
		<text transform="matrix(1 0 0 1 44.6599 31.0767)" style="fill:#A033FF; font-family:'TimesNewRomanPS-ItalicMT'; font-size:12px;">F</text>
	
		<text transform="matrix(1 0 0 1 51.9902 35.0734)" style="fill:#A033FF; font-family:'TimesNewRomanPS-ItalicMT'; font-size:6.996px;">1</text>
	<text transform="matrix(1 0 0 1 72.1021 87.181)" style="fill:#FF390B; font-family:'TimesNewRomanPS-ItalicMT'; font-size:12px;">High compressive stress due to moment</text>
	<text transform="matrix(1 0 0 1 71.79 164.8177)" style="fill:#0071BC; font-family:'TimesNewRomanPS-ItalicMT'; font-size:12px;">High tensile stress due to moment</text>
	
		<text transform="matrix(1 0 0 1 582.2145 167.4091)" style="fill:#39B54A; font-family:'TimesNewRomanPS-ItalicMT'; font-size:12px;">High shear stress due torque</text>
</g>
</svg>
