<?xml version="1.0" encoding="utf-8"?>
<!-- Generator: Adobe Illustrator 26.5.0, SVG Export Plug-In . SVG Version: 6.00 Build 0)  -->
<svg version="1.1" id="Layer_1" xmlns="http://www.w3.org/2000/svg" xmlns:xlink="http://www.w3.org/1999/xlink" x="0px" y="0px"
	 width="750.1px" height="218.2px" viewBox="0 0 750.1 218.2" style="enable-background:new 0 0 750.1 218.2;" xml:space="preserve"
	>
<style type="text/css">
	.st0{fill:none;stroke:#000000;stroke-miterlimit:10;}
	.st1{opacity:0.5;}
	.st2{fill:none;stroke:#000000;stroke-miterlimit:10;stroke-dasharray:2.9518,2.9518;}
	.st3{fill:none;stroke:#000000;stroke-miterlimit:10;stroke-dasharray:3.0093,3.0093;}
	.st4{fill:none;stroke:#A033FF;stroke-miterlimit:10;}
	.st5{fill:#A033FF;}
	.st6{fill:none;stroke:#FF390B;stroke-miterlimit:10;}
	.st7{fill:#FF390B;}
	.st8{fill:none;stroke:#39B54A;stroke-miterlimit:10;}
	.st9{fill:#39B54A;}
	.st10{fill:none;stroke:#0071BC;stroke-miterlimit:10;}
	.st11{fill:#0071BC;}
	.st12{fill:#D4145A;}
	.st13{fill:none;stroke:#000000;stroke-width:0.5;stroke-miterlimit:10;}
	.st14{fill:none;stroke:#000000;stroke-width:0.5;stroke-miterlimit:10;stroke-dasharray:2.9518,2.9518;}
	.st15{fill:none;stroke:#000000;stroke-width:0.75;stroke-miterlimit:10;stroke-dasharray:3.0093,3.0093;}
	.st16{fill:none;stroke:#000000;stroke-width:0.75;stroke-miterlimit:10;}
	.st17{fill:none;stroke:#000000;stroke-miterlimit:10;stroke-dasharray:7,2;}
	.st18{font-family:'TimesNewRomanPS-ItalicMT';}
	.st19{font-size:12px;}
</style>
<g>
	<rect x="498.6" y="-201" class="st0" width="141.7" height="141.7"/>
	<g class="st1">
		<rect x="539.2" y="-179.7" class="st0" width="113.4" height="99.2"/>
		<g>
			<circle class="st0" cx="622.2" cy="-130.1" r="2.3"/>
			<circle class="st0" cx="569.5" cy="-130.1" r="2.3"/>
		</g>
	</g>
	<g class="st1">
		<g>
			<line class="st0" x1="569.5" y1="-201" x2="569.5" y2="-199.5"/>
			<line class="st2" x1="569.5" y1="-196.5" x2="569.5" y2="-62.2"/>
			<line class="st0" x1="569.5" y1="-60.8" x2="569.5" y2="-59.3"/>
		</g>
	</g>
	<g class="st1">
		<g>
			<line class="st0" x1="640.4" y1="-130.1" x2="638.9" y2="-130.1"/>
			<line class="st3" x1="635.8" y1="-130.1" x2="35.5" y2="-130.1"/>
			<line class="st0" x1="34" y1="-130.1" x2="32.5" y2="-130.1"/>
		</g>
	</g>
	<rect x="555.3" y="-144.3" class="st0" width="28.3" height="28.3"/>
	<rect x="32.5" y="-201" class="st0" width="4.5" height="141.7"/>
	<rect x="462.2" y="-179.7" class="st0" width="4.5" height="99.2"/>
	<rect x="37" y="-144.3" class="st0" width="425.2" height="28.3"/>
	<g class="st1">
		<g>
			<line class="st4" x1="464.5" y1="-130.1" x2="464.5" y2="-225.6"/>
			<g>
				<circle class="st5" cx="464.5" cy="-130.1" r="1.1"/>
			</g>
			<g>
				<polygon class="st5" points="467.7,-219.7 466.7,-219.3 464.5,-225.5 462.3,-219.3 461.3,-219.7 464.5,-228.4 				"/>
			</g>
		</g>
	</g>
	<g class="st1">
		<g>
			<line class="st4" x1="622.2" y1="-130.1" x2="622.2" y2="-225.6"/>
			<g>
				<circle class="st5" cx="622.2" cy="-130.1" r="1.1"/>
			</g>
			<g>
				<polygon class="st5" points="625.4,-219.7 624.5,-219.3 622.2,-225.5 620,-219.3 619,-219.7 622.2,-228.4 				"/>
			</g>
		</g>
	</g>
	<g>
		<g>
			<line class="st4" x1="569.5" y1="-130.1" x2="569.5" y2="-225.6"/>
			<g>
				<circle class="st5" cx="569.5" cy="-130.1" r="1.1"/>
			</g>
			<g>
				<polygon class="st5" points="572.7,-219.7 571.7,-219.3 569.5,-225.5 567.3,-219.3 566.3,-219.7 569.5,-228.4 				"/>
			</g>
		</g>
	</g>
	<g>
		<g>
			<line class="st4" x1="37" y1="-130.1" x2="37" y2="-225.6"/>
			<g>
				<circle class="st5" cx="37" cy="-130.1" r="1.1"/>
			</g>
			<g>
				<polygon class="st5" points="40.2,-219.7 39.3,-219.3 37,-225.5 34.8,-219.3 33.9,-219.7 37,-228.4 				"/>
			</g>
		</g>
	</g>
	<g>
		<g>
			<line class="st6" x1="69.2" y1="-167" x2="43" y2="-148.9"/>
			<g>
				<path class="st7" d="M38-145.5c1.7-2.5,3.6-6,4.3-8.8l1.3,4.9l4.1,2.9C44.9-146.8,41-146.2,38-145.5z"/>
			</g>
		</g>
	</g>
	<g>
		<g>
			<line class="st8" x1="564.6" y1="-173" x2="580.3" y2="-149.1"/>
			<g>
				<path class="st9" d="M583.7-144c-2.4-1.8-5.9-3.7-8.7-4.5l4.9-1.2l3-4.1C582.5-150.9,583-147,583.7-144z"/>
			</g>
		</g>
	</g>
	<g>
		<g>
			<line class="st8" x1="575.7" y1="-88.2" x2="558.9" y2="-111.1"/>
			<g>
				<path class="st9" d="M555.3-115.9c2.5,1.7,6.1,3.4,8.9,4.1l-4.9,1.4l-2.8,4.2C556.8-109.1,556.1-113,555.3-115.9z"/>
			</g>
		</g>
	</g>
	<g>
		<g>
			<line class="st10" x1="68.5" y1="-92.1" x2="42.9" y2="-110.4"/>
			<g>
				<path class="st11" d="M38-113.9c2.9,0.8,6.8,1.4,9.7,1.1l-4.2,2.9l-1.4,4.9C41.6-107.9,39.7-111.4,38-113.9z"/>
			</g>
		</g>
	</g>
	<g>
		<g>
			<path class="st4" d="M573.9-136.2c0,0,1,1.6,1.4,2.1c1.7,2.4,1.8,5.8-0.1,8.3c-2.3,3.1-6.7,3.8-9.8,1.5c-1.4-1-2.3-2.5-2.7-4.2"
				/>
			<g>
				<polygon class="st5" points="574.4,-129.6 575.4,-129.8 573.9,-136.2 579.2,-132.3 579.8,-133.1 572.3,-138.6 				"/>
			</g>
		</g>
	</g>
	<circle class="st12" cx="583.6" cy="-144.3" r="1.4"/>
	<circle class="st12" cx="555.3" cy="-115.9" r="1.4"/>
	<text transform="matrix(1 0 0 1 587.8077 -141.6238)" class="st12 st18 st19">p</text>
	<text transform="matrix(1 0 0 1 593.8076 -137.6277)" class="st12 st18" style="font-size:6.996px;">1</text>
	<text transform="matrix(1 0 0 1 542.788 -117.3502)" class="st12 st18 st19">p</text>
	<text transform="matrix(1 0 0 1 548.7881 -113.3542)" class="st12 st18" style="font-size:6.996px;">2</text>
	<text transform="matrix(1 0 0 1 576.516 -119.4305)" class="st5 st18 st19">τ</text>
	<g>
		<g>
			<path class="st4" d="M41.3-136.2c0,0,1,1.6,1.4,2.1c1.7,2.4,1.8,5.8-0.1,8.3c-2.3,3.1-6.7,3.8-9.8,1.5c-1.4-1-2.3-2.5-2.7-4.2"/>
			<g>
				<polygon class="st5" points="41.9,-129.6 42.9,-129.8 41.4,-136.2 46.6,-132.3 47.2,-133.1 39.8,-138.6 				"/>
			</g>
		</g>
	</g>
	<text transform="matrix(1 0 0 1 43.9878 -119.4305)" class="st5 st18 st19">M</text>
	<text transform="matrix(1 0 0 1 574.6567 -225.3075)" class="st5 st18 st19">F</text>
	<text transform="matrix(1 0 0 1 581.9863 -221.3108)" class="st5 st18" style="font-size:6.996px;">1</text>
	<text transform="matrix(1 0 0 1 44.6599 -225.3075)" class="st5 st18 st19">F</text>
	<text transform="matrix(1 0 0 1 51.9902 -221.3108)" class="st5 st18" style="font-size:6.996px;">1</text>
	<text transform="matrix(1 0 0 1 72.1021 -169.2032)" class="st7 st18 st19">High compressive stress due to moment</text>
	<text transform="matrix(1 0 0 1 71.79 -91.5665)" class="st11 st18 st19">High tensile stress due to moment</text>
	<text transform="matrix(1 0 0 1 582.2145 -88.9751)" class="st9 st18 st19">High shear stress due torque</text>
</g>
<g>
	<rect x="498.6" y="55.4" class="st0" width="141.7" height="141.7"/>
	<g>
		
			<rect x="538.7" y="73.3" transform="matrix(0.9921 -0.1253 0.1253 0.9921 -10.711 75.5981)" class="st0" width="113.4" height="99.2"/>
		<g>
			
				<ellipse transform="matrix(0.9921 -0.1253 0.1253 0.9921 -10.0921 78.8425)" class="st0" cx="621.5" cy="119.6" rx="2.3" ry="2.3"/>
			
				<ellipse transform="matrix(0.9921 -0.1253 0.1253 0.9921 -11.3322 72.3416)" class="st0" cx="569.3" cy="126.2" rx="2.3" ry="2.3"/>
		</g>
	</g>
	<g class="st1">
		<g>
			<line class="st13" x1="569.5" y1="55.4" x2="569.5" y2="56.9"/>
			<line class="st14" x1="569.5" y1="59.9" x2="569.5" y2="194.2"/>
			<line class="st13" x1="569.5" y1="195.6" x2="569.5" y2="197.1"/>
		</g>
	</g>
	<g class="st1">
		<g>
			<line class="st15" x1="652.4" y1="126.3" x2="35.5" y2="126.3"/>
			<line class="st16" x1="34" y1="126.3" x2="32.5" y2="126.3"/>
		</g>
	</g>
	
		<rect x="555.3" y="112.1" transform="matrix(0.9921 -0.1253 0.1253 0.9921 -11.3339 72.3658)" class="st17" width="28.3" height="28.3"/>
	<rect x="32.5" y="55.4" class="st0" width="4.5" height="141.7"/>
	
		<rect x="461.7" y="62.5" transform="matrix(0.9976 -6.900899e-02 6.900899e-02 0.9976 -6.6284 32.2845)" class="st0" width="4.5" height="99.2"/>
	<path class="st0" d="M37,112.2c233.6,0,423.7-14,423.7-14l2,28.2c0,0-191.4,14.1-425.7,14.1V112.2z"/>
	<g>
		<g>
			<line class="st4" x1="621.5" y1="119.7" x2="621.5" y2="24.2"/>
			<g>
				<circle class="st5" cx="621.5" cy="119.7" r="1.1"/>
			</g>
			<g>
				<polygon class="st5" points="624.7,30.1 623.7,30.5 621.5,24.3 619.3,30.5 618.3,30.1 621.5,21.4 				"/>
			</g>
		</g>
	</g>
	<g>
		<g>
			<line class="st4" x1="463.9" y1="111" x2="463.9" y2="15.5"/>
			<g>
				<circle class="st5" cx="463.9" cy="112.1" r="1.1"/>
			</g>
			<g>
				<polygon class="st5" points="467.1,21.4 466.2,21.8 463.9,15.6 461.7,21.8 460.8,21.4 463.9,12.7 				"/>
			</g>
		</g>
	</g>
	<g>
		<g>
			<path class="st4" d="M573.9,120.2c0,0,1,1.6,1.4,2.1c1.7,2.4,1.8,5.8-0.1,8.3c-2.3,3.1-6.7,3.8-9.8,1.5c-1.4-1-2.3-2.5-2.7-4.2"
				/>
			<g>
				<polygon class="st5" points="574.4,126.8 575.4,126.6 573.9,120.2 579.2,124.1 579.8,123.3 572.3,117.8 				"/>
			</g>
		</g>
	</g>
	<text transform="matrix(1 0 0 1 576.516 136.9537)" class="st5 st18 st19">τ</text>
	<text transform="matrix(1 0 0 1 625.4 27.9)" class="st5 st18 st19">F</text>
	<text transform="matrix(1 0 0 1 468.4601 19.9444)" class="st5 st18 st19">F</text>
	<path class="st15" d="M463.9,112.1c0,0-184.1,14.2-428.4,14.2"/>
	<line class="st15" x1="539.2" y1="130" x2="651.7" y2="115.8"/>
</g>
</svg>
