<?xml version="1.0" encoding="utf-8"?>
<!-- Generator: Adobe Illustrator 26.5.0, SVG Export Plug-In . SVG Version: 6.00 Build 0)  -->
<svg version="1.1" id="Layer_1" xmlns="http://www.w3.org/2000/svg" xmlns:xlink="http://www.w3.org/1999/xlink" x="0px" y="0px"
	 width="131.9px" height="89.5px" viewBox="0 0 131.9 89.5" style="enable-background:new 0 0 131.9 89.5;" xml:space="preserve">
<style type="text/css">
	.st0{fill:none;stroke:#000000;stroke-miterlimit:10;}
	.st1{fill:none;stroke:#000000;stroke-miterlimit:10;stroke-dasharray:3;}
	.st2{opacity:0.5;}
	.st3{fill:none;stroke:#000000;stroke-miterlimit:10;stroke-dasharray:2.9518,2.9518;}
	.st4{fill:none;stroke:#000000;stroke-miterlimit:10;stroke-dasharray:3.0093,3.0093;}
	.st5{fill:none;stroke:#A033FF;stroke-miterlimit:10;}
	.st6{fill:#A033FF;}
	.st7{fill:none;stroke:#FF390B;stroke-miterlimit:10;}
	.st8{fill:#FF390B;}
	.st9{fill:none;stroke:#39B54A;stroke-miterlimit:10;}
	.st10{fill:#39B54A;}
	.st11{fill:none;stroke:#0071BC;stroke-miterlimit:10;}
	.st12{fill:#0071BC;}
	.st13{fill:#D4145A;}
	.st14{fill:none;stroke:#000000;stroke-width:2;stroke-linecap:square;stroke-linejoin:round;stroke-miterlimit:10;}
	.st15{font-family:'TimesNewRomanPS-ItalicMT';}
	.st16{font-size:12px;}
	.st17{fill:none;stroke:#000000;stroke-width:0.5;stroke-miterlimit:10;}
	.st18{fill:none;stroke:#000000;stroke-width:0.5;stroke-miterlimit:10;stroke-dasharray:6.5,3;}
	.st19{fill:none;stroke:#000000;stroke-width:2;stroke-linecap:round;stroke-linejoin:round;stroke-miterlimit:10;}
	.st20{fill:none;stroke:#000000;stroke-width:0.5;stroke-miterlimit:10;stroke-dasharray:7,3;}
</style>
<polyline class="st14" points="33.5,85.2 33.5,19.3 116.3,19.3 116.3,85.2 "/>
<g>
	<text transform="matrix(1 0 0 1 71.9082 14.9139)" class="st15 st16">b</text>
	<line class="st17" x1="33.5" y1="19.3" x2="33.5" y2="4.3"/>
	<line class="st17" x1="116.3" y1="19.3" x2="116.3" y2="4.3"/>
	<g>
		<g>
			<line class="st17" x1="79.3" y1="11.8" x2="111.9" y2="11.8"/>
			<g>
				<polygon points="110.9,13.2 116.3,11.8 110.9,10.3 				"/>
			</g>
		</g>
	</g>
	<g>
		<g>
			<line class="st17" x1="37.9" y1="11.8" x2="70.7" y2="11.8"/>
			<g>
				<polygon points="38.9,13.2 33.5,11.8 38.9,10.3 				"/>
			</g>
		</g>
	</g>
</g>
<g>
	<text transform="matrix(1 0 0 1 7.4694 55.3966)" class="st15 st16">d</text>
	<line class="st17" x1="33.5" y1="19.3" x2="3.4" y2="19.3"/>
	<line class="st17" x1="33.5" y1="85.2" x2="3.4" y2="85.2"/>
	<g>
		<g>
			<line class="st17" x1="10.9" y1="59" x2="10.9" y2="80.8"/>
			<g>
				<polygon points="9.5,79.8 10.9,85.2 12.4,79.8 				"/>
			</g>
		</g>
	</g>
	<g>
		<g>
			<line class="st17" x1="10.9" y1="23.7" x2="10.9" y2="46"/>
			<g>
				<polygon points="9.5,24.7 10.9,19.3 12.4,24.7 				"/>
			</g>
		</g>
	</g>
</g>
<line class="st18" x1="119" y1="41.5" x2="28.9" y2="41.5"/>
<text transform="matrix(1 0 0 1 20.0313 44.7643)" class="st15 st16">X</text>
<text transform="matrix(1 0 0 1 119.7873 44.7641)" class="st15 st16">X</text>
</svg>
