<?xml version="1.0" encoding="utf-8"?>
<!-- Generator: Adobe Illustrator 26.5.0, SVG Export Plug-In . SVG Version: 6.00 Build 0)  -->
<svg viewBox="0 0 1190.6 841.9">
	<g>
		<text transform="matrix(1.0001 0 0 1 677.7386 724.2448)" style="fill:#010101; font-family:'CenturyGothic'; font-size:6.6142px;">Gabriel Ralph</text>
		<text transform="matrix(1.0001 0 0 1 677.7386 736.2692)" style="fill:#010101; font-family:'CenturyGothic'; font-size:6.6142px;">Gabriel Ralph</text>
		<text transform="matrix(1 0 0 1 786.2855 723.9186)" style="fill:#010101; font-family:'CenturyGothic'; font-size:6.6142px;">27 Oct 22</text>
		<text transform="matrix(1.0001 0 0 1 979.6478 743.1599)" style="fill:#010101; font-family:'CenturyGothic'; font-size:22px;">Shaft</text>
		<text transform="matrix(1 0 0 1.0001 681.1136 690.9274)" style="fill:#010101; font-family:'CenturyGothic'; font-size:6.6133px;">± 0.1mm</text>
		<text transform="matrix(1 0 0 1.0001 699.0132 677.1491)" style="fill:#010101; font-family:'CenturyGothic'; font-size:6.6133px;">Machined and Polished</text>
		<text transform="matrix(1.0002 0 0 1 689.0316 698.3288)" style="fill:#010101; font-family:'CenturyGothic'; font-size:6.6142px;">± 0.1°</text>
		<text transform="matrix(1 0 0 1 821.7592 788.9899)" style="fill:#010101; font-family:'CenturyGothic'; font-size:11.9996px;">Cold Rolled Steel</text>
		<text transform="matrix(1 0 0 1.0006 5.6419 788.4157)" style="fill:#010101; font-family:'CenturyGothic'; font-size:23.027px;">A</text>
		<text transform="matrix(1 0 0 1.0006 1167.849 788.4157)" style="fill:#010101; font-family:'CenturyGothic'; font-size:23.027px;">A</text>
		<text transform="matrix(1 0 0 1.0001 7.5541 648.8161)" style="fill:#010101; font-family:'CenturyGothic'; font-size:23.0383px;">B</text>
		<text transform="matrix(1 0 0 1.0001 1169.7611 648.8161)" style="fill:#010101; font-family:'CenturyGothic'; font-size:23.0383px;">B</text>
		<text transform="matrix(1 0 0 1.0006 4.8124 507.0739)" style="fill:#010101; font-family:'CenturyGothic'; font-size:23.0258px;">C</text>
		<text transform="matrix(1 0 0 1.0006 1167.0189 507.0739)" style="fill:#010101; font-family:'CenturyGothic'; font-size:23.0258px;">C</text>
		<text transform="matrix(1 0 0 1.0003 5.596 365.3317)" style="fill:#010101; font-family:'CenturyGothic'; font-size:23.0322px;">D</text>
		<text transform="matrix(1 0 0 1.0003 1167.8031 365.3317)" style="fill:#010101; font-family:'CenturyGothic'; font-size:23.0322px;">D</text>
		<text transform="matrix(1.0009 0 0 1 7.992 223.59)" style="fill:#010101; font-family:'CenturyGothic'; font-size:23.04px;">E</text>
		<text transform="matrix(1.0009 0 0 1 1170.1986 223.59)" style="fill:#010101; font-family:'CenturyGothic'; font-size:23.04px;">E</text>
		<text transform="matrix(1 0 0 1.0013 8.5912 83.9904)" style="fill:#010101; font-family:'CenturyGothic'; font-size:23.0103px;">F</text>
		<text transform="matrix(1 0 0 1.0013 1170.7982 83.9904)" style="fill:#010101; font-family:'CenturyGothic'; font-size:23.0103px;">F</text>
		<text transform="matrix(1.0003 0 0 1 78.6556 834.0807)" style="fill:#010101; font-family:'CenturyGothic'; font-size:23.04px;">8</text>
		<text transform="matrix(1.0003 0 0 1 78.6556 20.5383)" style="fill:#010101; font-family:'CenturyGothic'; font-size:23.04px;">8</text>
		<text transform="matrix(1.0003 0 0 1 234.5672 834.0807)" style="fill:#010101; font-family:'CenturyGothic'; font-size:23.04px;">7</text>
		<text transform="matrix(1.0003 0 0 1 234.5672 20.5383)" style="fill:#010101; font-family:'CenturyGothic'; font-size:23.04px;">7</text>
		<text transform="matrix(1.0003 0 0 1 376.3094 834.0807)" style="fill:#010101; font-family:'CenturyGothic'; font-size:23.04px;">6</text>
		<text transform="matrix(1.0003 0 0 1 376.3094 20.5383)" style="fill:#010101; font-family:'CenturyGothic'; font-size:23.04px;">6</text>
		<text transform="matrix(1.0003 0 0 1 518.0516 834.0807)" style="fill:#010101; font-family:'CenturyGothic'; font-size:23.04px;">5</text>
		<text transform="matrix(1.0003 0 0 1 518.0516 20.5383)" style="fill:#010101; font-family:'CenturyGothic'; font-size:23.04px;">5</text>
		<text transform="matrix(1.0003 0 0 1 659.7933 834.0807)" style="fill:#010101; font-family:'CenturyGothic'; font-size:23.04px;">4</text>
		<text transform="matrix(1.0003 0 0 1 659.7933 20.5383)" style="fill:#010101; font-family:'CenturyGothic'; font-size:23.04px;">4</text>
		<text transform="matrix(1.0003 0 0 1 801.5355 834.0807)" style="fill:#010101; font-family:'CenturyGothic'; font-size:23.04px;">3</text>
		<text transform="matrix(1.0003 0 0 1 801.5355 20.5383)" style="fill:#010101; font-family:'CenturyGothic'; font-size:23.04px;">3</text>
		<text transform="matrix(1.0003 0 0 1 943.2777 834.0807)" style="fill:#010101; font-family:'CenturyGothic'; font-size:23.04px;">2</text>
		<text transform="matrix(1.0003 0 0 1 943.2777 20.5383)" style="fill:#010101; font-family:'CenturyGothic'; font-size:23.04px;">2</text>
		<text transform="matrix(1.0003 0 0 1 1099.1898 834.0807)" style="fill:#010101; font-family:'CenturyGothic'; font-size:23.04px;">1</text>
		<text transform="matrix(1.0003 0 0 1 1099.1898 20.5383)" style="fill:#010101; font-family:'CenturyGothic'; font-size:23.04px;">1</text>
		<text transform="matrix(1 0 0 1.1693 653.7806 723.9186)" style="fill:#010101; font-family:'CenturyGothic'; font-size:4.8484px;">DRAWN</text>
		<text transform="matrix(1 0 0 1.0281 654.6195 735.8893)" style="fill:#010101; font-family:'CenturyGothic'; font-size:5.5144px;">CHK&apos;D</text>
		<text transform="matrix(1 0 0 1.0242 653.0941 747.4997)" style="fill:#010101; font-family:'CenturyGothic'; font-size:5.5354px;">APPV&apos;D</text>
		<text transform="matrix(1 0 0 1.0194 655.141 759.8307)" style="fill:#010101; font-family:'CenturyGothic'; font-size:5.5614px;">MFG</text>
		<text transform="matrix(1 0 0 1.0218 656.2357 771.7702)" style="fill:#010101; font-family:'CenturyGothic'; font-size:5.5482px;">Q.A</text>
		<text transform="matrix(1 0 0 1.0279 653.639 662.8737)" style="fill:#010101; font-family:'CenturyGothic'; font-size:5.5152px;">UNLESS OTHERWISE SPECIFIED:</text>
		<text transform="matrix(1 0 0 1.0266 653.639 669.9606)" style="fill:#010101; font-family:'CenturyGothic'; font-size:5.5222px;">DIMENSIONS ARE IN MILLIMETERS</text>
		<text transform="matrix(1 0 0 1.0306 653.639 677.0475)" style="fill:#010101; font-family:'CenturyGothic'; font-size:5.5012px;">SURFACE FINISH:</text>
		<text transform="matrix(1 0 0 1.0242 653.639 684.1335)" style="fill:#010101; font-family:'CenturyGothic'; font-size:5.5354px;">TOLERANCES:</text>
		<text transform="matrix(1 0 0 1.0267 653.639 691.2204)" style="fill:#010101; font-family:'CenturyGothic'; font-size:5.5216px;">   LINEAR:</text>
		<text transform="matrix(1 0 0 1.0211 653.639 698.3073)" style="fill:#010101; font-family:'CenturyGothic'; font-size:5.552px;">   ANGULAR:</text>
		<text transform="matrix(1 0 0 1.0245 882.4408 662.6413)" style="fill:#010101; font-family:'CenturyGothic'; font-size:5.5336px;">DEBURR AND </text>
		<text transform="matrix(1 0 0 1.022 882.4408 669.7282)" style="fill:#010101; font-family:'CenturyGothic'; font-size:5.5471px;">BREAK SHARP </text>
		<text transform="matrix(1 0 0 1.0228 882.4408 676.8151)" style="fill:#010101; font-family:'CenturyGothic'; font-size:5.5431px;">EDGES</text>
		<text transform="matrix(1 0 0 1.0199 692.559 712.2536)" style="fill:#010101; font-family:'CenturyGothic'; font-size:5.5584px;">NAME</text>
		<text transform="matrix(1 0 0 1.0252 737.0961 712.0837)" style="fill:#010101; font-family:'CenturyGothic'; font-size:5.5299px;">SIGNATURE</text>
		<text transform="matrix(1 0 0 1.0179 785.8011 712.0436)" style="fill:#010101; font-family:'CenturyGothic'; font-size:5.5696px;">DATE</text>
		<text transform="matrix(1 0 0 1.0243 809.7035 770.4089)" style="fill:#010101; font-family:'CenturyGothic'; font-size:5.5347px;">MATERIAL:</text>
		<text transform="matrix(1 0 0 1.0198 971.1879 666.8141)" style="fill:#010101; font-family:'CenturyGothic'; font-size:5.5593px;">DO NOT SCALE DRAWING</text>
		<text transform="matrix(1 0 0 1.0295 1086.5922 667.3757)" style="fill:#010101; font-family:'CenturyGothic'; font-size:5.5068px;">REVISION</text>
		<text transform="matrix(1 0 0 1.0336 935.681 712.0436)" style="fill:#010101; font-family:'CenturyGothic'; font-size:5.4848px;">TITLE:</text>
		<text transform="matrix(1 0 0 1.0212 935.2894 770.4089)" style="fill:#010101; font-family:'CenturyGothic'; font-size:5.5515px;">DWG NO.</text>
		<text transform="matrix(1 0 0 1.0337 935.6293 807.5036)" style="fill:#010101; font-family:'CenturyGothic'; font-size:5.4843px;">SCALE:</text>
		<text transform="matrix(1 0 0 1.0337 956.2833 807.5036)" style="fill:#010101; font-family:'CenturyGothic'; font-size:5.4843px;">1:2</text>
		<text transform="matrix(1 0 0 1.0324 1061.4994 807.5036)" style="fill:#010101; font-family:'CenturyGothic'; font-size:5.4912px;">SHEET 1 OF 1</text>
		<text transform="matrix(1 0 0 1.0116 1136.3168 778.8776)" style="fill:#010101; font-family:'CenturyGothic'; font-size:10.8739px;">A3</text>
		<text transform="matrix(1 0 0 1.025 809.6136 807.3532)" style="fill:#010101; font-family:'CenturyGothic'; font-size:5.526px;">WEIGHT: </text>
		<text transform="matrix(1 0 0 1.0207 999.6293 790.8893)" style="fill:#010101; font-family:'CenturyGothic'; font-size:23.5144px;">Shaft R3</text>
		<path style="fill:none;stroke:#C1C0C0;stroke-width:0.992;stroke-linecap:round;stroke-linejoin:round;stroke-miterlimit:10;" d="
			M1020.4,811.5v21.3 M1020.4,26.3V5 M878.7,811.5v21.3 M878.7,26.3V5 M737,811.5v21.3 M737,26.3V5 M595.2,811.5v21.3 M595.2,26.3V5
			 M453.5,811.5v21.3 M453.5,26.3V5 M311.8,811.5v21.3 M311.8,26.3V5 M170,811.5v21.3 M170,26.3V5 M1162.2,135.4h21.2 M28.3,135.4H7
			 M1162.2,277.2h21.2 M28.3,277.2H7 M1162.2,418.9h21.2 M28.3,418.9H7 M1162.2,560.6h21.2 M28.3,560.6H7 M1162.2,702.4h21.2
			 M28.3,702.4H7 M595.2,832.8v-21.3 M1183.4,418.9h-21.2 M595.2,5v21.3 M7,418.9h21.3"/>
		<path style="fill:none;stroke:#C1C0C0;stroke-width:1.417;stroke-linecap:round;stroke-linejoin:round;stroke-miterlimit:10;" d="
			M1162.2,787.4h-36.9 M1162.2,673H932 M1125.3,799.5v-36.2 M1079.4,673v-18.1 M1057.3,811.5v-12 M932,654.9v156.6 M806.7,763.3
			h355.5 M806.7,763.3H651.9 M806.7,775.4H651.9 M880.4,654.9v108.4 M806.7,787.4H651.9 M836.2,751.3v-48.2 M777.8,703.1v108.4
			 M777.8,703.1v-48.2 M674,703.1v108.4 M651.9,654.9v156.6 M932,715.1H651.9 M932,727.2H651.9 M932,739.2H651.9 M932,751.3H651.9
			 M728.4,703.1v108.4 M651.9,654.9h510.3 M1162.2,703.1H651.9 M651.9,799.5h510.3"/>
		<path style="fill:none;stroke:#C1C0C0;stroke-width:1.984;stroke-linecap:round;stroke-linejoin:round;stroke-miterlimit:10;" d="
			M1162.2,811.5H28.3 M1162.2,26.3v785.2 M28.3,26.3h1133.9 M28.3,811.5V26.3"/>
		<g>
			<circle style="fill:none;stroke:#AFB0B2;stroke-width:0.7087;stroke-linecap:round;stroke-linejoin:round;stroke-miterlimit:10;" cx="811.5" cy="679" r="7"/>
			<circle style="fill:none;stroke:#AFB0B2;stroke-width:0.7087;stroke-linecap:round;stroke-linejoin:round;stroke-miterlimit:10;" cx="811.5" cy="679" r="11.8"/>
			<polygon style="fill:none;stroke:#AFB0B2;stroke-width:0.7087;stroke-linecap:round;stroke-linejoin:round;stroke-miterlimit:10;" points="
			834.7,672 862.1,667.2 862.1,690.8 834.7,686.1 		"/>
			<g>
				<line style="fill:none;stroke:#AFB0B2;stroke-width:0.7087;stroke-linecap:round;stroke-linejoin:round;" x1="796.3" y1="679" x2="800.3" y2="679"/>
				<line style="fill:none;stroke:#AFB0B2;stroke-width:0.7087;stroke-linecap:round;stroke-linejoin:round;stroke-dasharray:1.0848,2.1695;" x1="802.5" y1="679" x2="804.7" y2="679"/>
				<line style="fill:none;stroke:#AFB0B2;stroke-width:0.7087;stroke-linecap:round;stroke-linejoin:round;stroke-dasharray:8.6782,2.1695,1.0848,2.1695;" x1="805.8" y1="679" x2="861.1" y2="679"/>
				<line style="fill:none;stroke:#AFB0B2;stroke-width:0.7087;stroke-linecap:round;stroke-linejoin:round;" x1="862.2" y1="679" x2="866.2" y2="679"/>
			</g>
			<g>
				<line style="fill:none;stroke:#AFB0B2;stroke-width:0.7087;stroke-linecap:round;stroke-linejoin:round;" x1="811.5" y1="697" x2="811.5" y2="693"/>
				<line style="fill:none;stroke:#AFB0B2;stroke-width:0.7087;stroke-linecap:round;stroke-linejoin:round;stroke-dasharray:0.9039,1.8077;" x1="811.5" y1="691.2" x2="811.5" y2="689.4"/>
				<line style="fill:none;stroke:#AFB0B2;stroke-width:0.7087;stroke-linecap:round;stroke-linejoin:round;stroke-dasharray:7.2309,1.8077,0.9039,1.8077;" x1="811.5" y1="688.5" x2="811.5" y2="665.9"/>
				<line style="fill:none;stroke:#AFB0B2;stroke-width:0.7087;stroke-linecap:round;stroke-linejoin:round;" x1="811.5" y1="665" x2="811.5" y2="661"/>
			</g>
		</g>
		<path style="fill:none;stroke:#010101;stroke-width:0.5;stroke-miterlimit:10;" d="M746.7,719.7c-0.8-0.1-1.6,0.2-2.1,0.8
			c-0.5,0.6-0.8,1.3-1,2.1c-0.2,0.5-0.3,1.1-0.1,1.6c0.2,0.5,0.8,0.8,1.3,0.9c1,0.2,2-0.2,2.8-0.9s1.4-1.5,1.8-2.4"/>
		<path style="fill:none;stroke:#010101;stroke-width:0.5;stroke-miterlimit:10;" d="M747.2,722.6c1.2-1,2.5-1.8,4-2.3
			c0.8-0.3,1.8-0.5,2.6-0.2c0.8,0.3,1.6,1,1.5,1.9c-0.1,1-1,1.7-1.9,2c-0.6,0.2-1.2,0.3-1.8,0.3c-0.6-0.1-1.2-0.3-1.6-0.8
			c-0.1-0.2-0.2-0.4-0.1-0.6c0.1-0.1,0.1-0.1,0.2-0.1c0.6-0.1,1.3-0.1,1.8,0.3c0.5,0.3,0.8,0.7,1.3,1c0.6,0.4,1.3,0.5,1.9,0.6
			c1.5,0.2,3.1,0.2,4.6,0c0.2,0,0.4-0.1,0.6-0.2c0.2-0.2,0.2-0.4,0.2-0.7c0.1-1.4-0.3-2.7-0.6-4c0-0.1-0.1-0.2,0-0.3
			c0.1-0.1,0.2-0.1,0.3-0.1c1.4,0,2.7,0.4,3.9,1.1"/>
		<line style="fill:none;stroke:#C1C0C0;stroke-width:1.417;stroke-linecap:round;stroke-linejoin:round;stroke-miterlimit:10;" x1="806.7" y1="763.3" x2="806.7" y2="799.5"/>
	</g>
</svg>
