<?xml version="1.0" encoding="utf-8"?>
<!-- Generator: Adobe Illustrator 26.5.0, SVG Export Plug-In . SVG Version: 6.00 Build 0)  -->
<svg version="1.1" id="LayeR_A" xmlns="http://www.w3.org/2000/svg" xmlns:xlink="http://www.w3.org/1999/xlink" x="0px" y="0px"
	 width="387.7px" height="106.9px" viewBox="0 0 387.7 106.9" style="enable-background:new 0 0 387.7 106.9;" xml:space="preserve"
	>
<line style="fill:none;stroke:#000000;stroke-width:2.8346;stroke-linecap:round;stroke-linejoin:round;stroke-miterlimit:10;" x1="30" y1="80" x2="264.7" y2="80"/>
<polygon style="fill:none;stroke:#000000;stroke-width:2.8346;stroke-linecap:round;stroke-linejoin:round;stroke-miterlimit:10;" points="
	30,95.3 21.1,95.3 25.6,87.7 30,80 34.4,87.7 38.8,95.3 "/>
<polygon style="fill:none;stroke:#000000;stroke-width:2.8346;stroke-linecap:round;stroke-linejoin:round;stroke-miterlimit:10;" points="
	201.4,95.3 192.6,95.3 197,87.7 201.4,80 205.8,87.7 210.2,95.3 "/>
<g>
	<g>
		<line style="fill:none;stroke:#0068FF;stroke-width:2.126;stroke-miterlimit:10;" x1="115.8" y1="15.6" x2="115.8" y2="67.3"/>
		<g>
			<polygon style="fill:#0068FF;" points="107.9,61.3 115.8,64.7 123.7,61.3 115.8,80 			"/>
		</g>
	</g>
</g>
<g>
	<g>
		<line style="fill:none;stroke:#0068FF;stroke-width:2.126;stroke-miterlimit:10;" x1="264.7" y1="36.6" x2="264.7" y2="67.3"/>
		<g>
			<polygon style="fill:#0068FF;" points="256.8,61.3 264.7,64.7 272.6,61.3 264.7,80 			"/>
		</g>
	</g>
</g>
<text transform="matrix(1 0 0 1 122.7514 23.0298)" style="font-family:'TimesNewRomanPSMT'; font-size:14px;">F</text>
<text transform="matrix(1 0 0 1 275.1016 36.6167)" style="font-family:'TimesNewRomanPSMT'; font-size:14px;">F</text>
<text transform="matrix(0.583 0 0 0.583 282.8877 41.2788)" style="font-family:'TimesNewRomanPSMT'; font-size:14px;">1</text>
</svg>
