<?xml version="1.0" encoding="utf-8"?>
<!-- Generator: Adobe Illustrator 26.5.0, SVG Export Plug-In . SVG Version: 6.00 Build 0)  -->
<svg version="1.1" id="Layer_1" xmlns="http://www.w3.org/2000/svg" xmlns:xlink="http://www.w3.org/1999/xlink" x="0px" y="0px"
	 width="1099.8px" height="444.7px" viewBox="0 0 1099.8 444.7" style="enable-background:new 0 0 1099.8 444.7;"
	 xml:space="preserve">
<pattern  y="-591.4" width="10" height="10" patternUnits="userSpaceOnUse" id="New_Pattern_Swatch_1" viewBox="12.9 -22.9 10 10" style="overflow:visible;">
	<g>
		<rect x="12.9" y="-22.9" style="fill:none;" width="10" height="10"/>
		<g>
			<defs>
				<rect id="SVGID_1_" x="20.4" y="-15.4" width="15" height="15"/>
			</defs>
			<clipPath id="SVGID_00000116196401060181629270000007572927427811955889_">
				<use xlink:href="#SVGID_1_"  style="overflow:visible;"/>
			</clipPath>
			
				<line style="clip-path:url(#SVGID_00000116196401060181629270000007572927427811955889_);fill:none;stroke:#B7B7B7;stroke-miterlimit:10;" x1="20.4" y1="-0.4" x2="35.4" y2="-15.4"/>
		</g>
		<g>
			<defs>
				<rect id="SVGID_00000036249171627960010570000003398236214510783929_" x="10.4" y="-15.4" width="15" height="15"/>
			</defs>
			<clipPath id="SVGID_00000076599568394740786920000004412714091628476320_">
				<use xlink:href="#SVGID_00000036249171627960010570000003398236214510783929_"  style="overflow:visible;"/>
			</clipPath>
			
				<line style="clip-path:url(#SVGID_00000076599568394740786920000004412714091628476320_);fill:none;stroke:#B7B7B7;stroke-miterlimit:10;" x1="10.4" y1="-0.4" x2="25.4" y2="-15.4"/>
		</g>
		<g>
			<defs>
				<rect id="SVGID_00000159431956907057809030000009412742794226077320_" x="0.4" y="-15.4" width="15" height="15"/>
			</defs>
			<clipPath id="SVGID_00000030487772852432727460000009707404626465416605_">
				<use xlink:href="#SVGID_00000159431956907057809030000009412742794226077320_"  style="overflow:visible;"/>
			</clipPath>
			
				<line style="clip-path:url(#SVGID_00000030487772852432727460000009707404626465416605_);fill:none;stroke:#B7B7B7;stroke-miterlimit:10;" x1="0.4" y1="-0.4" x2="15.4" y2="-15.4"/>
		</g>
		<g>
			<defs>
				<rect id="SVGID_00000157278291798605863550000010763674028910672781_" x="20.4" y="-25.4" width="15" height="15"/>
			</defs>
			<clipPath id="SVGID_00000080193847198244104120000014022805237380497563_">
				<use xlink:href="#SVGID_00000157278291798605863550000010763674028910672781_"  style="overflow:visible;"/>
			</clipPath>
			
				<line style="clip-path:url(#SVGID_00000080193847198244104120000014022805237380497563_);fill:none;stroke:#B7B7B7;stroke-miterlimit:10;" x1="20.4" y1="-10.4" x2="35.4" y2="-25.4"/>
		</g>
		<g>
			<defs>
				<rect id="SVGID_00000138538641831505364350000007085110151393278622_" x="10.4" y="-25.4" width="15" height="15"/>
			</defs>
			<clipPath id="SVGID_00000147931225947433723360000012143230231128361110_">
				<use xlink:href="#SVGID_00000138538641831505364350000007085110151393278622_"  style="overflow:visible;"/>
			</clipPath>
			
				<line style="clip-path:url(#SVGID_00000147931225947433723360000012143230231128361110_);fill:none;stroke:#B7B7B7;stroke-miterlimit:10;" x1="10.4" y1="-10.4" x2="25.4" y2="-25.4"/>
		</g>
		<g>
			<defs>
				<rect id="SVGID_00000164486885786957451040000014551006637047096710_" x="0.4" y="-25.4" width="15" height="15"/>
			</defs>
			<clipPath id="SVGID_00000094615398219901233790000016734727850204479881_">
				<use xlink:href="#SVGID_00000164486885786957451040000014551006637047096710_"  style="overflow:visible;"/>
			</clipPath>
			
				<line style="clip-path:url(#SVGID_00000094615398219901233790000016734727850204479881_);fill:none;stroke:#B7B7B7;stroke-miterlimit:10;" x1="0.4" y1="-10.4" x2="15.4" y2="-25.4"/>
		</g>
		<g>
			<defs>
				<rect id="SVGID_00000082367844416413526860000016170846449107968190_" x="20.4" y="-35.4" width="15" height="15"/>
			</defs>
			<clipPath id="SVGID_00000087387318188821948850000018436143110403590328_">
				<use xlink:href="#SVGID_00000082367844416413526860000016170846449107968190_"  style="overflow:visible;"/>
			</clipPath>
			
				<line style="clip-path:url(#SVGID_00000087387318188821948850000018436143110403590328_);fill:none;stroke:#B7B7B7;stroke-miterlimit:10;" x1="20.4" y1="-20.4" x2="35.4" y2="-35.4"/>
		</g>
		<g>
			<defs>
				<rect id="SVGID_00000150076285876831160530000012244473923617212034_" x="10.4" y="-35.4" width="15" height="15"/>
			</defs>
			<clipPath id="SVGID_00000109722499122833790000000010430554943932221568_">
				<use xlink:href="#SVGID_00000150076285876831160530000012244473923617212034_"  style="overflow:visible;"/>
			</clipPath>
			
				<line style="clip-path:url(#SVGID_00000109722499122833790000000010430554943932221568_);fill:none;stroke:#B7B7B7;stroke-miterlimit:10;" x1="10.4" y1="-20.4" x2="25.4" y2="-35.4"/>
		</g>
		<g>
			<defs>
				<rect id="SVGID_00000034051562381898442930000017513816299176058519_" x="0.4" y="-35.4" width="15" height="15"/>
			</defs>
			<clipPath id="SVGID_00000168102279029496253630000007094468964663862716_">
				<use xlink:href="#SVGID_00000034051562381898442930000017513816299176058519_"  style="overflow:visible;"/>
			</clipPath>
			
				<line style="clip-path:url(#SVGID_00000168102279029496253630000007094468964663862716_);fill:none;stroke:#B7B7B7;stroke-miterlimit:10;" x1="0.4" y1="-20.4" x2="15.4" y2="-35.4"/>
		</g>
	</g>
</pattern>
<pattern  y="-591.4" width="15" height="15" patternUnits="userSpaceOnUse" id="New_Pattern_Swatch_2" viewBox="0.4 -15.4 15 15" style="overflow:visible;">
	<g>
		<rect x="0.4" y="-15.4" style="fill:none;" width="15" height="15"/>
		<g>
			<defs>
				<rect id="SVGID_00000021084968570504370070000012082497501861363346_" x="0.4" y="-15.4" width="15" height="15"/>
			</defs>
			<clipPath id="SVGID_00000073684445986392252400000000651742520600529588_">
				<use xlink:href="#SVGID_00000021084968570504370070000012082497501861363346_"  style="overflow:visible;"/>
			</clipPath>
			
				<line style="clip-path:url(#SVGID_00000073684445986392252400000000651742520600529588_);fill:none;stroke:#B7B7B7;stroke-miterlimit:10;" x1="0.4" y1="-0.4" x2="15.4" y2="-15.4"/>
		</g>
		<g>
			<defs>
				
					<rect id="SVGID_00000138549953182299678040000006376224398760363443_" x="0.4" y="-15.4" transform="matrix(-1.836970e-16 1 -1 -1.836970e-16 1.776357e-15 -15.7071)" width="15" height="15"/>
			</defs>
			<clipPath id="SVGID_00000114758921912152863300000009424823878354657413_">
				<use xlink:href="#SVGID_00000138549953182299678040000006376224398760363443_"  style="overflow:visible;"/>
			</clipPath>
			
				<line style="clip-path:url(#SVGID_00000114758921912152863300000009424823878354657413_);fill:none;stroke:#B7B7B7;stroke-miterlimit:10;" x1="15.4" y1="-0.4" x2="0.4" y2="-15.4"/>
		</g>
	</g>
</pattern>
<g>
	<g>
		<path style="fill:#FFFFFF;" d="M857.4,272c-26,0-47.2-21.2-47.2-47.2s21.2-47.2,47.2-47.2s47.2,21.2,47.2,47.2
			S883.4,272,857.4,272z"/>
		<path d="M857.4,178.3c25.6,0,46.5,20.9,46.5,46.5c0,25.6-20.9,46.5-46.5,46.5c-25.6,0-46.5-20.9-46.5-46.5
			C810.9,199.2,831.8,178.3,857.4,178.3 M857.4,176.9c-26.5,0-47.9,21.5-47.9,47.9c0,26.5,21.5,47.9,47.9,47.9
			c26.5,0,47.9-21.5,47.9-47.9C905.3,198.4,883.9,176.9,857.4,176.9L857.4,176.9z"/>
	</g>
	<circle style="fill:none;stroke:#000000;stroke-width:1.4173;stroke-miterlimit:10;" cx="857.4" cy="224.8" r="165"/>
	<g>
		<g>
			<line style="fill:none;stroke:#000000;stroke-width:0.7087;stroke-miterlimit:10;" x1="857.4" y1="60.6" x2="857.4" y2="224.8"/>
			<g>
				<polygon points="854.5,62.9 855,63.4 857.4,60.9 859.8,63.4 860.3,62.9 857.4,59.8 				"/>
			</g>
		</g>
	</g>
	<text transform="matrix(1 0 0 1 869.5596 44.2654)" style="font-family:'TimesNewRomanPSMT'; font-size:12px;">r</text>
	<text transform="matrix(0.583 0 0 0.583 873.5557 48.2615)" style="font-family:'TimesNewRomanPSMT'; font-size:12px;">p</text>
	<text transform="matrix(1 0 0 1 877.0537 44.2654)" style="font-family:'TimesNewRomanPSMT'; font-size:12px;"> =165mm</text>
	<g>
		<g>
			
				<line style="fill:none;stroke:#0068FF;stroke-width:1.4173;stroke-miterlimit:10;" x1="1016.8" y1="182.1" x2="1078.4" y2="412.2"/>
			<g>
				<polygon style="fill:#0068FF;" points="1072.3,409.7 1078,410.5 1082.5,407 1080.6,420.4 				"/>
			</g>
		</g>
	</g>
	
		<line style="fill:none;stroke:#000000;stroke-width:0.7087;stroke-miterlimit:10;stroke-dasharray:8.5039,2.8346;" x1="1016.8" y1="182.1" x2="857.4" y2="224.8"/>
	
		<rect x="1008.2" y="183.2" transform="matrix(0.9659 -0.2588 0.2588 0.9659 -14.1953 268.6622)" style="fill:none;stroke:#000000;stroke-width:0.7087;stroke-miterlimit:10;" width="10" height="10"/>
	
		<line style="fill:none;stroke:#000000;stroke-width:0.7087;stroke-miterlimit:10;stroke-dasharray:8.5039,2.8346;" x1="857.4" y1="224.8" x2="979.4" y2="224.8"/>
	<g>
		<g>
			<path style="fill:none;stroke:#000000;stroke-width:0.7087;stroke-miterlimit:10;" d="M951.6,224.8c0-8.1-1-16-3-23.6"/>
			<g>
				<path d="M953.1,205.2c-0.1,0.1-0.4,0.1-0.5,0l-3.9-3.8l-1.8,5.1c-0.1,0.2-0.3,0.3-0.5,0.2c-0.2-0.1-0.3-0.3-0.2-0.5l2-5.6
					c0-0.1,0.1-0.2,0.3-0.2c0.1,0,0.2,0,0.3,0.1l4.3,4.2c0,0,0.1,0.1,0.1,0.2C953.2,205,953.1,205.1,953.1,205.2z"/>
			</g>
		</g>
	</g>
	<text transform="matrix(1 0 0 1 956.428 215.8689)" style="font-family:'Times-Italic'; font-size:12px;">15˚</text>
	<text transform="matrix(1 0 0 1 1013.2486 418.8485)" style="font-family:'Times-Roman'; font-size:12px;">F</text>
	<text transform="matrix(0.583 0 0 0.583 1019.9224 422.8446)" style="font-family:'Times-Roman'; font-size:12px;">L</text>
	<text transform="matrix(1 0 0 1 1024.1958 418.8485)" style="font-family:'Times-Roman'; font-size:12px;"> = 15kN</text>
	<g>
		<g>
			<line style="fill:none;stroke:#000000;stroke-width:0.7087;stroke-miterlimit:10;" x1="857.4" y1="59.1" x2="857.4" y2="39.2"/>
			<g>
				<polygon points="860.3,56.7 859.8,56.2 857.4,58.8 855,56.2 854.5,56.7 857.4,59.8 				"/>
			</g>
		</g>
	</g>
</g>
<g>
	
		<rect x="70.8" y="177.3" style="fill:#FFFFFF;stroke:#000000;stroke-width:1.4173;stroke-miterlimit:10;" width="569.7" height="95.8"/>
	<g>
		
			<pattern  id="SVGID_00000183244154314472686730000011565244531871800496_" xlink:href="#New_Pattern_Swatch_1" patternTransform="matrix(1 0 0 1 35.8189 7.3189)">
		</pattern>
		
			<rect x="105.3" y="177.3" style="fill:url(#SVGID_00000183244154314472686730000011565244531871800496_);stroke:#000000;stroke-width:1.4173;stroke-miterlimit:10;" width="70.7" height="95.8"/>
		
			<pattern  id="SVGID_00000102517809928974090020000005879125585320309916_" xlink:href="#New_Pattern_Swatch_1" patternTransform="matrix(1 0 0 1 35.8189 7.3189)">
		</pattern>
		
			<rect x="337.9" y="177.3" style="fill:url(#SVGID_00000102517809928974090020000005879125585320309916_);stroke:#000000;stroke-width:1.4173;stroke-miterlimit:10;" width="70.7" height="95.8"/>
	</g>
	
		<rect x="248.4" y="88" style="fill:#FFFFFF;stroke:#000000;stroke-width:1.4173;stroke-miterlimit:10;" width="17.2" height="274.4"/>
	<g>
		<g>
			<line style="fill:none;stroke:#0068FF;stroke-width:1.4173;stroke-miterlimit:10;" x1="257" y1="184.2" x2="257" y2="419.9"/>
			<g>
				<polygon style="fill:#0068FF;" points="251.8,415.9 257,418.1 262.2,415.9 257,428.3 				"/>
			</g>
		</g>
	</g>
	<g>
		<g>
			<line style="fill:none;stroke:#0068FF;stroke-width:1.4173;stroke-miterlimit:10;" x1="140.7" y1="225.2" x2="140.7" y2="82.4"/>
			<g>
				<polygon style="fill:#0068FF;" points="145.9,86.4 140.7,84.2 135.5,86.4 140.7,74 				"/>
			</g>
		</g>
	</g>
	<g>
		<g>
			<line style="fill:none;stroke:#0068FF;stroke-width:1.4173;stroke-miterlimit:10;" x1="373.3" y1="225.2" x2="373.3" y2="82.4"/>
			<g>
				<polygon style="fill:#0068FF;" points="378.5,86.4 373.3,84.2 368,86.4 373.3,74 				"/>
			</g>
		</g>
	</g>
	
		<pattern  id="SVGID_00000130633311739983593450000010009116922508375208_" xlink:href="#New_Pattern_Swatch_2" patternTransform="matrix(1 0 0 1 35.8189 2.3189)">
	</pattern>
	
		<rect x="454.8" y="177.3" style="fill:url(#SVGID_00000130633311739983593450000010009116922508375208_);stroke:#000000;stroke-width:1.4173;stroke-miterlimit:10;" width="159.7" height="95.8"/>
	<g>
		
			<line style="fill:none;stroke:#000000;stroke-width:0.7087;stroke-miterlimit:10;stroke-dasharray:8.5039,2.8346;" x1="408.7" y1="273.1" x2="408.7" y2="325.7"/>
	</g>
	
		<line style="fill:none;stroke:#000000;stroke-width:0.7087;stroke-miterlimit:10;stroke-dasharray:8.5039,2.8346;" x1="454.8" y1="273.1" x2="454.8" y2="325.7"/>
	<text transform="matrix(1 0 0 1 423.1098 314.166)" style="font-family:'Times-Roman'; font-size:12px;">Clr</text>
	<text transform="matrix(1 0 0 1 365.3364 314.3704)" style="font-family:'Times-Roman'; font-size:12px;">Pbw</text>
	<text transform="matrix(1 0 0 1 248.403 36.4116)" style="font-family:'Times-Roman'; font-size:12px;">Pbs</text>
	<text transform="matrix(1 0 0 1 151.4977 73.9644)" style="font-family:'Times-Roman'; font-size:12px;">R</text>
	<text transform="matrix(0.583 0 0 0.583 159.5016 77.9605)" style="font-family:'Times-Roman'; font-size:12px;">1</text>
	<text transform="matrix(1 0 0 1 386.3485 76.7465)" style="font-family:'Times-Roman'; font-size:12px;">R</text>
	<text transform="matrix(0.583 0 0 0.583 394.3524 80.7426)" style="font-family:'Times-Roman'; font-size:12px;">2</text>
	<text transform="matrix(1 0 0 1 270.9766 428.3274)" style="font-family:'Times-Roman'; font-size:12px;">F</text>
	<text transform="matrix(0.583 0 0 0.583 277.6504 432.3235)" style="font-family:'Times-Roman'; font-size:12px;">L</text>
	<text transform="matrix(1 0 0 1 544.4012 339.0484)" style="font-family:'Times-Roman'; font-size:12px;">F</text>
	<text transform="matrix(0.583 0 0 0.583 551.075 343.0445)" style="font-family:'Times-Roman'; font-size:12px;">W </text>
	<text transform="matrix(1 0 0 1 559.4271 339.0484)" style="font-family:'Times-Roman'; font-size:12px;">= T</text>
	<text transform="matrix(0.583 0 0 0.583 576.5247 343.0445)" style="font-family:'Times-Roman'; font-size:12px;">1</text>
	<text transform="matrix(1 0 0 1 580.0228 339.0484)" style="font-family:'Times-Roman'; font-size:12px;"> + </text>
	<text transform="matrix(1 0 0 1 592.7903 339.0484)" style="font-family:'TimesNewRomanPS-ItalicMT'; font-size:14px;">m</text>
	<text transform="matrix(0.583 0 0 0.583 602.9007 343.7105)" style="font-family:'TimesNewRomanPS-ItalicMT'; font-size:14px;">w </text>
	<text transform="matrix(1 0 0 1 610.3851 339.0484)" style="font-family:'TimesNewRomanPS-ItalicMT'; font-size:14px;">g</text>
	<text transform="matrix(1 0 0 1 646.5304 297.7539)" style="font-family:'Times-Roman'; font-size:12px;">Tq</text>
	<g>
		<g>
			<path style="fill:none;stroke:#0068FF;stroke-width:1.4173;stroke-miterlimit:10;" d="M646.7,278.7c6-7.5,14.3-23.6,14.3-55.5
				c0-50.1-20.5-58-20.5-58"/>
			<g>
				<polygon style="fill:#0068FF;" points="653,279.5 647.8,277.3 645.7,272 640.5,284.4 				"/>
			</g>
		</g>
	</g>
	
		<line style="fill:none;stroke:#000000;stroke-width:0.7087;stroke-miterlimit:10;stroke-dasharray:8.5039,2.8346;" x1="140.7" y1="74" x2="140.7" y2="19.3"/>
	
		<line style="fill:none;stroke:#000000;stroke-width:0.7087;stroke-miterlimit:10;stroke-dasharray:8.5039,2.8346;" x1="373.3" y1="74" x2="373.3" y2="19.3"/>
	<g>
		<g>
			<line style="fill:none;stroke:#000000;stroke-width:0.7087;stroke-miterlimit:10;" x1="141.5" y1="46.6" x2="372.5" y2="46.6"/>
			<g>
				<polygon points="143.8,49.5 144.3,49 141.7,46.6 144.3,44.3 143.8,43.7 140.7,46.6 				"/>
			</g>
			<g>
				<polygon points="370.2,49.5 369.7,49 372.3,46.6 369.7,44.3 370.2,43.7 373.3,46.6 				"/>
			</g>
		</g>
	</g>
	<g>
		<g>
			<line style="fill:none;stroke:#000000;stroke-width:0.7087;stroke-miterlimit:10;" x1="409.4" y1="299.4" x2="454" y2="299.4"/>
			<g>
				<polygon points="411.8,302.3 412.3,301.8 409.7,299.4 412.3,297.1 411.8,296.5 408.7,299.4 				"/>
			</g>
			<g>
				<polygon points="451.6,302.3 451.2,301.8 453.7,299.4 451.2,297.1 451.6,296.5 454.8,299.4 				"/>
			</g>
		</g>
	</g>
	<g>
		
			<line style="fill:none;stroke:#000000;stroke-width:0.7087;stroke-miterlimit:10;stroke-dasharray:8.5039,2.8346;" x1="337.9" y1="273.1" x2="337.9" y2="325.7"/>
	</g>
	<g>
		<g>
			
				<line style="fill:none;stroke:#000000;stroke-width:0.7087;stroke-miterlimit:10;" x1="338.7" y1="299.4" x2="407.9" y2="299.4"/>
			<g>
				<polygon points="341,302.3 341.5,301.8 339,299.4 341.5,297.1 341,296.5 337.9,299.4 				"/>
			</g>
			<g>
				<polygon points="405.6,302.3 405.1,301.8 407.6,299.4 405.1,297.1 405.6,296.5 408.7,299.4 				"/>
			</g>
		</g>
	</g>
	<g>
		
			<line style="fill:none;stroke:#000000;stroke-width:0.7087;stroke-miterlimit:10;stroke-dasharray:8.5039,2.8346;" x1="614.5" y1="124.7" x2="614.5" y2="177.3"/>
	</g>
	<text transform="matrix(1 0 0 1 521.3953 146.7184)" style="font-family:'Times-Roman'; font-size:12px;">Gbw</text>
	<g>
		
			<line style="fill:none;stroke:#000000;stroke-width:0.7087;stroke-miterlimit:10;stroke-dasharray:8.5039,2.8346;" x1="454.8" y1="124.7" x2="454.8" y2="177.3"/>
	</g>
	<g>
		<g>
			
				<line style="fill:none;stroke:#000000;stroke-width:0.7087;stroke-miterlimit:10;" x1="455.5" y1="152.1" x2="613.7" y2="152.1"/>
			<g>
				<polygon points="457.9,155 458.4,154.5 455.8,152.1 458.4,149.7 457.9,149.2 454.8,152.1 				"/>
			</g>
			<g>
				<polygon points="611.3,155 610.9,154.5 613.4,152.1 610.9,149.7 611.3,149.2 614.5,152.1 				"/>
			</g>
		</g>
	</g>
	
		<line style="fill:none;stroke:#000000;stroke-width:0.7087;stroke-miterlimit:10;stroke-dasharray:8.5039,2.8346;" x1="70.8" y1="177.3" x2="15.7" y2="177.3"/>
	
		<line style="fill:none;stroke:#000000;stroke-width:0.7087;stroke-miterlimit:10;stroke-dasharray:8.5039,2.8346;" x1="70.8" y1="273.1" x2="17.1" y2="273.1"/>
	<g>
		<g>
			<line style="fill:none;stroke:#000000;stroke-width:0.7087;stroke-miterlimit:10;" x1="43.9" y1="178.1" x2="43.9" y2="272.4"/>
			<g>
				<polygon points="41,180.4 41.5,180.9 43.9,178.4 46.3,180.9 46.8,180.4 43.9,177.3 				"/>
			</g>
			<g>
				<polygon points="41,270 41.5,269.5 43.9,272.1 46.3,269.5 46.8,270 43.9,273.1 				"/>
			</g>
		</g>
	</g>
	<text transform="matrix(1 0 0 1 29.9385 229.9077)" style="font-family:'TimesNewRomanPSMT'; font-size:12px;">D</text>
	<g>
		<g>
			
				<line style="fill:none;stroke:#0068FF;stroke-width:1.4173;stroke-miterlimit:10;" x1="534.6" y1="223.2" x2="534.6" y2="321.3"/>
			<g>
				<polygon style="fill:#0068FF;" points="529.4,317.3 534.6,319.5 539.9,317.3 534.6,329.8 				"/>
			</g>
		</g>
	</g>
</g>
<line style="fill:none;stroke:#000000;stroke-width:0.7087;stroke-miterlimit:10;stroke-dasharray:8.5039,2.8346;" x1="857.4" y1="224.8" x2="61.1" y2="224.8"/>
<g>
	
		<pattern  id="SVGID_00000174591020436761615370000007327720929168788371_" xlink:href="#New_Pattern_Swatch_2" patternTransform="matrix(1 0 0 1 38.1209 19.4206)">
	</pattern>
	
		<rect x="17.1" y="406.3" style="fill:url(#SVGID_00000174591020436761615370000007327720929168788371_);stroke:#000000;stroke-width:1.4173;stroke-miterlimit:10;" width="25" height="25"/>
	<text transform="matrix(1 0 0 1 52.1909 423.701)" style="font-family:'TimesNewRomanPSMT'; font-size:14px;">Plumber Blocks</text>
</g>
<g>
	
		<pattern  id="SVGID_00000036241936209341884830000006335530958919131035_" xlink:href="#New_Pattern_Swatch_1" patternTransform="matrix(1 0 0 1 38.1209 13.396)">
	</pattern>
	
		<rect x="17.1" y="370.3" style="fill:url(#SVGID_00000036241936209341884830000006335530958919131035_);stroke:#000000;stroke-width:1.4173;stroke-miterlimit:10;" width="25" height="25"/>
	<text transform="matrix(1 0 0 1 52.1909 387.6763)" style="font-family:'TimesNewRomanPSMT'; font-size:14px;">Gearbox</text>
</g>
<g>
	<g>
		<polyline style="fill:none;stroke:#000000;stroke-miterlimit:10;" points="140.7,203 140.7,224.8 162.8,224.8 		"/>
		<g>
			<polygon points="140.7,195.9 136.6,205.8 140.7,203.5 144.8,205.8 			"/>
		</g>
		<g>
			<polygon points="169.8,224.8 159.9,228.9 162.2,224.8 159.9,220.8 			"/>
		</g>
	</g>
</g>
<g>
	<g>
		<polyline style="fill:none;stroke:#000000;stroke-miterlimit:10;" points="857.4,203 857.4,224.8 879.5,224.8 		"/>
		<g>
			<polygon points="857.4,195.9 853.3,205.8 857.4,203.5 861.5,205.8 			"/>
		</g>
		<g>
			<polygon points="886.5,224.8 876.6,228.9 878.9,224.8 876.6,220.8 			"/>
		</g>
	</g>
</g>
<text transform="matrix(1 0 0 1 147.5729 197.59)" style="font-family:'TimesNewRomanPS-ItalicMT'; font-size:14px;">y</text>
<text transform="matrix(1 0 0 1 164.9992 220.5532)" style="font-family:'TimesNewRomanPS-ItalicMT'; font-size:14px;">x</text>
<text transform="matrix(1 0 0 1 865.0074 196.8811)" style="font-family:'TimesNewRomanPS-ItalicMT'; font-size:14px;">y</text>
<text transform="matrix(1 0 0 1 882.4788 235.8358)" style="font-family:'TimesNewRomanPS-ItalicMT'; font-size:14px;">z</text>
</svg>
