<?xml version="1.0" encoding="utf-8"?>
<!-- Generator: Adobe Illustrator 26.5.0, SVG Export Plug-In . SVG Version: 6.00 Build 0)  -->
<svg version="1.1" id="LayeR_A" xmlns="http://www.w3.org/2000/svg" xmlns:xlink="http://www.w3.org/1999/xlink" x="0px" y="0px"
	 width="404.6px" height="460.5px" viewBox="0 0 404.6 460.5" style="enable-background:new 0 0 404.6 460.5;" xml:space="preserve"
	>
<g>
	<path style="fill:none;stroke:#000000;stroke-miterlimit:10;" d="M23.3,149.7v63.5c0,2.5,1,4.9,2.8,6.7l65.1,65
		c1.8,1.8,4.2,2.8,6.7,2.8h212.9c2.5,0,4.9-1,6.7-2.8l66.7-66.9c1.8-1.8,2.8-4.2,2.8-6.7v-61.6V88.1c0-2.5-1-4.9-2.8-6.7l-66.7-66.9
		c-1.8-1.8-4.2-2.8-6.7-2.8H97.8c-2.5,0-4.9,1-6.7,2.8L26,79.5c-1.8,1.8-2.8,4.2-2.8,6.7V149.7z"/>
	<line style="fill:none;stroke:#000000;stroke-miterlimit:10;" x1="23.3" y1="82.3" x2="23.3" y2="149.7"/>
	<ellipse style="fill:none;stroke:#000000;stroke-miterlimit:10;" cx="250.8" cy="149.7" rx="16.6" ry="16.6"/>
	<ellipse style="fill:none;stroke:#000000;stroke-miterlimit:10;" cx="129.9" cy="117.8" rx="13.5" ry="13.5"/>
	<path style="fill:none;stroke:#000000;stroke-miterlimit:10;" d="M64.8,414.5c0-28.5,0-59.8,0-63.5c0-7-1.6-10-3-11.8
		c-1.4-1.8-3.4-5.3-3.2-7.1c0.1-1.8,0-28.4,0-28.4h-5.2v-22.3H35.2v22.3h-5.2c0,0-0.1,26.6,0,28.4c0.1,1.8-1.8,5.3-3.2,7.1
		c-1.4,1.8-3,4.8-3,11.8c0,3.5,0,24,0,50.8C42,401.7,47.8,414.5,64.8,414.5z"/>
	<path style="fill:#FFFFFF;stroke:#000000;stroke-miterlimit:10;" d="M26.1,219.9v49.2c0,8.3,6.7,14.9,15,14.9h50.1L26.1,219.9z
		 M37.9,264.9c0-3.9,3.1-7,7-7c3.9,0,7,3.1,7,7c0,3.9-3.1,7-7,7C41,272,37.9,268.8,37.9,264.9z"/>
</g>
<g id="Coordinates">
	<g>
		
			<line style="fill:none;stroke:#000000;stroke-width:0.7087;stroke-miterlimit:10;stroke-dasharray:8.5039,2.8346;" x1="250.8" y1="149.7" x2="250.8" y2="340"/>
	</g>
	<g>
		<g>
			<polyline style="fill:none;stroke:#000000;stroke-miterlimit:10;" points="250.8,127.8 250.8,149.7 272.8,149.7 			"/>
			<g>
				<polygon points="250.8,120.7 246.7,130.7 250.8,128.3 254.8,130.7 				"/>
			</g>
			<g>
				<polygon points="279.9,149.7 269.9,153.7 272.3,149.7 269.9,145.6 				"/>
			</g>
		</g>
	</g>
	
		<line style="fill:none;stroke:#000000;stroke-width:0.7087;stroke-miterlimit:10;stroke-dasharray:8.5039,2.8346;" x1="380.4" y1="149.7" x2="17.8" y2="149.7"/>
	<text transform="matrix(1 0 0 1 256.5956 126.2088)" style="font-family:'TimesNewRomanPS-ItalicMT'; font-size:14px;">y</text>
	<text transform="matrix(1 0 0 1 275.5169 143.601)" style="font-family:'TimesNewRomanPS-ItalicMT'; font-size:14px;">z</text>
	<g>
		
			<line style="fill:none;stroke:#000000;stroke-width:0.7087;stroke-miterlimit:10;stroke-dasharray:8.5039,2.8346;" x1="250.8" y1="13.2" x2="250.8" y2="149.7"/>
	</g>
</g>
<g>
	
		<line style="fill:none;stroke:#000000;stroke-width:0.7087;stroke-miterlimit:10;stroke-dasharray:8.5039,2.8346;" x1="145.3" y1="149.7" x2="145.3" y2="295.9"/>
</g>
<g>
	<g>
		<line style="fill:none;stroke:#0068FF;stroke-width:1.4173;stroke-miterlimit:10;" x1="44.9" y1="264.9" x2="44.9" y2="428.1"/>
		<g>
			<polygon style="fill:#0068FF;" points="39.7,424.1 44.9,426.4 50.2,424.1 44.9,436.6 			"/>
		</g>
	</g>
</g>
<g>
	<g>
		<path style="fill:none;stroke:#0068FF;stroke-width:1.4173;stroke-miterlimit:10;" d="M226.3,136.8c-3.2,6.1-4.1,13.4-2.1,20.5
			c4.2,14.7,19.5,23.2,34.2,19c6.8-2,12.3-6.3,15.8-11.8"/>
		<g>
			<polygon style="fill:#0068FF;" points="219.9,137.2 225.4,138.4 228.5,143.2 231.3,130 			"/>
		</g>
	</g>
</g>
<g>
	<g>
		<line style="fill:none;stroke:#0068FF;stroke-width:1.4173;stroke-miterlimit:10;" x1="145.3" y1="149.7" x2="145.3" y2="197.5"/>
		<g>
			<circle style="fill:#0068FF;" cx="145.3" cy="149.7" r="2.7"/>
		</g>
		<g>
			<polygon style="fill:#0068FF;" points="140,193.5 145.3,195.7 150.5,193.5 145.3,205.9 			"/>
		</g>
	</g>
</g>
<text transform="matrix(1 0 0 1 149.4585 145.6868)" style="font-family:'TimesNewRomanPS-ItalicMT'; font-size:14px;">CoA</text>
<text transform="matrix(1 0 0 1 51.9301 441.629)" style="font-family:'TimesNewRomanPS-ItalicMT'; font-size:14px;">T</text>
<text transform="matrix(0.583 0 0 0.583 59.7162 446.2911)" style="font-family:'TimesNewRomanPS-ItalicMT'; font-size:14px;">1</text>
<text transform="matrix(1 0 0 1 157.9032 200.9821)" style="font-family:'TimesNewRomanPS-ItalicMT'; font-size:14px;">m</text>
<text transform="matrix(1 0 0 1 168.0137 205.6445)" style="font-family:'TimesNewRomanPS-ItalicMT'; font-size:8.162px;">w </text>
<text transform="matrix(1 0 0 1 175.4979 200.9821)" style="font-family:'TimesNewRomanPS-ItalicMT'; font-size:14px;">g</text>
<text transform="matrix(1 0 0 1 212.208 122.7751)" style="font-family:'TimesNewRomanPS-ItalicMT'; font-size:14px;">T</text>
<text transform="matrix(1 0 0 1 219.9941 127.4375)" style="font-family:'TimesNewRomanPS-ItalicMT'; font-size:8.162px;">q</text>
<text transform="matrix(1 0 0 1 146.0002 321.2448)" style="font-family:'Times-Roman'; font-size:12px;">Tad</text>
<text transform="matrix(1 0 0 1 188.712 275.4071)" style="font-family:'Times-Roman'; font-size:12px;">Gcd</text>
<g>
	<g>
		<line style="fill:none;stroke:#000000;stroke-width:0.7087;stroke-miterlimit:10;" x1="45.7" y1="324" x2="250" y2="324"/>
		<g>
			<polygon points="48.1,326.9 48.5,326.4 46,324 48.5,321.7 48.1,321.1 44.9,324 			"/>
		</g>
		<g>
			<polygon points="247.7,326.9 247.2,326.4 249.7,324 247.2,321.7 247.7,321.1 250.8,324 			"/>
		</g>
	</g>
</g>
<g>
	<g>
		<line style="fill:none;stroke:#000000;stroke-width:0.7087;stroke-miterlimit:10;" x1="146" y1="278.6" x2="250" y2="278.6"/>
		<g>
			<polygon points="148.4,281.5 148.9,281 146.3,278.6 148.9,276.2 148.4,275.7 145.3,278.6 			"/>
		</g>
		<g>
			<polygon points="247.7,281.5 247.2,281 249.7,278.6 247.2,276.2 247.7,275.7 250.8,278.6 			"/>
		</g>
	</g>
</g>
</svg>
