<?xml version="1.0" encoding="utf-8"?>
<!-- Generator: Adobe Illustrator 26.5.0, SVG Export Plug-In . SVG Version: 6.00 Build 0)  -->
<svg version="1.1" id="Layer_1" xmlns="http://www.w3.org/2000/svg" xmlns:xlink="http://www.w3.org/1999/xlink" x="0px" y="0px"
	 width="1099.8px" height="444.7px" viewBox="0 0 1099.8 444.7" style="enable-background:new 0 0 1099.8 444.7;"
	 xml:space="preserve">
<pattern  y="444.7" width="10" height="10" patternUnits="userSpaceOnUse" id="SVGID_0000010251780992897409002" viewBox="12.9 -22.9 10 10" style="overflow:visible;">
	<g>
		<rect x="12.9" y="-22.9" style="fill:none;" width="10" height="10"/>
		<g>
			<rect x="12.9" y="-22.9" style="fill:none;" width="10" height="10"/>
			<g>
				<g>
					<defs>
						<rect id="SVGID_1_" x="20.4" y="-35.4" width="15" height="15"/>
					</defs>
					<clipPath id="SVGID_00000054953702804005452560000005615536870530203059_">
						<use xlink:href="#SVGID_1_"  style="overflow:visible;"/>
					</clipPath>
					
						<line style="clip-path:url(#SVGID_00000054953702804005452560000005615536870530203059_);fill:none;stroke:#B7B7B7;stroke-miterlimit:10;" x1="20.4" y1="-35.4" x2="35.4" y2="-20.4"/>
				</g>
			</g>
			<g>
				<g>
					<defs>
						<rect id="SVGID_00000063621847521200561320000013326907812567312306_" x="10.4" y="-35.4" width="15" height="15"/>
					</defs>
					<clipPath id="SVGID_00000090280262758538525210000015963419951864818100_">
						<use xlink:href="#SVGID_00000063621847521200561320000013326907812567312306_"  style="overflow:visible;"/>
					</clipPath>
					
						<line style="clip-path:url(#SVGID_00000090280262758538525210000015963419951864818100_);fill:none;stroke:#B7B7B7;stroke-miterlimit:10;" x1="10.4" y1="-35.4" x2="25.4" y2="-20.4"/>
				</g>
			</g>
			<g>
				<g>
					<defs>
						<rect id="SVGID_00000011738079055486482980000004612827009490112907_" x="0.4" y="-35.4" width="15" height="15"/>
					</defs>
					<clipPath id="SVGID_00000138561041073673657240000010035018200739321527_">
						<use xlink:href="#SVGID_00000011738079055486482980000004612827009490112907_"  style="overflow:visible;"/>
					</clipPath>
					
						<line style="clip-path:url(#SVGID_00000138561041073673657240000010035018200739321527_);fill:none;stroke:#B7B7B7;stroke-miterlimit:10;" x1="0.4" y1="-35.4" x2="15.4" y2="-20.4"/>
				</g>
			</g>
			<g>
				<g>
					<defs>
						<rect id="SVGID_00000121269426666411891860000000648421522986891399_" x="20.4" y="-25.4" width="15" height="15"/>
					</defs>
					<clipPath id="SVGID_00000124852303385632490150000002170671723195740574_">
						<use xlink:href="#SVGID_00000121269426666411891860000000648421522986891399_"  style="overflow:visible;"/>
					</clipPath>
					
						<line style="clip-path:url(#SVGID_00000124852303385632490150000002170671723195740574_);fill:none;stroke:#B7B7B7;stroke-miterlimit:10;" x1="20.4" y1="-25.4" x2="35.4" y2="-10.4"/>
				</g>
			</g>
			<g>
				<g>
					<defs>
						<rect id="SVGID_00000180357670851071250100000015873866917384608921_" x="10.4" y="-25.4" width="15" height="15"/>
					</defs>
					<clipPath id="SVGID_00000060014736197281423320000017799562145806404522_">
						<use xlink:href="#SVGID_00000180357670851071250100000015873866917384608921_"  style="overflow:visible;"/>
					</clipPath>
					
						<line style="clip-path:url(#SVGID_00000060014736197281423320000017799562145806404522_);fill:none;stroke:#B7B7B7;stroke-miterlimit:10;" x1="10.4" y1="-25.4" x2="25.4" y2="-10.4"/>
				</g>
			</g>
			<g>
				<g>
					<defs>
						<rect id="SVGID_00000023255211439448047010000000331924139605274000_" x="0.4" y="-25.4" width="15" height="15"/>
					</defs>
					<clipPath id="SVGID_00000094583704973408522120000011795882626137223324_">
						<use xlink:href="#SVGID_00000023255211439448047010000000331924139605274000_"  style="overflow:visible;"/>
					</clipPath>
					
						<line style="clip-path:url(#SVGID_00000094583704973408522120000011795882626137223324_);fill:none;stroke:#B7B7B7;stroke-miterlimit:10;" x1="0.4" y1="-25.4" x2="15.4" y2="-10.4"/>
				</g>
			</g>
			<g>
				<g>
					<defs>
						<rect id="SVGID_00000098186686428645150320000004221307612909927592_" x="20.4" y="-15.4" width="15" height="15"/>
					</defs>
					<clipPath id="SVGID_00000129892856216890580670000013876010105444445593_">
						<use xlink:href="#SVGID_00000098186686428645150320000004221307612909927592_"  style="overflow:visible;"/>
					</clipPath>
					
						<line style="clip-path:url(#SVGID_00000129892856216890580670000013876010105444445593_);fill:none;stroke:#B7B7B7;stroke-miterlimit:10;" x1="20.4" y1="-15.4" x2="35.4" y2="-0.4"/>
				</g>
			</g>
			<g>
				<g>
					<defs>
						<rect id="SVGID_00000014628709501230395780000017524340204701619618_" x="10.4" y="-15.4" width="15" height="15"/>
					</defs>
					<clipPath id="SVGID_00000135653180287394921910000006138103753295489924_">
						<use xlink:href="#SVGID_00000014628709501230395780000017524340204701619618_"  style="overflow:visible;"/>
					</clipPath>
					
						<line style="clip-path:url(#SVGID_00000135653180287394921910000006138103753295489924_);fill:none;stroke:#B7B7B7;stroke-miterlimit:10;" x1="10.4" y1="-15.4" x2="25.4" y2="-0.4"/>
				</g>
			</g>
			<g>
				<g>
					<defs>
						<rect id="SVGID_00000163074649751951911250000011830468398584143290_" x="0.4" y="-15.4" width="15" height="15"/>
					</defs>
					<clipPath id="SVGID_00000127725075465602941440000007013840630212458174_">
						<use xlink:href="#SVGID_00000163074649751951911250000011830468398584143290_"  style="overflow:visible;"/>
					</clipPath>
					
						<line style="clip-path:url(#SVGID_00000127725075465602941440000007013840630212458174_);fill:none;stroke:#B7B7B7;stroke-miterlimit:10;" x1="0.4" y1="-15.4" x2="15.4" y2="-0.4"/>
				</g>
			</g>
		</g>
	</g>
</pattern>
<pattern  y="444.7" width="15" height="15" patternUnits="userSpaceOnUse" id="SVGID_0000013063331173998359345" viewBox="0.4 -15.4 15 15" style="overflow:visible;">
	<g>
		<rect x="0.4" y="-15.4" style="fill:none;" width="15" height="15"/>
		<g>
			<rect x="0.4" y="-15.4" style="fill:none;" width="15" height="15"/>
			<g>
				<g>
					<defs>
						<rect id="SVGID_00000065762120782523809230000017046009670541391535_" x="0.4" y="-15.4" width="15" height="15"/>
					</defs>
					<clipPath id="SVGID_00000096768234370119318960000000621002382459479196_">
						<use xlink:href="#SVGID_00000065762120782523809230000017046009670541391535_"  style="overflow:visible;"/>
					</clipPath>
					
						<line style="clip-path:url(#SVGID_00000096768234370119318960000000621002382459479196_);fill:none;stroke:#B7B7B7;stroke-miterlimit:10;" x1="0.4" y1="-15.4" x2="15.4" y2="-0.4"/>
				</g>
			</g>
			<g>
				<g>
					<defs>
						<rect id="SVGID_00000039134463353526069550000014557337901666416533_" x="0.4" y="-15.4" width="15" height="15"/>
					</defs>
					<clipPath id="SVGID_00000078764949086090488900000011191623635191909509_">
						<use xlink:href="#SVGID_00000039134463353526069550000014557337901666416533_"  style="overflow:visible;"/>
					</clipPath>
					
						<line style="clip-path:url(#SVGID_00000078764949086090488900000011191623635191909509_);fill:none;stroke:#B7B7B7;stroke-miterlimit:10;" x1="15.4" y1="-15.4" x2="0.4" y2="-0.4"/>
				</g>
			</g>
		</g>
	</g>
</pattern>
<pattern  y="444.7" width="15" height="15" patternUnits="userSpaceOnUse" id="SVGID_0000017459102043676161537" viewBox="0.4 -15.4 15 15" style="overflow:visible;">
	<g>
		<rect x="0.4" y="-15.4" style="fill:none;" width="15" height="15"/>
		<g>
			<rect x="0.4" y="-15.4" style="fill:none;" width="15" height="15"/>
			<g>
				<g>
					<defs>
						<rect id="SVGID_00000163795326663656560390000007598689045412150955_" x="0.4" y="-15.4" width="15" height="15"/>
					</defs>
					<clipPath id="SVGID_00000037691230335258747330000013089948815029202050_">
						<use xlink:href="#SVGID_00000163795326663656560390000007598689045412150955_"  style="overflow:visible;"/>
					</clipPath>
					
						<line style="clip-path:url(#SVGID_00000037691230335258747330000013089948815029202050_);fill:none;stroke:#B7B7B7;stroke-miterlimit:10;" x1="0.4" y1="-15.4" x2="15.4" y2="-0.4"/>
				</g>
			</g>
			<g>
				<g>
					<defs>
						<rect id="SVGID_00000060008504457305808550000014909170655529394337_" x="0.4" y="-15.4" width="15" height="15"/>
					</defs>
					<clipPath id="SVGID_00000079483986260003189680000013577209274599981721_">
						<use xlink:href="#SVGID_00000060008504457305808550000014909170655529394337_"  style="overflow:visible;"/>
					</clipPath>
					
						<line style="clip-path:url(#SVGID_00000079483986260003189680000013577209274599981721_);fill:none;stroke:#B7B7B7;stroke-miterlimit:10;" x1="15.4" y1="-15.4" x2="0.4" y2="-0.4"/>
				</g>
			</g>
		</g>
	</g>
</pattern>
<pattern  y="444.7" width="10" height="10" patternUnits="userSpaceOnUse" id="SVGID_0000018324415431447268673" viewBox="12.9 -22.9 10 10" style="overflow:visible;">
	<g>
		<rect x="12.9" y="-22.9" style="fill:none;" width="10" height="10"/>
		<g>
			<rect x="12.9" y="-22.9" style="fill:none;" width="10" height="10"/>
			<g>
				<g>
					<defs>
						<rect id="SVGID_00000166655303838244685940000012439732893893734581_" x="20.4" y="-35.4" width="15" height="15"/>
					</defs>
					<clipPath id="SVGID_00000144322831507945061100000000000900802851573144_">
						<use xlink:href="#SVGID_00000166655303838244685940000012439732893893734581_"  style="overflow:visible;"/>
					</clipPath>
					
						<line style="clip-path:url(#SVGID_00000144322831507945061100000000000900802851573144_);fill:none;stroke:#B7B7B7;stroke-miterlimit:10;" x1="20.4" y1="-35.4" x2="35.4" y2="-20.4"/>
				</g>
			</g>
			<g>
				<g>
					<defs>
						<rect id="SVGID_00000005972066339916104290000013219930508000674193_" x="10.4" y="-35.4" width="15" height="15"/>
					</defs>
					<clipPath id="SVGID_00000016067532761633503350000004228220030291775135_">
						<use xlink:href="#SVGID_00000005972066339916104290000013219930508000674193_"  style="overflow:visible;"/>
					</clipPath>
					
						<line style="clip-path:url(#SVGID_00000016067532761633503350000004228220030291775135_);fill:none;stroke:#B7B7B7;stroke-miterlimit:10;" x1="10.4" y1="-35.4" x2="25.4" y2="-20.4"/>
				</g>
			</g>
			<g>
				<g>
					<defs>
						<rect id="SVGID_00000091000186476226546310000002618691417904199863_" x="0.4" y="-35.4" width="15" height="15"/>
					</defs>
					<clipPath id="SVGID_00000117640272332735560010000006357299516925046951_">
						<use xlink:href="#SVGID_00000091000186476226546310000002618691417904199863_"  style="overflow:visible;"/>
					</clipPath>
					
						<line style="clip-path:url(#SVGID_00000117640272332735560010000006357299516925046951_);fill:none;stroke:#B7B7B7;stroke-miterlimit:10;" x1="0.4" y1="-35.4" x2="15.4" y2="-20.4"/>
				</g>
			</g>
			<g>
				<g>
					<defs>
						<rect id="SVGID_00000103953833617324518830000011032775262132452995_" x="20.4" y="-25.4" width="15" height="15"/>
					</defs>
					<clipPath id="SVGID_00000096020305725668117270000014774447075246807975_">
						<use xlink:href="#SVGID_00000103953833617324518830000011032775262132452995_"  style="overflow:visible;"/>
					</clipPath>
					
						<line style="clip-path:url(#SVGID_00000096020305725668117270000014774447075246807975_);fill:none;stroke:#B7B7B7;stroke-miterlimit:10;" x1="20.4" y1="-25.4" x2="35.4" y2="-10.4"/>
				</g>
			</g>
			<g>
				<g>
					<defs>
						<rect id="SVGID_00000077326142779129742230000007886131152450532007_" x="10.4" y="-25.4" width="15" height="15"/>
					</defs>
					<clipPath id="SVGID_00000017496676178851007790000013029964469148400821_">
						<use xlink:href="#SVGID_00000077326142779129742230000007886131152450532007_"  style="overflow:visible;"/>
					</clipPath>
					
						<line style="clip-path:url(#SVGID_00000017496676178851007790000013029964469148400821_);fill:none;stroke:#B7B7B7;stroke-miterlimit:10;" x1="10.4" y1="-25.4" x2="25.4" y2="-10.4"/>
				</g>
			</g>
			<g>
				<g>
					<defs>
						<rect id="SVGID_00000116212778261076265300000000882503369208445356_" x="0.4" y="-25.4" width="15" height="15"/>
					</defs>
					<clipPath id="SVGID_00000144317448294368931470000013796085214399854263_">
						<use xlink:href="#SVGID_00000116212778261076265300000000882503369208445356_"  style="overflow:visible;"/>
					</clipPath>
					
						<line style="clip-path:url(#SVGID_00000144317448294368931470000013796085214399854263_);fill:none;stroke:#B7B7B7;stroke-miterlimit:10;" x1="0.4" y1="-25.4" x2="15.4" y2="-10.4"/>
				</g>
			</g>
			<g>
				<g>
					<defs>
						<rect id="SVGID_00000144302377755505485400000011114300560197127608_" x="20.4" y="-15.4" width="15" height="15"/>
					</defs>
					<clipPath id="SVGID_00000107560769540609733530000010611027038860574116_">
						<use xlink:href="#SVGID_00000144302377755505485400000011114300560197127608_"  style="overflow:visible;"/>
					</clipPath>
					
						<line style="clip-path:url(#SVGID_00000107560769540609733530000010611027038860574116_);fill:none;stroke:#B7B7B7;stroke-miterlimit:10;" x1="20.4" y1="-15.4" x2="35.4" y2="-0.4"/>
				</g>
			</g>
			<g>
				<g>
					<defs>
						<rect id="SVGID_00000050624041465531055870000009598945867191848636_" x="10.4" y="-15.4" width="15" height="15"/>
					</defs>
					<clipPath id="SVGID_00000009587020943634369510000010319601014144246941_">
						<use xlink:href="#SVGID_00000050624041465531055870000009598945867191848636_"  style="overflow:visible;"/>
					</clipPath>
					
						<line style="clip-path:url(#SVGID_00000009587020943634369510000010319601014144246941_);fill:none;stroke:#B7B7B7;stroke-miterlimit:10;" x1="10.4" y1="-15.4" x2="25.4" y2="-0.4"/>
				</g>
			</g>
			<g>
				<g>
					<defs>
						<rect id="SVGID_00000146484796460380011880000007800634282267965340_" x="0.4" y="-15.4" width="15" height="15"/>
					</defs>
					<clipPath id="SVGID_00000153685532781858811740000008032589738978551948_">
						<use xlink:href="#SVGID_00000146484796460380011880000007800634282267965340_"  style="overflow:visible;"/>
					</clipPath>
					
						<line style="clip-path:url(#SVGID_00000153685532781858811740000008032589738978551948_);fill:none;stroke:#B7B7B7;stroke-miterlimit:10;" x1="0.4" y1="-15.4" x2="15.4" y2="-0.4"/>
				</g>
			</g>
		</g>
	</g>
</pattern>
<g>
	<g>
		<path style="fill:#FFFFFF;" d="M857.4,272c-26,0-47.2-21.2-47.2-47.2s21.2-47.2,47.2-47.2s47.2,21.2,47.2,47.2
			S883.4,272,857.4,272z"/>
		<path d="M857.4,178.3c25.6,0,46.5,20.9,46.5,46.5s-20.9,46.5-46.5,46.5s-46.5-20.9-46.5-46.5S831.8,178.3,857.4,178.3
			 M857.4,176.9c-26.5,0-47.9,21.5-47.9,47.9c0,26.5,21.5,47.9,47.9,47.9c26.5,0,47.9-21.5,47.9-47.9
			C905.3,198.4,883.9,176.9,857.4,176.9L857.4,176.9z"/>
	</g>
	<circle style="fill:none;stroke:#000000;stroke-width:1.4173;stroke-miterlimit:10;" cx="857.4" cy="224.8" r="165"/>
	<g>
		<g>
			<line style="fill:none;stroke:#000000;stroke-width:0.7087;stroke-miterlimit:10;" x1="857.4" y1="60.6" x2="857.4" y2="224.8"/>
			<g>
				<polygon points="854.5,62.9 855,63.4 857.4,60.9 859.8,63.4 860.3,62.9 857.4,59.8 				"/>
			</g>
		</g>
	</g>
	<text transform="matrix(1 0 0 1 869.5596 44.2654)" style="font-family:'TimesNewRomanPSMT'; font-size:12px;">r</text>
	<text transform="matrix(1 0 0 1 873.5557 48.2617)" style="font-family:'TimesNewRomanPSMT'; font-size:6.996px;">p</text>
	<text transform="matrix(1 0 0 1 877.0537 44.2654)" style="font-family:'TimesNewRomanPSMT'; font-size:12px;"> =165mm</text>
	<g>
		<g>
			
				<line style="fill:none;stroke:#0068FF;stroke-width:1.4173;stroke-miterlimit:10;" x1="1016.8" y1="182.1" x2="1078.4" y2="412.2"/>
			<g>
				<polygon style="fill:#0068FF;" points="1072.3,409.7 1078,410.5 1082.5,407 1080.6,420.4 				"/>
			</g>
		</g>
	</g>
	
		<line style="fill:none;stroke:#000000;stroke-width:0.7087;stroke-miterlimit:10;stroke-dasharray:8.5039,2.8346;" x1="1016.8" y1="182.1" x2="857.4" y2="224.8"/>
	
		<rect x="1008.2" y="183.2" transform="matrix(0.9659 -0.2588 0.2588 0.9659 -14.1954 268.627)" style="fill:none;stroke:#000000;stroke-width:0.7087;stroke-miterlimit:9.9997;" width="10" height="10"/>
	
		<line style="fill:none;stroke:#000000;stroke-width:0.7087;stroke-miterlimit:10;stroke-dasharray:8.5039,2.8346;" x1="857.4" y1="224.8" x2="979.4" y2="224.8"/>
	<g>
		<g>
			<path style="fill:none;stroke:#000000;stroke-width:0.7087;stroke-miterlimit:10;" d="M951.6,224.8c0-8.1-1-16-3-23.6"/>
			<g>
				<path d="M953.1,205.2c-0.1,0.1-0.4,0.1-0.5,0l-3.9-3.8l-1.8,5.1c-0.1,0.2-0.3,0.3-0.5,0.2s-0.3-0.3-0.2-0.5l2-5.6
					c0-0.1,0.1-0.2,0.3-0.2c0.1,0,0.2,0,0.3,0.1l4.3,4.2c0,0,0.1,0.1,0.1,0.2C953.2,205,953.1,205.1,953.1,205.2z"/>
			</g>
		</g>
	</g>
	<text transform="matrix(1 0 0 1 956.428 215.8689)" style="font-family:'Times-Italic'; font-size:12px;">15˚</text>
	<text transform="matrix(1 0 0 1 1013.2486 418.8485)" style="font-family:'Times-Roman'; font-size:12px;">F</text>
	<text transform="matrix(1 0 0 1 1019.9219 422.8447)" style="font-family:'Times-Roman'; font-size:6.996px;">L</text>
	<text transform="matrix(1 0 0 1 1024.1958 418.8485)" style="font-family:'Times-Roman'; font-size:12px;"> = 15kN</text>
	<g>
		<g>
			<line style="fill:none;stroke:#000000;stroke-width:0.7087;stroke-miterlimit:10;" x1="857.4" y1="59.1" x2="857.4" y2="39.2"/>
			<g>
				<polygon points="860.3,56.7 859.8,56.2 857.4,58.8 855,56.2 854.5,56.7 857.4,59.8 				"/>
			</g>
		</g>
	</g>
</g>
<g>
	
		<rect x="70.8" y="177.3" style="fill:#FFFFFF;stroke:#000000;stroke-width:1.4173;stroke-miterlimit:10;" width="569.7" height="95.8"/>
	<g>
		
			<pattern  id="SVGID_00000085936539626769773890000014293365526655338374_" xlink:href="#SVGID_0000018324415431447268673" patternTransform="matrix(1 0 0 -1 22.9189 -15304.9258)">
		</pattern>
		
			<rect x="105.3" y="177.3" style="fill:url(#SVGID_00000085936539626769773890000014293365526655338374_);stroke:#000000;stroke-width:1.4173;stroke-miterlimit:10;" width="70.7" height="95.8"/>
		
			<pattern  id="SVGID_00000067925537533499138760000016587474136256915640_" xlink:href="#SVGID_0000010251780992897409002" patternTransform="matrix(1 0 0 -1 22.9189 -15304.9258)">
		</pattern>
		
			<rect x="337.9" y="177.3" style="fill:url(#SVGID_00000067925537533499138760000016587474136256915640_);stroke:#000000;stroke-width:1.4173;stroke-miterlimit:10;" width="70.7" height="95.8"/>
	</g>
	
		<rect x="248.4" y="88" style="fill:#FFFFFF;stroke:#000000;stroke-width:1.4173;stroke-miterlimit:10;" width="17.2" height="274.4"/>
	<g>
		<g>
			<line style="fill:none;stroke:#0068FF;stroke-width:1.4173;stroke-miterlimit:10;" x1="257" y1="184.2" x2="257" y2="419.9"/>
			<g>
				<polygon style="fill:#0068FF;" points="251.8,415.9 257,418.1 262.2,415.9 257,428.3 				"/>
			</g>
		</g>
	</g>
	<g>
		<g>
			<line style="fill:none;stroke:#0068FF;stroke-width:1.4173;stroke-miterlimit:10;" x1="140.7" y1="225.2" x2="140.7" y2="82.4"/>
			<g>
				<polygon style="fill:#0068FF;" points="145.9,86.4 140.7,84.2 135.5,86.4 140.7,74 				"/>
			</g>
		</g>
	</g>
	<g>
		<g>
			<line style="fill:none;stroke:#0068FF;stroke-width:1.4173;stroke-miterlimit:10;" x1="373.3" y1="225.2" x2="373.3" y2="82.4"/>
			<g>
				<polygon style="fill:#0068FF;" points="378.5,86.4 373.3,84.2 368,86.4 373.3,74 				"/>
			</g>
		</g>
	</g>
	
		<pattern  id="SVGID_00000014608111412381937450000017178641840002298250_" xlink:href="#SVGID_0000013063331173998359345" patternTransform="matrix(1 0 0 -1 30.4189 -15277.4258)">
	</pattern>
	
		<rect x="454.8" y="177.3" style="fill:url(#SVGID_00000014608111412381937450000017178641840002298250_);stroke:#000000;stroke-width:1.4173;stroke-miterlimit:10;" width="159.7" height="95.8"/>
	<g>
		
			<line style="fill:none;stroke:#000000;stroke-width:0.7087;stroke-miterlimit:10;stroke-dasharray:8.5039,2.8346;" x1="408.7" y1="273.1" x2="408.7" y2="325.7"/>
	</g>
	
		<line style="fill:none;stroke:#000000;stroke-width:0.7087;stroke-miterlimit:10;stroke-dasharray:8.5039,2.8346;" x1="454.8" y1="273.1" x2="454.8" y2="325.7"/>
	<text transform="matrix(1 0 0 1 423.1098 314.166)" style="font-family:'Times-Roman'; font-size:12px;">Clr</text>
	<text transform="matrix(1 0 0 1 365.3364 314.3704)" style="font-family:'Times-Roman'; font-size:12px;">Pbw</text>
	<text transform="matrix(1 0 0 1 248.403 36.4116)" style="font-family:'Times-Roman'; font-size:12px;">Pbs</text>
	<text transform="matrix(1 0 0 1 151.4977 73.9644)" style="font-family:'Times-Roman'; font-size:12px;">R</text>
	<text transform="matrix(1 0 0 1 159.502 77.9604)" style="font-family:'Times-Roman'; font-size:6.996px;">1</text>
	<text transform="matrix(1 0 0 1 386.3485 76.7465)" style="font-family:'Times-Roman'; font-size:12px;">R</text>
	<text transform="matrix(1 0 0 1 394.3525 80.7427)" style="font-family:'Times-Roman'; font-size:6.996px;">2</text>
	<text transform="matrix(1 0 0 1 270.9766 428.3274)" style="font-family:'Times-Roman'; font-size:12px;">F</text>
	<text transform="matrix(1 0 0 1 277.6504 432.3232)" style="font-family:'Times-Roman'; font-size:6.996px;">L</text>
	<text transform="matrix(1 0 0 1 544.4012 339.0484)" style="font-family:'Times-Roman'; font-size:12px;">F</text>
	<text transform="matrix(1 0 0 1 551.0752 343.0444)" style="font-family:'Times-Roman'; font-size:6.996px;">W </text>
	<text transform="matrix(1 0 0 1 559.4271 339.0484)" style="font-family:'Times-Roman'; font-size:12px;">= T</text>
	<text transform="matrix(1 0 0 1 576.5244 343.0444)" style="font-family:'Times-Roman'; font-size:6.996px;">1</text>
	<text transform="matrix(1 0 0 1 580.0228 339.0484)" style="font-family:'Times-Roman'; font-size:12px;"> + </text>
	<text transform="matrix(1 0 0 1 592.7903 339.0484)" style="font-family:'TimesNewRomanPS-ItalicMT'; font-size:14px;">m</text>
	<text transform="matrix(1 0 0 1 602.9004 343.7104)" style="font-family:'TimesNewRomanPS-ItalicMT'; font-size:8.162px;">w </text>
	<text transform="matrix(1 0 0 1 610.3851 339.0484)" style="font-family:'TimesNewRomanPS-ItalicMT'; font-size:14px;">g</text>
	
		<line style="fill:none;stroke:#000000;stroke-width:0.7087;stroke-miterlimit:10;stroke-dasharray:8.5039,2.8346;" x1="140.7" y1="74" x2="140.7" y2="19.3"/>
	
		<line style="fill:none;stroke:#000000;stroke-width:0.7087;stroke-miterlimit:10;stroke-dasharray:8.5039,2.8346;" x1="373.3" y1="74" x2="373.3" y2="19.3"/>
	<g>
		<g>
			<line style="fill:none;stroke:#000000;stroke-width:0.7087;stroke-miterlimit:10;" x1="141.5" y1="46.6" x2="372.5" y2="46.6"/>
			<g>
				<polygon points="143.8,49.5 144.3,49 141.7,46.6 144.3,44.3 143.8,43.7 140.7,46.6 				"/>
			</g>
			<g>
				<polygon points="370.2,49.5 369.7,49 372.3,46.6 369.7,44.3 370.2,43.7 373.3,46.6 				"/>
			</g>
		</g>
	</g>
	<g>
		<g>
			<line style="fill:none;stroke:#000000;stroke-width:0.7087;stroke-miterlimit:10;" x1="409.4" y1="299.4" x2="454" y2="299.4"/>
			<g>
				<polygon points="411.8,302.3 412.3,301.8 409.7,299.4 412.3,297.1 411.8,296.5 408.7,299.4 				"/>
			</g>
			<g>
				<polygon points="451.6,302.3 451.2,301.8 453.7,299.4 451.2,297.1 451.6,296.5 454.8,299.4 				"/>
			</g>
		</g>
	</g>
	<g>
		
			<line style="fill:none;stroke:#000000;stroke-width:0.7087;stroke-miterlimit:10;stroke-dasharray:8.5039,2.8346;" x1="337.9" y1="273.1" x2="337.9" y2="325.7"/>
	</g>
	<g>
		<g>
			
				<line style="fill:none;stroke:#000000;stroke-width:0.7087;stroke-miterlimit:10;" x1="338.7" y1="299.4" x2="407.9" y2="299.4"/>
			<g>
				<polygon points="341,302.3 341.5,301.8 339,299.4 341.5,297.1 341,296.5 337.9,299.4 				"/>
			</g>
			<g>
				<polygon points="405.6,302.3 405.1,301.8 407.6,299.4 405.1,297.1 405.6,296.5 408.7,299.4 				"/>
			</g>
		</g>
	</g>
	<g>
		
			<line style="fill:none;stroke:#000000;stroke-width:0.7087;stroke-miterlimit:10;stroke-dasharray:8.5039,2.8346;" x1="614.5" y1="124.7" x2="614.5" y2="177.3"/>
	</g>
	<text transform="matrix(1 0 0 1 521.3953 146.7184)" style="font-family:'Times-Roman'; font-size:12px;">Gbw</text>
	<g>
		
			<line style="fill:none;stroke:#000000;stroke-width:0.7087;stroke-miterlimit:10;stroke-dasharray:8.5039,2.8346;" x1="454.8" y1="124.7" x2="454.8" y2="177.3"/>
	</g>
	<g>
		<g>
			
				<line style="fill:none;stroke:#000000;stroke-width:0.7087;stroke-miterlimit:10;" x1="455.5" y1="152.1" x2="613.7" y2="152.1"/>
			<g>
				<polygon points="457.9,155 458.4,154.5 455.8,152.1 458.4,149.7 457.9,149.2 454.8,152.1 				"/>
			</g>
			<g>
				<polygon points="611.3,155 610.9,154.5 613.4,152.1 610.9,149.7 611.3,149.2 614.5,152.1 				"/>
			</g>
		</g>
	</g>
	
		<line style="fill:none;stroke:#000000;stroke-width:0.7087;stroke-miterlimit:10;stroke-dasharray:8.5039,2.8346;" x1="70.8" y1="177.3" x2="15.7" y2="177.3"/>
	
		<line style="fill:none;stroke:#000000;stroke-width:0.7087;stroke-miterlimit:10;stroke-dasharray:8.5039,2.8346;" x1="70.8" y1="273.1" x2="17.1" y2="273.1"/>
	<g>
		<g>
			<line style="fill:none;stroke:#000000;stroke-width:0.7087;stroke-miterlimit:10;" x1="43.9" y1="178.1" x2="43.9" y2="272.4"/>
			<g>
				<polygon points="41,180.4 41.5,180.9 43.9,178.4 46.3,180.9 46.8,180.4 43.9,177.3 				"/>
			</g>
			<g>
				<polygon points="41,270 41.5,269.5 43.9,272.1 46.3,269.5 46.8,270 43.9,273.1 				"/>
			</g>
		</g>
	</g>
	<text transform="matrix(1 0 0 1 29.9385 229.9077)" style="font-family:'TimesNewRomanPSMT'; font-size:12px;">D</text>
	<g>
		<g>
			
				<line style="fill:none;stroke:#0068FF;stroke-width:1.4173;stroke-miterlimit:10;" x1="534.6" y1="223.2" x2="534.6" y2="321.3"/>
			<g>
				<polygon style="fill:#0068FF;" points="529.4,317.3 534.6,319.5 539.9,317.3 534.6,329.8 				"/>
			</g>
		</g>
	</g>
</g>
<line style="fill:none;stroke:#000000;stroke-width:0.7087;stroke-miterlimit:10;stroke-dasharray:8.5039,2.8346;" x1="857.4" y1="224.8" x2="61.1" y2="224.8"/>
<g>
	
		<pattern  id="SVGID_00000130619364888345366460000018414696489164332697_" xlink:href="#SVGID_0000018324415431447268673" patternTransform="matrix(1 0 0 -1 22.9189 -15304.9258)">
	</pattern>
	
		<rect x="17.1" y="406.3" style="fill:url(#SVGID_00000130619364888345366460000018414696489164332697_);stroke:#000000;stroke-width:1.4173;stroke-miterlimit:10;" width="25" height="25"/>
	<text transform="matrix(1 0 0 1 52.1909 423.701)" style="font-family:'TimesNewRomanPSMT'; font-size:14px;">Plumber Blocks</text>
</g>
<g>
	
		<pattern  id="SVGID_00000095319311804320119440000010021286536791634859_" xlink:href="#SVGID_0000017459102043676161537" patternTransform="matrix(1 0 0 -1 32.7209 -15294.5273)">
	</pattern>
	
		<rect x="17.1" y="370.3" style="fill:url(#SVGID_00000095319311804320119440000010021286536791634859_);stroke:#000000;stroke-width:1.4173;stroke-miterlimit:10;" width="25" height="25"/>
	<text transform="matrix(1 0 0 1 52.1909 387.6763)" style="font-family:'TimesNewRomanPSMT'; font-size:14px;">Gearbox</text>
</g>
<g>
	<g>
		<polyline style="fill:none;stroke:#000000;stroke-miterlimit:10;" points="140.7,203 140.7,224.8 162.8,224.8 		"/>
		<g>
			<polygon points="140.7,195.9 136.6,205.8 140.7,203.5 144.8,205.8 			"/>
		</g>
		<g>
			<polygon points="169.8,224.8 159.9,228.9 162.2,224.8 159.9,220.8 			"/>
		</g>
	</g>
</g>
<g>
	<g>
		<polyline style="fill:none;stroke:#000000;stroke-miterlimit:10;" points="857.4,203 857.4,224.8 879.5,224.8 		"/>
		<g>
			<polygon points="857.4,195.9 853.3,205.8 857.4,203.5 861.5,205.8 			"/>
		</g>
		<g>
			<polygon points="886.5,224.8 876.6,228.9 878.9,224.8 876.6,220.8 			"/>
		</g>
	</g>
</g>
<text transform="matrix(1 0 0 1 147.5729 197.59)" style="font-family:'TimesNewRomanPS-ItalicMT'; font-size:14px;">y</text>
<text transform="matrix(1 0 0 1 164.9992 220.5532)" style="font-family:'TimesNewRomanPS-ItalicMT'; font-size:14px;">x</text>
<text transform="matrix(1 0 0 1 865.0074 196.8811)" style="font-family:'TimesNewRomanPS-ItalicMT'; font-size:14px;">y</text>
<text transform="matrix(1 0 0 1 882.4788 235.8358)" style="font-family:'TimesNewRomanPS-ItalicMT'; font-size:14px;">z</text>
<g>
	<g>
		<path style="fill:none;stroke:#0068FF;stroke-width:1.4173;stroke-miterlimit:10;" d="M833.5,168.3c-22,9.3-37.5,31.1-37.5,56.5
			c0,33.9,27.5,61.3,61.3,61.3c18.8,0,35.6-8.4,46.8-21.7"/>
		<g>
			<polygon style="fill:#0068FF;" points="905.9,270.7 903.1,265.8 897.5,264.4 909.2,257.6 			"/>
		</g>
	</g>
</g>
<text transform="matrix(1 0 0 1 914.7488 268.4508)" style="font-family:'Times-Roman'; font-size:12px;">T</text>
<text transform="matrix(0.583 0 0 0.583 922.0789 272.4469)" style="font-family:'Times-Roman'; font-size:12px;">q</text>
</svg>
