<?xml version="1.0" encoding="utf-8"?>
<!-- Generator: Adobe Illustrator 26.5.0, SVG Export Plug-In . SVG Version: 6.00 Build 0)  -->
<svg version="1.1" id="Layer_1" xmlns="http://www.w3.org/2000/svg" xmlns:xlink="http://www.w3.org/1999/xlink" x="0px" y="0px"
	 width="404.6px" height="315.1px" viewBox="0 0 404.6 315.1" style="enable-background:new 0 0 404.6 315.1;" xml:space="preserve"
	>
<g>
	
		<line style="fill:none;stroke:#000000;stroke-width:0.7087;stroke-miterlimit:10;stroke-dasharray:8.5039,2.8346;" x1="145.3" y1="149.7" x2="145.3" y2="295.9"/>
</g>
<g>
	
		<line style="fill:none;stroke:#000000;stroke-width:0.7087;stroke-miterlimit:10;stroke-dasharray:8.5039,2.8346;" x1="250.8" y1="149.7" x2="250.8" y2="295.9"/>
</g>
<g>
	<g>
		<polyline style="fill:none;stroke:#000000;stroke-miterlimit:10;" points="250.8,127.8 250.8,149.7 272.8,149.7 		"/>
		<g>
			<polygon points="250.8,120.7 246.7,130.7 250.8,128.3 254.8,130.7 			"/>
		</g>
		<g>
			<polygon points="279.9,149.7 269.9,153.7 272.3,149.7 269.9,145.6 			"/>
		</g>
	</g>
</g>
<circle style="fill:none;stroke:#000000;stroke-miterlimit:10;" cx="250.8" cy="149.7" r="16.6"/>
<circle style="fill:none;stroke:#000000;stroke-miterlimit:10;" cx="69.1" cy="149.7" r="16.6"/>
<path style="fill:none;stroke:#000000;stroke-miterlimit:10;" d="M250.8,43.4c-16.1,0-31.3,3.6-44.9,9.9L57,122.7
	c-11.4,5.3-17.2,16.1-17.2,27V262c7.4,0.5,3.2,5.9,10.6,5.9v-95.3c1.9,1.6,4.1,3,6.5,4.1c0,0,148.8,69.4,148.8,69.4
	c13.6,6.4,28.9,9.9,44.9,9.9c58.7,0,106.3-47.6,106.3-106.3S309.5,43.4,250.8,43.4z"/>
<g>
	<g>
		<line style="fill:none;stroke:#0068FF;stroke-width:1.4173;stroke-miterlimit:10;" x1="44.9" y1="149.7" x2="44.9" y2="285.9"/>
		<g>
			<polygon style="fill:#0068FF;" points="39.7,281.9 44.9,284.2 50.2,281.9 44.9,294.4 			"/>
		</g>
	</g>
</g>
<g>
	<g>
		<path style="fill:none;stroke:#0068FF;stroke-width:1.4173;stroke-miterlimit:10;" d="M226.3,136.8c-3.2,6.1-4.1,13.4-2.1,20.5
			c4.2,14.7,19.5,23.2,34.2,19c6.8-2,12.3-6.3,15.8-11.8"/>
		<g>
			<polygon style="fill:#0068FF;" points="219.9,137.2 225.4,138.4 228.5,143.2 231.3,130 			"/>
		</g>
	</g>
</g>
<line style="fill:none;stroke:#000000;stroke-width:0.7087;stroke-miterlimit:10;stroke-dasharray:8.5039,2.8346;" x1="380.4" y1="149.7" x2="17.8" y2="149.7"/>
<g>
	<g>
		<line style="fill:none;stroke:#0068FF;stroke-width:1.4173;stroke-miterlimit:10;" x1="145.3" y1="149.7" x2="145.3" y2="197.5"/>
		<g>
			<circle style="fill:#0068FF;" cx="145.3" cy="149.7" r="2.7"/>
		</g>
		<g>
			<polygon style="fill:#0068FF;" points="140,193.5 145.3,195.7 150.5,193.5 145.3,205.9 			"/>
		</g>
	</g>
</g>
<text transform="matrix(1 0 0 1 149.4585 145.6868)" style="font-family:'TimesNewRomanPS-ItalicMT'; font-size:14px;">CoA</text>
<text transform="matrix(1 0 0 1 56.8502 292.8596)" style="font-family:'TimesNewRomanPS-ItalicMT'; font-size:14px;">T</text>
<text transform="matrix(0.583 0 0 0.583 64.6364 297.5217)" style="font-family:'TimesNewRomanPS-ItalicMT'; font-size:14px;">1</text>
<text transform="matrix(1 0 0 1 157.9032 200.9821)" style="font-family:'TimesNewRomanPS-ItalicMT'; font-size:14px;">m</text>
<text transform="matrix(0.583 0 0 0.583 168.0136 205.6442)" style="font-family:'TimesNewRomanPS-ItalicMT'; font-size:14px;">w </text>
<text transform="matrix(1 0 0 1 175.4979 200.9821)" style="font-family:'TimesNewRomanPS-ItalicMT'; font-size:14px;">g</text>
<text transform="matrix(1 0 0 1 212.208 122.7751)" style="font-family:'TimesNewRomanPS-ItalicMT'; font-size:14px;">T</text>
<text transform="matrix(0.583 0 0 0.583 219.9941 127.4373)" style="font-family:'TimesNewRomanPS-ItalicMT'; font-size:14px;">q</text>
<text transform="matrix(1 0 0 1 256.5956 126.2088)" style="font-family:'TimesNewRomanPS-ItalicMT'; font-size:14px;">y</text>
<text transform="matrix(1 0 0 1 275.5169 143.601)" style="font-family:'TimesNewRomanPS-ItalicMT'; font-size:14px;">z</text>
<g>
	
		<line style="fill:none;stroke:#000000;stroke-width:0.7087;stroke-miterlimit:10;stroke-dasharray:8.5039,2.8346;" x1="250.8" y1="13.2" x2="250.8" y2="149.7"/>
</g>
<text transform="matrix(1 0 0 1 150.3967 25.9908)" style="font-family:'Times-Roman'; font-size:12px;">Tad</text>
<text transform="matrix(1 0 0 1 188.712 275.4071)" style="font-family:'Times-Roman'; font-size:12px;">Gcd</text>
<g>
	
		<line style="fill:none;stroke:#000000;stroke-width:0.7087;stroke-miterlimit:10;stroke-dasharray:8.5039,2.8346;" x1="69.1" y1="13.2" x2="69.1" y2="149.7"/>
</g>
<g>
	<g>
		<line style="fill:none;stroke:#000000;stroke-width:0.7087;stroke-miterlimit:10;" x1="69.9" y1="28.7" x2="250" y2="28.7"/>
		<g>
			<polygon points="72.3,31.6 72.7,31.1 70.2,28.7 72.7,26.4 72.3,25.8 69.1,28.7 			"/>
		</g>
		<g>
			<polygon points="247.7,31.6 247.2,31.1 249.7,28.7 247.2,26.4 247.7,25.8 250.8,28.7 			"/>
		</g>
	</g>
</g>
<g>
	<g>
		<line style="fill:none;stroke:#000000;stroke-width:0.7087;stroke-miterlimit:10;" x1="146" y1="278.6" x2="250" y2="278.6"/>
		<g>
			<polygon points="148.4,281.5 148.9,281 146.3,278.6 148.9,276.2 148.4,275.7 145.3,278.6 			"/>
		</g>
		<g>
			<polygon points="247.7,281.5 247.2,281 249.7,278.6 247.2,276.2 247.7,275.7 250.8,278.6 			"/>
		</g>
	</g>
</g>
</svg>
