<?xml version="1.0" encoding="utf-8"?>
<!-- Generator: Adobe Illustrator 26.5.0, SVG Export Plug-In . SVG Version: 6.00 Build 0)  -->
<svg version="1.1" id="Layer_1" xmlns="http://www.w3.org/2000/svg" xmlns:xlink="http://www.w3.org/1999/xlink" x="0px" y="0px"
	 width="1099.8px" height="444.7px" viewBox="0 0 1099.8 444.7" style="enable-background:new 0 0 1099.8 444.7;"
	 xml:space="preserve">
<pattern  y="444.7" width="10" height="10" patternUnits="userSpaceOnUse" id="SVGID_0000003621953323978893732" viewBox="12.9 -22.9 10 10" style="overflow:visible;">
	<g>
		<rect x="12.9" y="-22.9" style="fill:none;" width="10" height="10"/>
		<g>
			<rect x="12.9" y="-22.9" style="fill:none;" width="10" height="10"/>
			<g>
				<rect x="12.9" y="-22.9" style="fill:none;" width="10" height="10"/>
				<g>
					<g>
						<g>
							<defs>
								<rect id="SVGID_1_" x="20.4" y="-15.4" width="15" height="15"/>
							</defs>
							<clipPath id="SVGID_00000158749467930789637890000004246046404381026191_">
								<use xlink:href="#SVGID_1_"  style="overflow:visible;"/>
							</clipPath>
							
								<line style="clip-path:url(#SVGID_00000158749467930789637890000004246046404381026191_);fill:none;stroke:#B7B7B7;stroke-miterlimit:10;" x1="20.4" y1="-0.4" x2="35.4" y2="-15.4"/>
						</g>
					</g>
				</g>
				<g>
					<g>
						<g>
							<defs>
								<rect id="SVGID_00000101803439573475515620000000852545975579763368_" x="10.4" y="-15.4" width="15" height="15"/>
							</defs>
							<clipPath id="SVGID_00000027563221942435755300000018335933412206142900_">
								<use xlink:href="#SVGID_00000101803439573475515620000000852545975579763368_"  style="overflow:visible;"/>
							</clipPath>
							
								<line style="clip-path:url(#SVGID_00000027563221942435755300000018335933412206142900_);fill:none;stroke:#B7B7B7;stroke-miterlimit:10;" x1="10.4" y1="-0.4" x2="25.4" y2="-15.4"/>
						</g>
					</g>
				</g>
				<g>
					<g>
						<g>
							<defs>
								<rect id="SVGID_00000130623740019234157820000005221161423500236689_" x="0.4" y="-15.4" width="15" height="15"/>
							</defs>
							<clipPath id="SVGID_00000183236296563750887250000001983834159132914603_">
								<use xlink:href="#SVGID_00000130623740019234157820000005221161423500236689_"  style="overflow:visible;"/>
							</clipPath>
							
								<line style="clip-path:url(#SVGID_00000183236296563750887250000001983834159132914603_);fill:none;stroke:#B7B7B7;stroke-miterlimit:10;" x1="0.4" y1="-0.4" x2="15.4" y2="-15.4"/>
						</g>
					</g>
				</g>
				<g>
					<g>
						<g>
							<defs>
								<rect id="SVGID_00000121977281935577152650000015009568082732511135_" x="20.4" y="-25.4" width="15" height="15"/>
							</defs>
							<clipPath id="SVGID_00000034806788032776006300000008346819694684149419_">
								<use xlink:href="#SVGID_00000121977281935577152650000015009568082732511135_"  style="overflow:visible;"/>
							</clipPath>
							
								<line style="clip-path:url(#SVGID_00000034806788032776006300000008346819694684149419_);fill:none;stroke:#B7B7B7;stroke-miterlimit:10;" x1="20.4" y1="-10.4" x2="35.4" y2="-25.4"/>
						</g>
					</g>
				</g>
				<g>
					<g>
						<g>
							<defs>
								<rect id="SVGID_00000071532138774436303200000004916673400556051382_" x="10.4" y="-25.4" width="15" height="15"/>
							</defs>
							<clipPath id="SVGID_00000082362126109834887720000006123395547589437359_">
								<use xlink:href="#SVGID_00000071532138774436303200000004916673400556051382_"  style="overflow:visible;"/>
							</clipPath>
							
								<line style="clip-path:url(#SVGID_00000082362126109834887720000006123395547589437359_);fill:none;stroke:#B7B7B7;stroke-miterlimit:10;" x1="10.4" y1="-10.4" x2="25.4" y2="-25.4"/>
						</g>
					</g>
				</g>
				<g>
					<g>
						<g>
							<defs>
								<rect id="SVGID_00000137818730840692948180000004866733222918275468_" x="0.4" y="-25.4" width="15" height="15"/>
							</defs>
							<clipPath id="SVGID_00000080186223570032328820000014286643256857397939_">
								<use xlink:href="#SVGID_00000137818730840692948180000004866733222918275468_"  style="overflow:visible;"/>
							</clipPath>
							
								<line style="clip-path:url(#SVGID_00000080186223570032328820000014286643256857397939_);fill:none;stroke:#B7B7B7;stroke-miterlimit:10;" x1="0.4" y1="-10.4" x2="15.4" y2="-25.4"/>
						</g>
					</g>
				</g>
				<g>
					<g>
						<g>
							<defs>
								<rect id="SVGID_00000057148799818116689240000004942128018857170565_" x="20.4" y="-35.4" width="15" height="15"/>
							</defs>
							<clipPath id="SVGID_00000141455001471540228170000001348695068057094528_">
								<use xlink:href="#SVGID_00000057148799818116689240000004942128018857170565_"  style="overflow:visible;"/>
							</clipPath>
							
								<line style="clip-path:url(#SVGID_00000141455001471540228170000001348695068057094528_);fill:none;stroke:#B7B7B7;stroke-miterlimit:10;" x1="20.4" y1="-20.4" x2="35.4" y2="-35.4"/>
						</g>
					</g>
				</g>
				<g>
					<g>
						<g>
							<defs>
								<rect id="SVGID_00000047032314436488246050000004541253175425294732_" x="10.4" y="-35.4" width="15" height="15"/>
							</defs>
							<clipPath id="SVGID_00000114034993095718753490000008017495808477703082_">
								<use xlink:href="#SVGID_00000047032314436488246050000004541253175425294732_"  style="overflow:visible;"/>
							</clipPath>
							
								<line style="clip-path:url(#SVGID_00000114034993095718753490000008017495808477703082_);fill:none;stroke:#B7B7B7;stroke-miterlimit:10;" x1="10.4" y1="-20.4" x2="25.4" y2="-35.4"/>
						</g>
					</g>
				</g>
				<g>
					<g>
						<g>
							<defs>
								<rect id="SVGID_00000109001832252541840420000007607563524224037039_" x="0.4" y="-35.4" width="15" height="15"/>
							</defs>
							<clipPath id="SVGID_00000176024689035891962530000005430663459368913321_">
								<use xlink:href="#SVGID_00000109001832252541840420000007607563524224037039_"  style="overflow:visible;"/>
							</clipPath>
							
								<line style="clip-path:url(#SVGID_00000176024689035891962530000005430663459368913321_);fill:none;stroke:#B7B7B7;stroke-miterlimit:10;" x1="0.4" y1="-20.4" x2="15.4" y2="-35.4"/>
						</g>
					</g>
				</g>
			</g>
		</g>
	</g>
</pattern>
<pattern  y="444.7" width="15" height="15" patternUnits="userSpaceOnUse" id="SVGID_0000006722828115227439422" viewBox="0.4 -15.4 15 15" style="overflow:visible;">
	<g>
		<rect x="0.4" y="-15.4" style="fill:none;" width="15" height="15"/>
		<g>
			<rect x="0.4" y="-15.4" style="fill:none;" width="15" height="15"/>
			<g>
				<rect x="0.4" y="-15.4" style="fill:none;" width="15" height="15"/>
				<g>
					<g>
						<g>
							<defs>
								<rect id="SVGID_00000176758802306779327560000004473620631198590110_" x="0.4" y="-15.4" width="15" height="15"/>
							</defs>
							<clipPath id="SVGID_00000088093443050228384450000014688716765010525344_">
								<use xlink:href="#SVGID_00000176758802306779327560000004473620631198590110_"  style="overflow:visible;"/>
							</clipPath>
							
								<line style="clip-path:url(#SVGID_00000088093443050228384450000014688716765010525344_);fill:none;stroke:#B7B7B7;stroke-miterlimit:10;" x1="0.4" y1="-0.4" x2="15.4" y2="-15.4"/>
						</g>
					</g>
				</g>
				<g>
					<g>
						<g>
							<defs>
								<rect id="SVGID_00000027563886795151656250000016084977960080356480_" x="0.4" y="-15.4" width="15" height="15"/>
							</defs>
							<clipPath id="SVGID_00000163751085204641582170000008336130719020397186_">
								<use xlink:href="#SVGID_00000027563886795151656250000016084977960080356480_"  style="overflow:visible;"/>
							</clipPath>
							
								<line style="clip-path:url(#SVGID_00000163751085204641582170000008336130719020397186_);fill:none;stroke:#B7B7B7;stroke-miterlimit:10;" x1="15.4" y1="-0.4" x2="0.4" y2="-15.4"/>
						</g>
					</g>
				</g>
			</g>
		</g>
	</g>
</pattern>
<pattern  y="444.7" width="10" height="10" patternUnits="userSpaceOnUse" id="SVGID_0000009820296658401949919" viewBox="12.9 -22.9 10 10" style="overflow:visible;">
	<g>
		<rect x="12.9" y="-22.9" style="fill:none;" width="10" height="10"/>
		<g>
			<rect x="12.9" y="-22.9" style="fill:none;" width="10" height="10"/>
			<g>
				<rect x="12.9" y="-22.9" style="fill:none;" width="10" height="10"/>
				<g>
					<g>
						<g>
							<defs>
								<rect id="SVGID_00000031924272581421832520000010873774463053077168_" x="20.4" y="-15.4" width="15" height="15"/>
							</defs>
							<clipPath id="SVGID_00000039856499942588799300000002238775457973954488_">
								<use xlink:href="#SVGID_00000031924272581421832520000010873774463053077168_"  style="overflow:visible;"/>
							</clipPath>
							
								<line style="clip-path:url(#SVGID_00000039856499942588799300000002238775457973954488_);fill:none;stroke:#B7B7B7;stroke-miterlimit:10;" x1="20.4" y1="-0.4" x2="35.4" y2="-15.4"/>
						</g>
					</g>
				</g>
				<g>
					<g>
						<g>
							<defs>
								<rect id="SVGID_00000020390438178319901870000007540841581167079598_" x="10.4" y="-15.4" width="15" height="15"/>
							</defs>
							<clipPath id="SVGID_00000020366174185007221240000001472041196441104316_">
								<use xlink:href="#SVGID_00000020390438178319901870000007540841581167079598_"  style="overflow:visible;"/>
							</clipPath>
							
								<line style="clip-path:url(#SVGID_00000020366174185007221240000001472041196441104316_);fill:none;stroke:#B7B7B7;stroke-miterlimit:10;" x1="10.4" y1="-0.4" x2="25.4" y2="-15.4"/>
						</g>
					</g>
				</g>
				<g>
					<g>
						<g>
							<defs>
								<rect id="SVGID_00000065047995881795446380000006891016236493833364_" x="0.4" y="-15.4" width="15" height="15"/>
							</defs>
							<clipPath id="SVGID_00000013157139289202140200000013551720076007528892_">
								<use xlink:href="#SVGID_00000065047995881795446380000006891016236493833364_"  style="overflow:visible;"/>
							</clipPath>
							
								<line style="clip-path:url(#SVGID_00000013157139289202140200000013551720076007528892_);fill:none;stroke:#B7B7B7;stroke-miterlimit:10;" x1="0.4" y1="-0.4" x2="15.4" y2="-15.4"/>
						</g>
					</g>
				</g>
				<g>
					<g>
						<g>
							<defs>
								<rect id="SVGID_00000009581748351688093280000010207356824891960478_" x="20.4" y="-25.4" width="15" height="15"/>
							</defs>
							<clipPath id="SVGID_00000116228177262690088120000015286129952088797864_">
								<use xlink:href="#SVGID_00000009581748351688093280000010207356824891960478_"  style="overflow:visible;"/>
							</clipPath>
							
								<line style="clip-path:url(#SVGID_00000116228177262690088120000015286129952088797864_);fill:none;stroke:#B7B7B7;stroke-miterlimit:10;" x1="20.4" y1="-10.4" x2="35.4" y2="-25.4"/>
						</g>
					</g>
				</g>
				<g>
					<g>
						<g>
							<defs>
								<rect id="SVGID_00000150789701668504574190000012399631100913154994_" x="10.4" y="-25.4" width="15" height="15"/>
							</defs>
							<clipPath id="SVGID_00000001660432384195798770000008385658890006550661_">
								<use xlink:href="#SVGID_00000150789701668504574190000012399631100913154994_"  style="overflow:visible;"/>
							</clipPath>
							
								<line style="clip-path:url(#SVGID_00000001660432384195798770000008385658890006550661_);fill:none;stroke:#B7B7B7;stroke-miterlimit:10;" x1="10.4" y1="-10.4" x2="25.4" y2="-25.4"/>
						</g>
					</g>
				</g>
				<g>
					<g>
						<g>
							<defs>
								<rect id="SVGID_00000058588791572941166390000014375131508096653451_" x="0.4" y="-25.4" width="15" height="15"/>
							</defs>
							<clipPath id="SVGID_00000034806650596915467020000018437601512607761568_">
								<use xlink:href="#SVGID_00000058588791572941166390000014375131508096653451_"  style="overflow:visible;"/>
							</clipPath>
							
								<line style="clip-path:url(#SVGID_00000034806650596915467020000018437601512607761568_);fill:none;stroke:#B7B7B7;stroke-miterlimit:10;" x1="0.4" y1="-10.4" x2="15.4" y2="-25.4"/>
						</g>
					</g>
				</g>
				<g>
					<g>
						<g>
							<defs>
								<rect id="SVGID_00000160179219885586414470000000688780941327581358_" x="20.4" y="-35.4" width="15" height="15"/>
							</defs>
							<clipPath id="SVGID_00000148661204663405787100000005361778816220444564_">
								<use xlink:href="#SVGID_00000160179219885586414470000000688780941327581358_"  style="overflow:visible;"/>
							</clipPath>
							
								<line style="clip-path:url(#SVGID_00000148661204663405787100000005361778816220444564_);fill:none;stroke:#B7B7B7;stroke-miterlimit:10;" x1="20.4" y1="-20.4" x2="35.4" y2="-35.4"/>
						</g>
					</g>
				</g>
				<g>
					<g>
						<g>
							<defs>
								<rect id="SVGID_00000078002470360809929320000006311039727771330705_" x="10.4" y="-35.4" width="15" height="15"/>
							</defs>
							<clipPath id="SVGID_00000097481913285211352890000002499958204195806646_">
								<use xlink:href="#SVGID_00000078002470360809929320000006311039727771330705_"  style="overflow:visible;"/>
							</clipPath>
							
								<line style="clip-path:url(#SVGID_00000097481913285211352890000002499958204195806646_);fill:none;stroke:#B7B7B7;stroke-miterlimit:10;" x1="10.4" y1="-20.4" x2="25.4" y2="-35.4"/>
						</g>
					</g>
				</g>
				<g>
					<g>
						<g>
							<defs>
								<rect id="SVGID_00000173155616400052693490000011969416333876601520_" x="0.4" y="-35.4" width="15" height="15"/>
							</defs>
							<clipPath id="SVGID_00000129170320721573315480000012492790000195233156_">
								<use xlink:href="#SVGID_00000173155616400052693490000011969416333876601520_"  style="overflow:visible;"/>
							</clipPath>
							
								<line style="clip-path:url(#SVGID_00000129170320721573315480000012492790000195233156_);fill:none;stroke:#B7B7B7;stroke-miterlimit:10;" x1="0.4" y1="-20.4" x2="15.4" y2="-35.4"/>
						</g>
					</g>
				</g>
			</g>
		</g>
	</g>
</pattern>
<pattern  y="444.7" width="15" height="15" patternUnits="userSpaceOnUse" id="SVGID_0000012487631659403814352" viewBox="0.4 -15.4 15 15" style="overflow:visible;">
	<g>
		<rect x="0.4" y="-15.4" style="fill:none;" width="15" height="15"/>
		<g>
			<rect x="0.4" y="-15.4" style="fill:none;" width="15" height="15"/>
			<g>
				<rect x="0.4" y="-15.4" style="fill:none;" width="15" height="15"/>
				<g>
					<g>
						<g>
							<defs>
								<rect id="SVGID_00000033334746189033247000000011430005276338839975_" x="0.4" y="-15.4" width="15" height="15"/>
							</defs>
							<clipPath id="SVGID_00000114066913189116690200000005009810023147360431_">
								<use xlink:href="#SVGID_00000033334746189033247000000011430005276338839975_"  style="overflow:visible;"/>
							</clipPath>
							
								<line style="clip-path:url(#SVGID_00000114066913189116690200000005009810023147360431_);fill:none;stroke:#B7B7B7;stroke-miterlimit:10;" x1="0.4" y1="-0.4" x2="15.4" y2="-15.4"/>
						</g>
					</g>
				</g>
				<g>
					<g>
						<g>
							<defs>
								<rect id="SVGID_00000102545671133981138800000014426634082193588627_" x="0.4" y="-15.4" width="15" height="15"/>
							</defs>
							<clipPath id="SVGID_00000036250950366202783790000006605497351316974255_">
								<use xlink:href="#SVGID_00000102545671133981138800000014426634082193588627_"  style="overflow:visible;"/>
							</clipPath>
							
								<line style="clip-path:url(#SVGID_00000036250950366202783790000006605497351316974255_);fill:none;stroke:#B7B7B7;stroke-miterlimit:10;" x1="15.4" y1="-0.4" x2="0.4" y2="-15.4"/>
						</g>
					</g>
				</g>
			</g>
		</g>
	</g>
</pattern>
<pattern  y="444.7" width="10" height="10" patternUnits="userSpaceOnUse" id="SVGID_0000013566885688394679553" viewBox="12.9 -22.9 10 10" style="overflow:visible;">
	<g>
		<rect x="12.9" y="-22.9" style="fill:none;" width="10" height="10"/>
		<g>
			<rect x="12.9" y="-22.9" style="fill:none;" width="10" height="10"/>
			<g>
				<rect x="12.9" y="-22.9" style="fill:none;" width="10" height="10"/>
				<g>
					<g>
						<g>
							<defs>
								<rect id="SVGID_00000109710948928697289980000000610571652818575489_" x="20.4" y="-15.4" width="15" height="15"/>
							</defs>
							<clipPath id="SVGID_00000103961796919267683040000005012457506599403939_">
								<use xlink:href="#SVGID_00000109710948928697289980000000610571652818575489_"  style="overflow:visible;"/>
							</clipPath>
							
								<line style="clip-path:url(#SVGID_00000103961796919267683040000005012457506599403939_);fill:none;stroke:#B7B7B7;stroke-miterlimit:10;" x1="20.4" y1="-0.4" x2="35.4" y2="-15.4"/>
						</g>
					</g>
				</g>
				<g>
					<g>
						<g>
							<defs>
								<rect id="SVGID_00000016764435275135378550000010445122870038829236_" x="10.4" y="-15.4" width="15" height="15"/>
							</defs>
							<clipPath id="SVGID_00000152227972240645108430000002014828864831675271_">
								<use xlink:href="#SVGID_00000016764435275135378550000010445122870038829236_"  style="overflow:visible;"/>
							</clipPath>
							
								<line style="clip-path:url(#SVGID_00000152227972240645108430000002014828864831675271_);fill:none;stroke:#B7B7B7;stroke-miterlimit:10;" x1="10.4" y1="-0.4" x2="25.4" y2="-15.4"/>
						</g>
					</g>
				</g>
				<g>
					<g>
						<g>
							<defs>
								<rect id="SVGID_00000027604560525732510600000005913726938682292649_" x="0.4" y="-15.4" width="15" height="15"/>
							</defs>
							<clipPath id="SVGID_00000123409392397469007380000001621798353047026594_">
								<use xlink:href="#SVGID_00000027604560525732510600000005913726938682292649_"  style="overflow:visible;"/>
							</clipPath>
							
								<line style="clip-path:url(#SVGID_00000123409392397469007380000001621798353047026594_);fill:none;stroke:#B7B7B7;stroke-miterlimit:10;" x1="0.4" y1="-0.4" x2="15.4" y2="-15.4"/>
						</g>
					</g>
				</g>
				<g>
					<g>
						<g>
							<defs>
								<rect id="SVGID_00000139977039175832715180000010760443668699570826_" x="20.4" y="-25.4" width="15" height="15"/>
							</defs>
							<clipPath id="SVGID_00000096753168236841615020000010800247611342170300_">
								<use xlink:href="#SVGID_00000139977039175832715180000010760443668699570826_"  style="overflow:visible;"/>
							</clipPath>
							
								<line style="clip-path:url(#SVGID_00000096753168236841615020000010800247611342170300_);fill:none;stroke:#B7B7B7;stroke-miterlimit:10;" x1="20.4" y1="-10.4" x2="35.4" y2="-25.4"/>
						</g>
					</g>
				</g>
				<g>
					<g>
						<g>
							<defs>
								<rect id="SVGID_00000170280560402213599220000016591223883213114548_" x="10.4" y="-25.4" width="15" height="15"/>
							</defs>
							<clipPath id="SVGID_00000143585067285324510720000010089514512951548303_">
								<use xlink:href="#SVGID_00000170280560402213599220000016591223883213114548_"  style="overflow:visible;"/>
							</clipPath>
							
								<line style="clip-path:url(#SVGID_00000143585067285324510720000010089514512951548303_);fill:none;stroke:#B7B7B7;stroke-miterlimit:10;" x1="10.4" y1="-10.4" x2="25.4" y2="-25.4"/>
						</g>
					</g>
				</g>
				<g>
					<g>
						<g>
							<defs>
								<rect id="SVGID_00000176038452099077893140000006976157280350281138_" x="0.4" y="-25.4" width="15" height="15"/>
							</defs>
							<clipPath id="SVGID_00000170988986879916864390000010257710406380642492_">
								<use xlink:href="#SVGID_00000176038452099077893140000006976157280350281138_"  style="overflow:visible;"/>
							</clipPath>
							
								<line style="clip-path:url(#SVGID_00000170988986879916864390000010257710406380642492_);fill:none;stroke:#B7B7B7;stroke-miterlimit:10;" x1="0.4" y1="-10.4" x2="15.4" y2="-25.4"/>
						</g>
					</g>
				</g>
				<g>
					<g>
						<g>
							<defs>
								<rect id="SVGID_00000127731134951272102990000013743567486027895207_" x="20.4" y="-35.4" width="15" height="15"/>
							</defs>
							<clipPath id="SVGID_00000084519682629100201330000011336178007165695672_">
								<use xlink:href="#SVGID_00000127731134951272102990000013743567486027895207_"  style="overflow:visible;"/>
							</clipPath>
							
								<line style="clip-path:url(#SVGID_00000084519682629100201330000011336178007165695672_);fill:none;stroke:#B7B7B7;stroke-miterlimit:10;" x1="20.4" y1="-20.4" x2="35.4" y2="-35.4"/>
						</g>
					</g>
				</g>
				<g>
					<g>
						<g>
							<defs>
								<rect id="SVGID_00000055706624144908080230000004163241686996719538_" x="10.4" y="-35.4" width="15" height="15"/>
							</defs>
							<clipPath id="SVGID_00000028292925840969636730000000062996657410281639_">
								<use xlink:href="#SVGID_00000055706624144908080230000004163241686996719538_"  style="overflow:visible;"/>
							</clipPath>
							
								<line style="clip-path:url(#SVGID_00000028292925840969636730000000062996657410281639_);fill:none;stroke:#B7B7B7;stroke-miterlimit:10;" x1="10.4" y1="-20.4" x2="25.4" y2="-35.4"/>
						</g>
					</g>
				</g>
				<g>
					<g>
						<g>
							<defs>
								<rect id="SVGID_00000005246060238698847070000007373265098906256819_" x="0.4" y="-35.4" width="15" height="15"/>
							</defs>
							<clipPath id="SVGID_00000150065616267622023860000003074124062220255630_">
								<use xlink:href="#SVGID_00000005246060238698847070000007373265098906256819_"  style="overflow:visible;"/>
							</clipPath>
							
								<line style="clip-path:url(#SVGID_00000150065616267622023860000003074124062220255630_);fill:none;stroke:#B7B7B7;stroke-miterlimit:10;" x1="0.4" y1="-20.4" x2="15.4" y2="-35.4"/>
						</g>
					</g>
				</g>
			</g>
		</g>
	</g>
</pattern>
<g>
	<g>
		<path style="fill:#FFFFFF;" d="M857.4,272c-26,0-47.2-21.2-47.2-47.2s21.2-47.2,47.2-47.2s47.2,21.2,47.2,47.2
			S883.4,272,857.4,272z"/>
		<path d="M857.4,178.3c25.6,0,46.5,20.9,46.5,46.5s-20.9,46.5-46.5,46.5s-46.5-20.9-46.5-46.5S831.8,178.3,857.4,178.3
			 M857.4,176.9c-26.5,0-47.9,21.5-47.9,47.9c0,26.5,21.5,47.9,47.9,47.9c26.5,0,47.9-21.5,47.9-47.9
			C905.3,198.4,883.9,176.9,857.4,176.9L857.4,176.9z"/>
	</g>
	<circle style="fill:none;stroke:#000000;stroke-width:1.4173;stroke-miterlimit:10;" cx="857.4" cy="224.8" r="165"/>
	<g>
		<g>
			<line style="fill:none;stroke:#000000;stroke-width:0.7087;stroke-miterlimit:10;" x1="857.4" y1="60.6" x2="857.4" y2="224.8"/>
			<g>
				<polygon points="854.5,62.9 855,63.4 857.4,60.9 859.8,63.4 860.3,62.9 857.4,59.8 				"/>
			</g>
		</g>
	</g>
	<text transform="matrix(1 0 0 1 869.5596 44.2654)" style="font-family:'TimesNewRomanPSMT'; font-size:12px;">r</text>
	<text transform="matrix(1 0 0 1 873.5557 48.2618)" style="font-family:'TimesNewRomanPSMT'; font-size:6.996px;">p</text>
	<text transform="matrix(1 0 0 1 877.0537 44.2654)" style="font-family:'TimesNewRomanPSMT'; font-size:12px;"> =165mm</text>
	<g>
		<g>
			
				<line style="fill:none;stroke:#0068FF;stroke-width:1.4173;stroke-miterlimit:10;" x1="1016.8" y1="182.1" x2="1078.4" y2="412.2"/>
			<g>
				<polygon style="fill:#0068FF;" points="1072.3,409.7 1078,410.5 1082.5,407 1080.6,420.4 				"/>
			</g>
		</g>
	</g>
	
		<line style="fill:none;stroke:#000000;stroke-width:0.7087;stroke-miterlimit:10;stroke-dasharray:8.5039,2.8346;" x1="1016.8" y1="182.1" x2="857.4" y2="224.8"/>
	
		<rect x="1008.2" y="183.2" transform="matrix(0.9659 -0.2588 0.2588 0.9659 -14.1863 268.6258)" style="fill:none;stroke:#000000;stroke-width:0.7087;stroke-miterlimit:9.9994;" width="10" height="10"/>
	
		<line style="fill:none;stroke:#000000;stroke-width:0.7087;stroke-miterlimit:10;stroke-dasharray:8.5039,2.8346;" x1="857.4" y1="224.8" x2="979.4" y2="224.8"/>
	<g>
		<g>
			<path style="fill:none;stroke:#000000;stroke-width:0.7087;stroke-miterlimit:10;" d="M951.6,224.8c0-8.1-1-16-3-23.6"/>
			<g>
				<path d="M953.1,205.2c-0.1,0.1-0.4,0.1-0.5,0l-3.9-3.8l-1.8,5.1c-0.1,0.2-0.3,0.3-0.5,0.2s-0.3-0.3-0.2-0.5l2-5.6
					c0-0.1,0.1-0.2,0.3-0.2c0.1,0,0.2,0,0.3,0.1l4.3,4.2c0,0,0.1,0.1,0.1,0.2C953.2,205,953.1,205.1,953.1,205.2z"/>
			</g>
		</g>
	</g>
	<text transform="matrix(1 0 0 1 956.428 215.8689)" style="font-family:'Times-Italic'; font-size:12px;">φ</text>
	<text transform="matrix(1 0 0 1 1013.2486 418.8485)" style="font-family:'Times-Roman'; font-size:12px;">F</text>
	<text transform="matrix(1 0 0 1 1019.9219 422.8448)" style="font-family:'Times-Roman'; font-size:6.996px;">L</text>
	<text transform="matrix(1 0 0 1 1024.1958 418.8485)" style="font-family:'Times-Roman'; font-size:12px;"> = 15kN</text>
	<g>
		<g>
			<line style="fill:none;stroke:#000000;stroke-width:0.7087;stroke-miterlimit:10;" x1="857.4" y1="59.1" x2="857.4" y2="39.2"/>
			<g>
				<polygon points="860.3,56.7 859.8,56.2 857.4,58.8 855,56.2 854.5,56.7 857.4,59.8 				"/>
			</g>
		</g>
	</g>
</g>
<g>
	
		<rect x="70.8" y="177.3" style="fill:#FFFFFF;stroke:#000000;stroke-width:1.4173;stroke-miterlimit:10;" width="569.7" height="95.8"/>
	<g>
		
			<pattern  id="SVGID_00000095317766297323188410000004085151401452325040_" xlink:href="#SVGID_0000009820296658401949919" patternTransform="matrix(1 0 0 1 10.0189 15784.3262)">
		</pattern>
		
			<rect x="105.3" y="177.3" style="fill:url(#SVGID_00000095317766297323188410000004085151401452325040_);stroke:#000000;stroke-width:1.4173;stroke-miterlimit:10;" width="70.7" height="95.8"/>
		
			<pattern  id="SVGID_00000012432617271839630330000009552977502722989727_" xlink:href="#SVGID_0000003621953323978893732" patternTransform="matrix(1 0 0 1 10.0189 15784.3262)">
		</pattern>
		
			<rect x="337.9" y="177.3" style="fill:url(#SVGID_00000012432617271839630330000009552977502722989727_);stroke:#000000;stroke-width:1.4173;stroke-miterlimit:10;" width="70.7" height="95.8"/>
	</g>
	
		<rect x="248.4" y="88" style="fill:#FFFFFF;stroke:#000000;stroke-width:1.4173;stroke-miterlimit:10;" width="17.2" height="274.4"/>
	<g>
		<g>
			<line style="fill:none;stroke:#0068FF;stroke-width:1.4173;stroke-miterlimit:10;" x1="257" y1="184.2" x2="257" y2="419.9"/>
			<g>
				<polygon style="fill:#0068FF;" points="251.8,415.9 257,418.1 262.2,415.9 257,428.3 				"/>
			</g>
		</g>
	</g>
	<g>
		<g>
			<line style="fill:none;stroke:#0068FF;stroke-width:1.4173;stroke-miterlimit:10;" x1="140.7" y1="225.2" x2="140.7" y2="82.4"/>
			<g>
				<polygon style="fill:#0068FF;" points="145.9,86.4 140.7,84.2 135.5,86.4 140.7,74 				"/>
			</g>
		</g>
	</g>
	<g>
		<g>
			<line style="fill:none;stroke:#0068FF;stroke-width:1.4173;stroke-miterlimit:10;" x1="373.3" y1="225.2" x2="373.3" y2="82.4"/>
			<g>
				<polygon style="fill:#0068FF;" points="378.5,86.4 373.3,84.2 368,86.4 373.3,74 				"/>
			</g>
		</g>
	</g>
	
		<pattern  id="SVGID_00000090289435660982312940000017661065972952438414_" xlink:href="#SVGID_0000006722828115227439422" patternTransform="matrix(1 0 0 1 25.0189 15749.3262)">
	</pattern>
	
		<rect x="454.8" y="177.3" style="fill:url(#SVGID_00000090289435660982312940000017661065972952438414_);stroke:#000000;stroke-width:1.4173;stroke-miterlimit:10;" width="159.7" height="95.8"/>
	<g>
		
			<line style="fill:none;stroke:#000000;stroke-width:0.7087;stroke-miterlimit:10;stroke-dasharray:8.5039,2.8346;" x1="408.7" y1="273.1" x2="408.7" y2="325.7"/>
	</g>
	
		<line style="fill:none;stroke:#000000;stroke-width:0.7087;stroke-miterlimit:10;stroke-dasharray:8.5039,2.8346;" x1="454.8" y1="273.1" x2="454.8" y2="325.7"/>
	<text transform="matrix(1 0 0 1 423.1098 314.166)" style="font-family:'Times-Roman'; font-size:12px;">Clr</text>
	<text transform="matrix(1 0 0 1 365.3364 314.3703)" style="font-family:'Times-Roman'; font-size:12px;">Pbw</text>
	<text transform="matrix(1 0 0 1 248.403 36.4116)" style="font-family:'Times-Roman'; font-size:12px;">Pbs</text>
	<text transform="matrix(1 0 0 1 151.4977 73.9644)" style="font-family:'Times-Roman'; font-size:12px;">R</text>
	<text transform="matrix(1 0 0 1 159.502 77.9605)" style="font-family:'Times-Roman'; font-size:6.996px;">A</text>
	<text transform="matrix(1 0 0 1 386.3485 76.7465)" style="font-family:'Times-Roman'; font-size:12px;">R</text>
	<text transform="matrix(1 0 0 1 394.3525 80.7427)" style="font-family:'Times-Roman'; font-size:6.996px;">B</text>
	<text transform="matrix(1 0 0 1 270.9766 428.3274)" style="font-family:'Times-Roman'; font-size:12px;">F</text>
	<text transform="matrix(1 0 0 1 277.6504 432.3233)" style="font-family:'Times-Roman'; font-size:6.996px;">L</text>
	<text transform="matrix(1 0 0 1 544.4012 339.0484)" style="font-family:'Times-Roman'; font-size:12px;">F</text>
	<text transform="matrix(1 0 0 1 551.0752 343.0445)" style="font-family:'Times-Roman'; font-size:6.996px;">W </text>
	<text transform="matrix(1 0 0 1 559.4271 339.0484)" style="font-family:'Times-Roman'; font-size:12px;">= T</text>
	<text transform="matrix(1 0 0 1 576.5244 343.0445)" style="font-family:'Times-Roman'; font-size:6.996px;">1</text>
	<text transform="matrix(1 0 0 1 580.0228 339.0484)" style="font-family:'Times-Roman'; font-size:12px;"> + </text>
	<text transform="matrix(1 0 0 1 592.7903 339.0484)" style="font-family:'TimesNewRomanPS-ItalicMT'; font-size:14px;">m</text>
	<text transform="matrix(1 0 0 1 602.9004 343.7105)" style="font-family:'TimesNewRomanPS-ItalicMT'; font-size:8.162px;">w </text>
	<text transform="matrix(1 0 0 1 610.3851 339.0484)" style="font-family:'TimesNewRomanPS-ItalicMT'; font-size:14px;">g</text>
	
		<line style="fill:none;stroke:#000000;stroke-width:0.7087;stroke-miterlimit:10;stroke-dasharray:8.5039,2.8346;" x1="140.7" y1="74" x2="140.7" y2="19.3"/>
	
		<line style="fill:none;stroke:#000000;stroke-width:0.7087;stroke-miterlimit:10;stroke-dasharray:8.5039,2.8346;" x1="373.3" y1="74" x2="373.3" y2="19.3"/>
	<g>
		<g>
			<line style="fill:none;stroke:#000000;stroke-width:0.7087;stroke-miterlimit:10;" x1="141.5" y1="46.6" x2="372.5" y2="46.6"/>
			<g>
				<polygon points="143.8,49.5 144.3,49 141.7,46.6 144.3,44.3 143.8,43.7 140.7,46.6 				"/>
			</g>
			<g>
				<polygon points="370.2,49.5 369.7,49 372.3,46.6 369.7,44.3 370.2,43.7 373.3,46.6 				"/>
			</g>
		</g>
	</g>
	<g>
		<g>
			<line style="fill:none;stroke:#000000;stroke-width:0.7087;stroke-miterlimit:10;" x1="409.4" y1="299.4" x2="454" y2="299.4"/>
			<g>
				<polygon points="411.8,302.3 412.3,301.8 409.7,299.4 412.3,297.1 411.8,296.5 408.7,299.4 				"/>
			</g>
			<g>
				<polygon points="451.6,302.3 451.2,301.8 453.7,299.4 451.2,297.1 451.6,296.5 454.8,299.4 				"/>
			</g>
		</g>
	</g>
	<g>
		
			<line style="fill:none;stroke:#000000;stroke-width:0.7087;stroke-miterlimit:10;stroke-dasharray:8.5039,2.8346;" x1="337.9" y1="273.1" x2="337.9" y2="325.7"/>
	</g>
	<g>
		<g>
			
				<line style="fill:none;stroke:#000000;stroke-width:0.7087;stroke-miterlimit:10;" x1="338.7" y1="299.4" x2="407.9" y2="299.4"/>
			<g>
				<polygon points="341,302.3 341.5,301.8 339,299.4 341.5,297.1 341,296.5 337.9,299.4 				"/>
			</g>
			<g>
				<polygon points="405.6,302.3 405.1,301.8 407.6,299.4 405.1,297.1 405.6,296.5 408.7,299.4 				"/>
			</g>
		</g>
	</g>
	<g>
		
			<line style="fill:none;stroke:#000000;stroke-width:0.7087;stroke-miterlimit:10;stroke-dasharray:8.5039,2.8346;" x1="614.5" y1="124.7" x2="614.5" y2="177.3"/>
	</g>
	<text transform="matrix(1 0 0 1 521.3953 146.7184)" style="font-family:'Times-Roman'; font-size:12px;">Gbw</text>
	<g>
		
			<line style="fill:none;stroke:#000000;stroke-width:0.7087;stroke-miterlimit:10;stroke-dasharray:8.5039,2.8346;" x1="454.8" y1="124.7" x2="454.8" y2="177.3"/>
	</g>
	<g>
		<g>
			
				<line style="fill:none;stroke:#000000;stroke-width:0.7087;stroke-miterlimit:10;" x1="455.5" y1="152.1" x2="613.7" y2="152.1"/>
			<g>
				<polygon points="457.9,155 458.4,154.5 455.8,152.1 458.4,149.7 457.9,149.2 454.8,152.1 				"/>
			</g>
			<g>
				<polygon points="611.3,155 610.9,154.5 613.4,152.1 610.9,149.7 611.3,149.2 614.5,152.1 				"/>
			</g>
		</g>
	</g>
	
		<line style="fill:none;stroke:#000000;stroke-width:0.7087;stroke-miterlimit:10;stroke-dasharray:8.5039,2.8346;" x1="70.8" y1="177.3" x2="15.7" y2="177.3"/>
	
		<line style="fill:none;stroke:#000000;stroke-width:0.7087;stroke-miterlimit:10;stroke-dasharray:8.5039,2.8346;" x1="70.8" y1="273.1" x2="17.1" y2="273.1"/>
	<g>
		<g>
			<line style="fill:none;stroke:#000000;stroke-width:0.7087;stroke-miterlimit:10;" x1="43.9" y1="178.1" x2="43.9" y2="272.4"/>
			<g>
				<polygon points="41,180.4 41.5,180.9 43.9,178.4 46.3,180.9 46.8,180.4 43.9,177.3 				"/>
			</g>
			<g>
				<polygon points="41,270 41.5,269.5 43.9,272.1 46.3,269.5 46.8,270 43.9,273.1 				"/>
			</g>
		</g>
	</g>
	<text transform="matrix(1 0 0 1 29.9385 229.9077)" style="font-family:'TimesNewRomanPSMT'; font-size:12px;">D</text>
	<g>
		<g>
			
				<line style="fill:none;stroke:#0068FF;stroke-width:1.4173;stroke-miterlimit:10;" x1="534.6" y1="223.2" x2="534.6" y2="321.3"/>
			<g>
				<polygon style="fill:#0068FF;" points="529.4,317.3 534.6,319.5 539.9,317.3 534.6,329.8 				"/>
			</g>
		</g>
	</g>
</g>
<line style="fill:none;stroke:#000000;stroke-width:0.7087;stroke-miterlimit:10;stroke-dasharray:8.5039,2.8346;" x1="857.4" y1="224.8" x2="61.1" y2="224.8"/>
<g>
	
		<pattern  id="SVGID_00000171687017618464744850000014382353495223572608_" xlink:href="#SVGID_0000013566885688394679553" patternTransform="matrix(1 0 0 1 10.0189 15784.3262)">
	</pattern>
	
		<rect x="17.1" y="406.3" style="fill:url(#SVGID_00000171687017618464744850000014382353495223572608_);stroke:#000000;stroke-width:1.4173;stroke-miterlimit:10;" width="25" height="25"/>
	<text transform="matrix(1 0 0 1 52.1909 423.701)" style="font-family:'TimesNewRomanPSMT'; font-size:14px;">Plumber Blocks</text>
</g>
<g>
	
		<pattern  id="SVGID_00000011726321083338339790000007310230119172099731_" xlink:href="#SVGID_0000012487631659403814352" patternTransform="matrix(1 0 0 1 27.3209 15766.4277)">
	</pattern>
	
		<rect x="17.1" y="370.3" style="fill:url(#SVGID_00000011726321083338339790000007310230119172099731_);stroke:#000000;stroke-width:1.4173;stroke-miterlimit:10;" width="25" height="25"/>
	<text transform="matrix(1 0 0 1 52.1909 387.6763)" style="font-family:'TimesNewRomanPSMT'; font-size:14px;">Gearbox</text>
</g>
<g>
	<g>
		<polyline style="fill:none;stroke:#000000;stroke-miterlimit:10;" points="140.7,203 140.7,224.8 162.8,224.8 		"/>
		<g>
			<polygon points="140.7,195.9 136.6,205.8 140.7,203.5 144.8,205.8 			"/>
		</g>
		<g>
			<polygon points="169.8,224.8 159.9,228.9 162.2,224.8 159.9,220.8 			"/>
		</g>
	</g>
</g>
<g>
	<g>
		<polyline style="fill:none;stroke:#000000;stroke-miterlimit:10;" points="857.4,203 857.4,224.8 879.5,224.8 		"/>
		<g>
			<polygon points="857.4,195.9 853.3,205.8 857.4,203.5 861.5,205.8 			"/>
		</g>
		<g>
			<polygon points="886.5,224.8 876.6,228.9 878.9,224.8 876.6,220.8 			"/>
		</g>
	</g>
</g>
<text transform="matrix(1 0 0 1 147.5729 197.59)" style="font-family:'TimesNewRomanPS-ItalicMT'; font-size:14px;">y</text>
<text transform="matrix(1 0 0 1 164.9992 220.5532)" style="font-family:'TimesNewRomanPS-ItalicMT'; font-size:14px;">x</text>
<text transform="matrix(1 0 0 1 865.0074 196.8811)" style="font-family:'TimesNewRomanPS-ItalicMT'; font-size:14px;">y</text>
<text transform="matrix(1 0 0 1 882.4788 235.8358)" style="font-family:'TimesNewRomanPS-ItalicMT'; font-size:14px;">z</text>
<g>
	<g>
		<path style="fill:none;stroke:#0068FF;stroke-width:1.4173;stroke-miterlimit:10;" d="M826,172.1c-17.9,10.7-29.9,30.3-29.9,52.7
			c0,33.9,27.5,61.3,61.3,61.3c21.8,0,40.9-11.4,51.8-28.5"/>
		<g>
			<polygon style="fill:#0068FF;" points="820.1,169.4 824.5,173 824.9,178.7 833.5,168.3 			"/>
		</g>
	</g>
</g>
<text transform="matrix(1 0 0 1 914.7488 268.4508)" style="font-family:'Times-Roman'; font-size:12px;">T</text>
<text transform="matrix(1 0 0 1 922.0791 272.4468)" style="font-family:'Times-Roman'; font-size:6.996px;">q</text>
<g>
	<text transform="matrix(1 0 0 1 130.0054 239.4995)" style="font-family:'Times-Roman'; font-size:12px;">A</text>
</g>
<g>
	<text transform="matrix(1 0 0 1 361.4372 239.4998)" style="font-family:'Times-Roman'; font-size:12px;">B</text>
</g>
<circle cx="140.7" cy="225.2" r="2.6"/>
<circle cx="373.3" cy="225.2" r="2.6"/>
</svg>
