<?xml version="1.0" encoding="utf-8"?>
<!-- Generator: Adobe Illustrator 26.5.0, SVG Export Plug-In . SVG Version: 6.00 Build 0)  -->
<svg version="1.1" id="Layer_1" xmlns="http://www.w3.org/2000/svg" xmlns:xlink="http://www.w3.org/1999/xlink" x="0px" y="0px"
	 width="1190.6px" height="841.9px" viewBox="0 0 1190.6 841.9" style="enable-background:new 0 0 1190.6 841.9;"
	 xml:space="preserve">
<text transform="matrix(1.0003 0 0 1 569.2373 547.0873)" style="fill:#808080; font-family:'CenturyGothic'; font-size:12px;"> 460.00 </text>
<text transform="matrix(1.0003 0 0 1 178.3257 609.1869)" style="fill:#808080; font-family:'CenturyGothic'; font-size:12px;"> 100.00 </text>
<text transform="matrix(1.0003 0 0 1 512.2856 655.8793)" style="fill:#808080; font-family:'CenturyGothic'; font-size:12px;"> 100.00 </text>
<text transform="matrix(1.0003 0 0 1 512.2856 547.0873)" style="fill:#808080; font-family:'CenturyGothic'; font-size:12px;"> 100.00 </text>
<text transform="matrix(1.0003 0 0 1 178.3257 433.351)" style="fill:#808080; font-family:'CenturyGothic'; font-size:12px;"> 100.00 </text>
<text transform="matrix(1.0003 0 0 1 178.3257 484.5189)" style="fill:#808080; font-family:'CenturyGothic'; font-size:12px;"> 100.00 </text>
<text transform="matrix(1.0003 0 0 1 337.7456 407.4432)" style="fill:#808080; font-family:'CenturyGothic'; font-size:12px;"> 157.50 </text>
<text transform="matrix(1.0002 0 0 1 456.3057 498.1273)" style="fill:#808080; font-family:'CenturyGothic'; font-size:12px;"> 75° </text>
<text transform="matrix(1.0003 0 0 1 147.6294 667.015)" style="fill:#808080; font-family:'CenturyGothic'; font-size:12px;"> 10.00 </text>
<text transform="matrix(1.0001 0 0 1 677.75 726.3207)" style="font-family:'CenturyGothic'; font-size:6.6142px;">Gabriel Ralph</text>
<text transform="matrix(1.0001 0 0 1 677.75 738.3451)" style="font-family:'CenturyGothic'; font-size:6.6142px;">Gabriel Ralph</text>
<text transform="matrix(1 0 0 1 786.2969 725.9945)" style="font-family:'CenturyGothic'; font-size:6.6142px;">27 Oct 22</text>
<text transform="matrix(1.0001 0 0 1 979.6592 745.2357)" style="font-family:'CenturyGothic'; font-size:22px;">Mixer Frame</text>
<text transform="matrix(1 0 0 1.0001 681.125 693.0033)" style="font-family:'CenturyGothic'; font-size:6.6133px;">± 0.1mm</text>
<text transform="matrix(1 0 0 1.0001 699.0246 679.225)" style="font-family:'CenturyGothic'; font-size:6.6133px;">Galvinised</text>
<text transform="matrix(1.0002 0 0 1 689.043 700.4047)" style="font-family:'CenturyGothic'; font-size:6.6142px;">± 0.1°</text>
<text transform="matrix(1 0 0 1 821.7705 791.0658)" style="font-family:'CenturyGothic'; font-size:11.9996px;">Cold Rolled Steel</text>
<text transform="matrix(1.0003 0 0 1 670.7627 398.9301)" style="fill:#808080; font-family:'CenturyGothic'; font-size:12px;"> 100.00 </text>
<text transform="matrix(1.0003 0 0 1 894.8379 398.9301)" style="fill:#808080; font-family:'CenturyGothic'; font-size:12px;"> 100.00 </text>
<text transform="matrix(1.0003 0 0 1 973.4141 606.9857)" style="fill:#808080; font-family:'CenturyGothic'; font-size:12px;"> 100.00 </text>
<text transform="matrix(1.0003 0 0 1 667.3066 428.6537)" style="fill:#808080; font-family:'CenturyGothic'; font-size:12px;"> </text>
<path style="fill:none;stroke:#808080;stroke-width:0.51;stroke-miterlimit:10;" d="M675.3,430l4.5-11.4 M681.6,424.3l-0.1-0.5
	l-0.1-0.4l-0.1-0.5l-0.2-0.5l-0.3-0.4l-0.3-0.3l-0.3-0.4l-0.4-0.3l-0.4-0.2l-0.4-0.2l-0.5-0.2l-0.5-0.1h-0.4h-0.5l-0.5,0.1l-0.5,0.2
	l-0.4,0.2l-0.4,0.2l-0.4,0.3l-0.3,0.4l-0.3,0.3l-0.3,0.4l-0.2,0.5l-0.1,0.5l-0.1,0.4v0.5v0.5l0.1,0.5l0.1,0.4l0.2,0.5l0.3,0.4
	l0.3,0.4l0.3,0.3l0.4,0.3l0.4,0.3l0.4,0.1l0.5,0.2l0.5,0.1h0.5h0.4l0.5-0.1l0.5-0.2l0.4-0.1l0.4-0.3l0.4-0.3l0.3-0.3l0.3-0.4
	l0.3-0.4l0.2-0.5l0.1-0.4l0.1-0.5L681.6,424.3"/>
<text transform="matrix(1.0003 0 0 1 684.2031 428.6488)" style="fill:#808080; font-family:'CenturyGothic'; font-size:12px;">22.00 </text>
<text transform="matrix(1.0003 0 0 1 891.3828 428.6488)" style="fill:#808080; font-family:'CenturyGothic'; font-size:12px;"> </text>
<path style="fill:none;stroke:#808080;stroke-width:0.51;stroke-miterlimit:10;" d="M899.3,430l4.6-11.4 M905.6,424.3v-0.5l-0.1-0.4
	l-0.1-0.5l-0.2-0.5l-0.3-0.4l-0.3-0.3l-0.3-0.4l-0.4-0.3l-0.4-0.2l-0.5-0.2l-0.4-0.2l-0.5-0.1h-0.5h-0.5l-0.4,0.1l-0.5,0.2l-0.4,0.2
	l-0.4,0.2l-0.4,0.3l-0.4,0.4l-0.3,0.3l-0.2,0.4l-0.2,0.5l-0.2,0.5v0.4l-0.1,0.5l0.1,0.5v0.5l0.2,0.4l0.2,0.5l0.2,0.4l0.3,0.4
	l0.4,0.3l0.4,0.3l0.4,0.3l0.4,0.1l0.5,0.2l0.4,0.1h0.5h0.5l0.5-0.1l0.4-0.2l0.5-0.1l0.4-0.3l0.4-0.3l0.3-0.3l0.3-0.4l0.3-0.4
	l0.2-0.5l0.1-0.4l0.1-0.5V424.3"/>
<text transform="matrix(1.0003 0 0 1 908.2754 428.6488)" style="fill:#808080; font-family:'CenturyGothic'; font-size:12px;">22.00 </text>
<text transform="matrix(1.0003 0 0 1 301.2554 225.2128)" style="fill:#808080; font-family:'CenturyGothic'; font-size:12px;"> </text>
<path style="fill:none;stroke:#808080;stroke-width:0.51;stroke-miterlimit:10;" d="M309.2,226.6l4.6-11.4 M315.5,220.9v-0.5
	l-0.1-0.5l-0.2-0.4L315,219l-0.2-0.4l-0.3-0.4l-0.3-0.3l-0.4-0.3l-0.4-0.3l-0.5-0.2l-0.4-0.1l-0.5-0.1h-0.5H311l-0.5,0.1l-0.4,0.1
	l-0.5,0.2l-0.4,0.3l-0.3,0.3l-0.4,0.3l-0.3,0.4L308,219l-0.2,0.5l-0.2,0.4l-0.1,0.5v0.5v0.5l0.1,0.4l0.2,0.5l0.2,0.4l0.2,0.5
	l0.3,0.3l0.4,0.4l0.3,0.3l0.4,0.2l0.5,0.2l0.4,0.2h0.5l0.5,0.1l0.5-0.1h0.5l0.4-0.2l0.5-0.2l0.4-0.2l0.4-0.3l0.3-0.4l0.3-0.3
	l0.2-0.5l0.2-0.4l0.2-0.5l0.1-0.4V220.9"/>
<text transform="matrix(1.0003 0 0 1 318.1567 225.2181)" style="fill:#808080; font-family:'CenturyGothic'; font-size:12px;">100.00 </text>
<text transform="matrix(1.0003 0 0 1 162.3726 105.9862)" style="fill:#808080; font-family:'CenturyGothic'; font-size:12px;"> 22.00 </text>
<text transform="matrix(1.0003 0 0 1 608.2207 247.2264)" style="fill:#808080; font-family:'CenturyGothic'; font-size:12px;"> 430.00 </text>
<text transform="matrix(1.0003 0 0 1 204.6606 246.9745)" style="fill:#808080; font-family:'CenturyGothic'; font-size:12px;"> 230.00 </text>
<text transform="matrix(1.0003 0 0 1 341.5444 336.8065)" style="fill:#808080; font-family:'CenturyGothic'; font-size:12px;"> 290.00 </text>
<text transform="matrix(1.0003 0 0 1 341.5444 358.6942)" style="fill:#808080; font-family:'CenturyGothic'; font-size:12px;"> 345.00 </text>
<text transform="matrix(1.0003 0 0 1 544.9204 357.1825)" style="fill:#808080; font-family:'CenturyGothic'; font-size:12px;"> 100.00 </text>
<text transform="matrix(1.0003 0 0 1 304.0088 105.9144)" style="fill:#808080; font-family:'CenturyGothic'; font-size:12px;"> </text>
<path style="fill:none;stroke:#808080;stroke-width:0.51;stroke-miterlimit:10;" d="M312,107.3l4.5-11.4 M318.3,101.6l-0.1-0.5
	l-0.1-0.5l-0.1-0.4l-0.2-0.5l-0.3-0.4l-0.3-0.4l-0.3-0.3l-0.4-0.3l-0.4-0.3l-0.4-0.2l-0.5-0.1l-0.5-0.1h-0.4h-0.5l-0.5,0.1l-0.5,0.1
	l-0.4,0.2l-0.4,0.3l-0.4,0.3l-0.3,0.3l-0.3,0.4l-0.3,0.4l-0.2,0.5l-0.1,0.4l-0.1,0.5v0.5v0.5l0.1,0.4l0.1,0.5l0.2,0.4l0.3,0.5
	l0.3,0.3l0.3,0.4l0.4,0.3l0.4,0.2l0.4,0.2l0.5,0.2l0.5,0.1h0.5h0.4l0.5-0.1l0.5-0.2l0.4-0.2l0.4-0.2l0.4-0.3l0.3-0.4l0.3-0.3
	l0.3-0.5l0.2-0.4l0.1-0.5l0.1-0.4L318.3,101.6"/>
<text transform="matrix(1.0003 0 0 1 320.9019 105.9232)" style="fill:#808080; font-family:'CenturyGothic'; font-size:12px;">20.00 </text>
<text transform="matrix(1.0003 0 0 1 165.0459 159.3348)" style="fill:#808080; font-family:'CenturyGothic'; font-size:12px;"> 100.00 </text>
<text transform="matrix(1.0003 0 0 1 165.0459 326.1713)" style="fill:#808080; font-family:'CenturyGothic'; font-size:12px;"> 100.00 </text>
<text transform="matrix(1.0003 0 0 1 576.8018 217.2469)" style="fill:#808080; font-family:'CenturyGothic'; font-size:12px;"> 10.00 </text>
<text transform="matrix(1.0003 0 0 1 576.8018 269.0751)" style="fill:#808080; font-family:'CenturyGothic'; font-size:12px;"> 10.00 </text>
<text transform="matrix(1.0003 0 0 1 311.3618 259.931)" style="fill:#808080; font-family:'CenturyGothic'; font-size:12px;"> 10.00 </text>
<text transform="matrix(1.0003 0 0 1 341.5298 142.6068)" style="fill:#808080; font-family:'CenturyGothic'; font-size:12px;"> 135.50 </text>
<text transform="matrix(1.0003 0 0 1 164.626 359.0751)" style="fill:#808080; font-family:'CenturyGothic'; font-size:12px;"> 10.00 </text>
<text transform="matrix(1 0 0 1.0006 5.6533 790.4916)" style="font-family:'CenturyGothic'; font-size:23.027px;">A</text>
<text transform="matrix(1 0 0 1.0006 1167.8604 790.4916)" style="font-family:'CenturyGothic'; font-size:23.027px;">A</text>
<text transform="matrix(1 0 0 1.0001 7.5654 650.892)" style="font-family:'CenturyGothic'; font-size:23.0383px;">B</text>
<text transform="matrix(1 0 0 1.0001 1169.7725 650.892)" style="font-family:'CenturyGothic'; font-size:23.0383px;">B</text>
<text transform="matrix(1 0 0 1.0006 4.8237 509.1498)" style="font-family:'CenturyGothic'; font-size:23.0258px;">C</text>
<text transform="matrix(1 0 0 1.0006 1167.0303 509.1498)" style="font-family:'CenturyGothic'; font-size:23.0258px;">C</text>
<text transform="matrix(1 0 0 1.0003 5.6074 367.4076)" style="font-family:'CenturyGothic'; font-size:23.0322px;">D</text>
<text transform="matrix(1 0 0 1.0003 1167.8145 367.4076)" style="font-family:'CenturyGothic'; font-size:23.0322px;">D</text>
<text transform="matrix(1.0009 0 0 1 8.0034 225.6659)" style="font-family:'CenturyGothic'; font-size:23.04px;">E</text>
<text transform="matrix(1.0009 0 0 1 1170.21 225.6659)" style="font-family:'CenturyGothic'; font-size:23.04px;">E</text>
<text transform="matrix(1 0 0 1.0013 8.6025 86.0663)" style="font-family:'CenturyGothic'; font-size:23.0103px;">F</text>
<text transform="matrix(1 0 0 1.0013 1170.8096 86.0663)" style="font-family:'CenturyGothic'; font-size:23.0103px;">F</text>
<text transform="matrix(1.0003 0 0 1 78.667 836.1566)" style="font-family:'CenturyGothic'; font-size:23.04px;">8</text>
<text transform="matrix(1.0003 0 0 1 78.667 22.6141)" style="font-family:'CenturyGothic'; font-size:23.04px;">8</text>
<text transform="matrix(1.0003 0 0 1 234.5786 836.1566)" style="font-family:'CenturyGothic'; font-size:23.04px;">7</text>
<text transform="matrix(1.0003 0 0 1 234.5786 22.6141)" style="font-family:'CenturyGothic'; font-size:23.04px;">7</text>
<text transform="matrix(1.0003 0 0 1 376.3208 836.1566)" style="font-family:'CenturyGothic'; font-size:23.04px;">6</text>
<text transform="matrix(1.0003 0 0 1 376.3208 22.6141)" style="font-family:'CenturyGothic'; font-size:23.04px;">6</text>
<text transform="matrix(1.0003 0 0 1 518.063 836.1566)" style="font-family:'CenturyGothic'; font-size:23.04px;">5</text>
<text transform="matrix(1.0003 0 0 1 518.063 22.6141)" style="font-family:'CenturyGothic'; font-size:23.04px;">5</text>
<text transform="matrix(1.0003 0 0 1 659.8047 836.1566)" style="font-family:'CenturyGothic'; font-size:23.04px;">4</text>
<text transform="matrix(1.0003 0 0 1 659.8047 22.6141)" style="font-family:'CenturyGothic'; font-size:23.04px;">4</text>
<text transform="matrix(1.0003 0 0 1 801.5469 836.1566)" style="font-family:'CenturyGothic'; font-size:23.04px;">3</text>
<text transform="matrix(1.0003 0 0 1 801.5469 22.6141)" style="font-family:'CenturyGothic'; font-size:23.04px;">3</text>
<text transform="matrix(1.0003 0 0 1 943.2891 836.1566)" style="font-family:'CenturyGothic'; font-size:23.04px;">2</text>
<text transform="matrix(1.0003 0 0 1 943.2891 22.6141)" style="font-family:'CenturyGothic'; font-size:23.04px;">2</text>
<text transform="matrix(1.0003 0 0 1 1099.2012 836.1566)" style="font-family:'CenturyGothic'; font-size:23.04px;">1</text>
<text transform="matrix(1.0003 0 0 1 1099.2012 22.6141)" style="font-family:'CenturyGothic'; font-size:23.04px;">1</text>
<text transform="matrix(1 0 0 1.1693 653.792 725.9945)" style="font-family:'CenturyGothic'; font-size:4.8484px;">DRAWN</text>
<text transform="matrix(1 0 0 1.0281 654.6309 737.9652)" style="font-family:'CenturyGothic'; font-size:5.5144px;">CHK&apos;D</text>
<text transform="matrix(1 0 0 1.0242 653.1055 749.5756)" style="font-family:'CenturyGothic'; font-size:5.5354px;">APPV&apos;D</text>
<text transform="matrix(1 0 0 1.0194 655.1523 761.9066)" style="font-family:'CenturyGothic'; font-size:5.5614px;">MFG</text>
<text transform="matrix(1 0 0 1.0218 656.2471 773.8461)" style="font-family:'CenturyGothic'; font-size:5.5482px;">Q.A</text>
<text transform="matrix(1 0 0 1.0279 653.6504 664.9496)" style="font-family:'CenturyGothic'; font-size:5.5152px;">UNLESS OTHERWISE SPECIFIED:</text>
<text transform="matrix(1 0 0 1.0266 653.6504 672.0365)" style="font-family:'CenturyGothic'; font-size:5.5222px;">DIMENSIONS ARE IN MILLIMETERS</text>
<text transform="matrix(1 0 0 1.0306 653.6504 679.1234)" style="font-family:'CenturyGothic'; font-size:5.5012px;">SURFACE FINISH:</text>
<text transform="matrix(1 0 0 1.0242 653.6504 686.2094)" style="font-family:'CenturyGothic'; font-size:5.5354px;">TOLERANCES:</text>
<text transform="matrix(1 0 0 1.0267 653.6504 693.2963)" style="font-family:'CenturyGothic'; font-size:5.5216px;">   LINEAR:</text>
<text transform="matrix(1 0 0 1.0211 653.6504 700.3832)" style="font-family:'CenturyGothic'; font-size:5.552px;">   ANGULAR:</text>
<text transform="matrix(1 0 0 1.0245 882.4521 664.7172)" style="font-family:'CenturyGothic'; font-size:5.5336px;">DEBURR AND </text>
<text transform="matrix(1 0 0 1.022 882.4521 671.8041)" style="font-family:'CenturyGothic'; font-size:5.5471px;">BREAK SHARP </text>
<text transform="matrix(1 0 0 1.0228 882.4521 678.891)" style="font-family:'CenturyGothic'; font-size:5.5431px;">EDGES</text>
<text transform="matrix(1 0 0 1.0199 692.5703 714.3295)" style="font-family:'CenturyGothic'; font-size:5.5584px;">NAME</text>
<text transform="matrix(1 0 0 1.0252 737.1074 714.1595)" style="font-family:'CenturyGothic'; font-size:5.5299px;">SIGNATURE</text>
<text transform="matrix(1 0 0 1.0179 785.8125 714.1195)" style="font-family:'CenturyGothic'; font-size:5.5696px;">DATE</text>
<text transform="matrix(1 0 0 1.0243 809.7148 772.4847)" style="font-family:'CenturyGothic'; font-size:5.5347px;">MATERIAL:</text>
<text transform="matrix(1 0 0 1.0198 971.1992 668.89)" style="font-family:'CenturyGothic'; font-size:5.5593px;">DO NOT SCALE DRAWING</text>
<text transform="matrix(1 0 0 1.0295 1086.6035 669.4515)" style="font-family:'CenturyGothic'; font-size:5.5068px;">REVISION</text>
<text transform="matrix(1 0 0 1.0336 935.6924 714.1195)" style="font-family:'CenturyGothic'; font-size:5.4848px;">TITLE:</text>
<text transform="matrix(1 0 0 1.0212 935.3008 772.4847)" style="font-family:'CenturyGothic'; font-size:5.5515px;">DWG NO.</text>
<text transform="matrix(1 0 0 1.0337 935.6406 809.5795)" style="font-family:'CenturyGothic'; font-size:5.4843px;">SCALE:1:8</text>
<text transform="matrix(1 0 0 1.0324 1061.5107 809.5795)" style="font-family:'CenturyGothic'; font-size:5.4912px;">SHEET 1 OF 1</text>
<text transform="matrix(1 0 0 1.0116 1136.3281 780.9535)" style="font-family:'CenturyGothic'; font-size:10.8739px;">A3</text>
<text transform="matrix(1 0 0 1.025 809.625 809.4291)" style="font-family:'CenturyGothic'; font-size:5.526px;">WEIGHT: </text>
<text transform="matrix(1 0 0 1.0207 999.6406 792.9652)" style="font-family:'CenturyGothic'; font-size:23.5144px;">Frame R3</text>
<path style="fill:none;stroke:#808080;stroke-width:0.51;stroke-miterlimit:10;" d="M248.8,354.6l9.3-1.4v2.8L248.8,354.6
	 M245.2,354.6l-9.3,1.4v-2.8L245.2,354.6 M363.1,161.6l1.4,9.4h-2.8L363.1,161.6 M363.1,113.6l-1.4-9.4h2.8L363.1,113.6
	 M280.7,255.5l9.3-1.5v2.9L280.7,255.5 M277.1,255.5l-9.3,1.4V254L277.1,255.5 M558.8,282.1l1.4,9.3h-2.9L558.8,282.1 M558.8,278.5
	l-1.5-9.3h2.9L558.8,278.5 M558.8,193.5l-1.5-9.4h2.9L558.8,193.5 M558.8,197l1.4,9.4h-2.9L558.8,197 M226.2,314l-1.4-9.4h2.9
	L226.2,314 M226.2,278.5l1.5,9.4h-2.9L226.2,278.5 M226.2,161.6l1.5,9.4h-2.9L226.2,161.6 M226.2,197l-1.4-9.3h2.9L226.2,197
	 M266.5,101.5l9.4-1.4v2.9L266.5,101.5 M259.4,101.5l-9.3,1.5v-2.9L259.4,101.5 M538.1,352.7l-9.3,1.5v-2.9L538.1,352.7
	 M502.7,352.7l9.4-1.4v2.9L502.7,352.7 M423.3,354.2l-9.4,1.5v-2.9L423.3,354.2 M301.1,354.2l9.3-1.4v2.9L301.1,354.2 M413.6,332.3
	l-9.4,1.5v-2.9L413.6,332.3 M310.8,332.3l9.4-1.4v2.9L310.8,332.3 M226.2,278.5l-1.4-9.3h2.9L226.2,278.5 M226.2,197l1.5,9.4h-2.9
	L226.2,197 M629.8,314l-1.5-9.4h2.9L629.8,314 M629.8,161.6l1.4,9.4h-2.9L629.8,161.6 M216.9,124.9l1.4,9.4h-2.8L216.9,124.9
	 M216.9,117.1l-1.4-9.3h2.8L216.9,117.1 M280.7,220.8l-9.4,1.4v-2.8L280.7,220.8 M245.2,220.8l9.4-1.4v2.8L245.2,220.8 M864.5,424.2
	l9.4-1.4v2.9L864.5,424.2 M856.7,424.2l-9.3,1.5v-2.9L856.7,424.2 M747.6,424.2l9.4-1.4v2.9L747.6,424.2 M739.8,424.2l-9.4,1.5v-2.9
	L739.8,424.2 M995,583.8l-1.5-9.4h2.9L995,583.8 M995,619.2l1.4,9.4h-2.9L995,619.2 M842.9,394.5l9.4-1.5v2.9L842.9,394.5
	 M878.4,394.5l-9.4,1.4V393L878.4,394.5 M761.4,394.5l-9.3,1.4V393L761.4,394.5 M726,394.5l9.4-1.5v2.9L726,394.5 M245.2,662.5
	l-9.3,1.5v-2.9L245.2,662.5 M248.8,662.5l9.3-1.4v2.9L248.8,662.5 M473.2,486.5l0.8-1.6l0.8-1.7l0.8-1.7l0.6-1.7l0.7-1.8l0.5-1.8
	l0.5-1.7l0.5-1.8l0.4-1.9l0.3-1.8l0.3-1.8l0.2-1.9l0.2-1.8v-1.9l0.1-1.8 M437.9,514.4l1.8-0.5l1.8-0.5l1.8-0.7l1.8-0.7l1.7-0.7
	l1.7-0.8l1.6-0.9l1.7-0.9l1.6-1l1.6-1l1.5-1.1l1.5-1.1l1.5-1.2l1.4-1.2l1.4-1.3 M479.9,459.8l0.6,9.4l-2.8-0.2L479.9,459.8
	 M437.9,514.4l8.4-4.5l0.9,2.7L437.9,514.4 M301.1,403l-9.4,1.4v-2.9L301.1,403 M245.2,403l9.4-1.5v2.9L245.2,403 M199.9,495.2
	l1.4,9.4h-2.9L199.9,495.2 M199.9,459.8l-1.5-9.4h2.9L199.9,459.8 M245.2,428.9l9.4-1.5v2.9L245.2,428.9 M280.7,428.9l-9.4,1.4v-2.9
	L280.7,428.9 M448.8,554.8l8.6-3.8l0.8,2.8L448.8,554.8 M483,545.6l-8.7,3.8l-0.7-2.7L483,545.6 M475.9,656.3l-8.6,3.8l-0.8-2.8
	L475.9,656.3 M441.7,665.5l8.7-3.8l0.7,2.7L441.7,665.5 M199.9,619.2l1.4,9.4h-2.9L199.9,619.2 M199.9,583.8l-1.5-9.4h2.9
	L199.9,583.8 M590.8,459.8l1.4,9.4h-2.8L590.8,459.8 M590.8,622.8l-1.4-9.4h2.8L590.8,622.8"/>
<line style="fill:none;stroke:#000000;stroke-width:0.51;stroke-linecap:round;stroke-linejoin:round;stroke-miterlimit:10;stroke-dasharray:43.2,3.6,3.6,3.6;stroke-dashoffset:28;" x1="413.6" y1="481.3" x2="413.6" y2="441.7"/>
<line style="fill:none;stroke:#000000;stroke-width:0.51;stroke-linecap:round;stroke-linejoin:round;stroke-miterlimit:10;stroke-dasharray:43.2,3.6,3.6,3.6;stroke-dashoffset:28;" x1="310.8" y1="481.3" x2="310.8" y2="441.7"/>
<line style="fill:none;stroke:#000000;stroke-width:0.51;stroke-linecap:round;stroke-linejoin:round;stroke-miterlimit:10;stroke-dasharray:43.2,3.6,3.6,3.6;stroke-dashoffset:28;" x1="743.8" y1="481.3" x2="743.8" y2="441.7"/>
<line style="fill:none;stroke:#000000;stroke-width:0.51;stroke-linecap:round;stroke-linejoin:round;stroke-miterlimit:10;stroke-dasharray:43.2,3.6,3.6,3.6;stroke-dashoffset:28;" x1="860.7" y1="481.3" x2="860.7" y2="441.7"/>
<line style="fill:none;stroke:#000000;stroke-width:0.51;stroke-linecap:round;stroke-linejoin:round;stroke-miterlimit:10;stroke-dasharray:43.2,3.6,3.6,3.6;stroke-dashoffset:28;" x1="893.5" y1="601.5" x2="933.1" y2="601.5"/>
<line style="fill:none;stroke:#000000;stroke-width:0.51;stroke-linecap:round;stroke-linejoin:round;stroke-miterlimit:10;stroke-dasharray:43.2,3.6,3.6,3.6;stroke-dashoffset:28;" x1="263" y1="135.1" x2="263" y2="95.5"/>
<path style="fill:none;stroke:#000000;stroke-width:0.51;stroke-linecap:round;stroke-linejoin:round;stroke-miterlimit:10;" d="
	M415.4,296.2h2.9 M413.6,298v3 M411.8,296.2h-3 M413.6,294.4v-3 M413.6,296.2h0.9 M413.6,296.2v0.9 M413.6,296.2h-0.9 M413.6,296.2
	v-0.9 M312.6,296.2h3 M310.8,298v3 M309,296.2h-3 M310.8,294.4v-3 M310.8,296.2h0.9 M310.8,296.2v0.9 M310.8,296.2h-0.9
	 M310.8,296.2v-0.9 M312.6,179.3h3 M310.8,181.1v3 M309,179.3h-3 M310.8,177.5v-3 M310.8,179.3h0.9 M310.8,179.3v0.9 M310.8,179.3
	h-0.9 M310.8,179.3v-0.9 M415.4,179.3h2.9 M413.6,181.1v3 M411.8,179.3h-3 M413.6,177.5v-3 M413.6,179.3h0.9 M413.6,179.3v0.9
	 M413.6,179.3h-0.9 M413.6,179.3v-0.9"/>
<path style="fill:none;stroke:#C0C0C0;stroke-width:0.992;stroke-linecap:round;stroke-linejoin:round;stroke-miterlimit:10;" d="
	M1020.4,813.6v21.3 M1020.4,28.4V7.1 M878.7,813.6v21.3 M878.7,28.4V7.1 M737,813.6v21.3 M737,28.4V7.1 M595.2,813.6v21.3
	 M595.2,28.4V7.1 M453.5,813.6v21.3 M453.5,28.4V7.1 M311.8,813.6v21.3 M311.8,28.4V7.1 M170,813.6v21.3 M170,28.4V7.1
	 M1162.2,137.5h21.2 M28.3,137.5H7 M1162.2,279.3h21.2 M28.3,279.3H7 M1162.2,421h21.2 M28.3,421H7 M1162.2,562.7h21.2 M28.3,562.7
	H7 M1162.2,704.5h21.2 M28.3,704.5H7 M595.2,834.9v-21.3 M1183.4,421h-21.2 M595.2,7.1v21.3 M7,421h21.3"/>
<path style="fill:none;stroke:#C0C0C0;stroke-width:1.417;stroke-linecap:round;stroke-linejoin:round;stroke-miterlimit:10;" d="
	M1162.2,789.5h-36.9 M1162.2,675.1H932 M1125.3,801.6v-36.2 M1079.4,675.1V657 M1057.3,813.6v-12 M932,657v156.6 M806.7,765.4h355.5
	 M806.7,765.4H651.9 M806.7,777.5H651.9 M880.4,657v108.4 M806.7,789.5H651.9 M836.2,753.4v-48.2 M777.8,705.2v108.4 M747.7,705.2
	V657 M674,705.2v108.4 M651.9,657v156.6 M932,717.2H651.9 M932,729.3H651.9 M932,741.3H651.9 M932,753.4H651.9 M728.4,705.2v108.4
	 M651.9,657h510.3 M1162.2,705.2H651.9 M651.9,801.6h510.3"/>
<path style="fill:none;stroke:#C0C0C0;stroke-width:1.984;stroke-linecap:round;stroke-linejoin:round;stroke-miterlimit:10;" d="
	M1162.2,813.6H28.3 M1162.2,28.4v785.2 M28.3,28.4h1133.9 M28.3,813.6V28.4"/>
<path style="fill:none;stroke:#808080;stroke-width:0.51;stroke-linecap:round;stroke-linejoin:round;stroke-miterlimit:10;" d="
	M248.8,354.6h18 M245.2,354.6h-44 M248.8,317.6v46 M245.2,317.6v46 M363.1,161.6v18 M363.1,113.6v-18 M284.3,113.6h87.8
	 M280.7,255.5h30.6 M277.1,255.5h-18 M558.8,282.1v18 M558.8,264.6v13.9 M576.8,264.6h-18 M506.3,282.1h61.5 M503.6,278.5h64.2
	 M558.8,193.5v-18 M558.8,212.8V197 M576.8,212.8h-18 M506.3,193.5h61.5 M503.6,197h64.2 M226.2,278.5V314 M226.2,321.7V314
	 M208.2,321.7h18 M241.6,314h-24.4 M241.6,278.5h-24.4 M226.2,197v-35.4 M226.2,154.9v6.7 M208.2,154.9h18 M241.6,161.6h-24.4
	 M241.6,197h-24.4 M266.5,101.5H304 M259.4,101.5h-18 M266.5,110V92.5 M259.4,110V92.5 M538.1,352.7h6.8 M502.7,352.7h35.4
	 M538.1,317.6v44.1 M502.7,285.7v76 M423.3,354.2h-38.6 M301.1,354.2h40.4 M423.3,317.6v45.6 M301.1,317.6v45.6 M413.6,332.3h-28.9
	 M310.8,332.3h30.7 M413.6,304.6v36.7 M310.8,304.6v36.7 M226.2,278.5v-28.9 M226.2,197v38.4 M241.6,278.5h-24.4 M241.6,197h-24.4
	 M629.8,314v-64.1 M629.8,161.6v74 M541.7,314h97.1 M541.7,161.6h97.1 M216.9,124.9v18 M216.9,101.5v15.6 M198.9,101.5h18
	 M241.6,124.9h-33.7 M241.6,117.1h-33.7 M280.7,220.8h20.5 M245.2,220.8h35.5 M280.7,200.6v29.2 M864.5,424.2h26.8 M856.7,424.2h-18
	 M864.5,456.2v-41 M856.7,456.2v-41 M747.6,424.2h18 M739.8,424.2h-22.4 M747.6,456.2v-41 M739.8,456.2v-41 M995,583.8v-18
	 M995,619.2v18 M930,583.8h74 M882,619.2h122 M842.9,394.5h35.5 M878.4,394.5h16.4 M842.9,456.2v-70.7 M878.4,456.2v-70.7
	 M761.4,394.5H726 M726,394.5h-12.1 M761.4,456.2v-70.7 M726,456.2v-70.7 M245.2,662.5h-61 M248.8,662.5h18 M245.2,626.4v45.1
	 M248.8,622.8v48.7 M426.9,459.8h62 M301.1,403h36.6 M245.2,403h55.9 M301.1,491.6V394 M245.2,512V394 M199.9,495.2v18 M199.9,459.8
	v-18 M297.5,495.2H190.9 M297.5,459.8H190.9 M245.2,428.9h-23.7 M280.7,428.9h-35.5 M245.2,512v-92.1 M280.7,512v-92.1 M494.2,542.6
	h18 M448.8,554.8l34.2-9.2 M483,545.6l11.2-3 M492.3,580.3l-11.7-43.4 M494.2,651.4h18 M475.9,656.3l18.3-4.9 M441.7,665.5l34.2-9.2
	 M467,622.7l11.3,42.3 M420.8,587.3l23.3,86.9 M199.9,619.2v18 M199.9,583.8v-18 M245.2,619.2h-54.3 M277.1,583.8h-86.2
	 M590.8,459.8v75.7 M590.8,622.8v-73 M426.9,459.8h172.9 M541.7,622.8h58.1"/>
<path style="fill:#808080;" d="M248.8,354.6l9.3-1.4v2.8 M245.2,354.6l-9.3,1.4v-2.8 M363.1,161.6l1.4,9.4h-2.8 M363.1,113.6
	l-1.4-9.4h2.8 M280.7,255.5l9.3-1.5v2.9 M277.1,255.5l-9.3,1.4V254 M558.8,282.1l1.4,9.3h-2.9 M558.8,278.5l-1.5-9.3h2.9
	 M558.8,193.5l-1.5-9.4h2.9 M558.8,197l1.4,9.4h-2.9 M226.2,314l-1.4-9.4h2.9 M226.2,278.5l1.5,9.4h-2.9 M226.2,161.6l1.5,9.4h-2.9
	 M226.2,197l-1.4-9.3h2.9 M266.5,101.5l9.4-1.4v2.9 M259.4,101.5l-9.3,1.5v-2.9 M538.1,352.7l-9.3,1.5v-2.9 M502.7,352.7l9.4-1.4
	v2.9 M423.3,354.2l-9.4,1.5v-2.9 M301.1,354.2l9.3-1.4v2.9 M413.6,332.3l-9.4,1.5v-2.9 M310.8,332.3l9.4-1.4v2.9 M226.2,278.5
	l-1.4-9.3h2.9 M226.2,197l1.5,9.4h-2.9 M629.8,314l-1.5-9.4h2.9 M629.8,161.6l1.4,9.4h-2.9 M216.9,124.9l1.4,9.4h-2.8 M216.9,117.1
	l-1.4-9.3h2.8 M280.7,220.8l-9.4,1.4v-2.8 M245.2,220.8l9.4-1.4v2.8 M864.5,424.2l9.4-1.4v2.9 M856.7,424.2l-9.3,1.5v-2.9
	 M747.6,424.2l9.4-1.4v2.9 M739.8,424.2l-9.4,1.5v-2.9 M995,583.8l-1.5-9.4h2.9 M995,619.2l1.4,9.4h-2.9 M842.9,394.5l9.4-1.5v2.9
	 M878.4,394.5l-9.4,1.4V393 M761.4,394.5l-9.3,1.4V393 M726,394.5l9.4-1.5v2.9 M245.2,662.5l-9.3,1.5v-2.9 M248.8,662.5l9.3-1.4v2.9
	 M479.9,459.8l0.6,9.4l-2.8-0.2 M437.9,514.4l8.4-4.5l0.9,2.7 M301.1,403l-9.4,1.4v-2.9 M245.2,403l9.4-1.5v2.9 M199.9,495.2
	l1.4,9.4h-2.9 M199.9,459.8l-1.5-9.4h2.9 M245.2,428.9l9.4-1.5v2.9 M280.7,428.9l-9.4,1.4v-2.9 M448.8,554.8l8.6-3.8l0.8,2.8
	 M483,545.6l-8.7,3.8l-0.7-2.7 M475.9,656.3l-8.6,3.8l-0.8-2.8 M441.7,665.5l8.7-3.8l0.7,2.7 M199.9,619.2l1.4,9.4h-2.9
	 M199.9,583.8l-1.5-9.4h2.9 M590.8,459.8l1.4,9.4h-2.8 M590.8,622.8l-1.4-9.4h2.8"/>
<path style="fill:none;stroke:#000000;stroke-width:1.417;stroke-linecap:round;stroke-linejoin:round;stroke-miterlimit:10;" d="
	M456.5,583.8h36.7 M502.7,619.2l-9.5-35.4 M280.7,515.6V514l0.2-1.6l0.3-1.6l0.5-1.5l0.5-1.5l0.7-1.4l0.8-1.4l0.9-1.4l1-1.2l1-1.2
	l1.2-1.1l1.3-1l1.3-0.9l1.4-0.8l1.5-0.6l1.5-0.6l1.5-0.4l1.6-0.3l1.6-0.2l1.6-0.1 M301.1,495.2h95 M396.1,495.2l23.7,88.6
	 M280.7,583.8h139.1 M280.7,515.6v68.2 M301.1,459.8l-2.7,0.1l-2.7,0.1l-2.6,0.4l-2.6,0.4l-2.6,0.6l-2.6,0.7l-2.5,0.8l-2.5,0.9
	l-2.4,1l-2.4,1.2l-2.4,1.3l-2.2,1.4l-2.2,1.4l-2.1,1.6l-2.1,1.7l-2,1.8l-1.8,1.9l-1.8,2l-1.7,2l-1.6,2.1l-1.5,2.2l-1.4,2.3l-1.3,2.3
	l-1.1,2.4l-1.1,2.5l-0.9,2.4l-0.8,2.6l-0.7,2.5l-0.5,2.6l-0.5,2.7l-0.3,2.6l-0.2,2.6l-0.1,2.7 M538.1,622.8H245.2 M462.4,619.2
	l-41.8-155.9 M462.4,619.2H248.8 M248.8,515.6v103.6 M301.1,463.3l-2.6,0.1l-2.6,0.2l-2.5,0.3l-2.5,0.4l-2.5,0.6l-2.5,0.7l-2.5,0.8
	l-2.3,0.9l-2.4,1.1l-2.3,1.1l-2.2,1.3l-2.2,1.3l-2.1,1.5l-2,1.6l-1.9,1.7l-1.9,1.7l-1.8,1.9l-1.6,1.9l-1.6,2.1l-1.5,2.1l-1.4,2.1
	L255,491l-1.2,2.3l-1,2.3l-1,2.4l-0.8,2.4l-0.6,2.5l-0.6,2.5l-0.4,2.5l-0.4,2.6l-0.2,2.5v2.6 M420.6,463.3H301.1 M538.1,619.2H466
	 M466,619.2l-42.7-159.4 M423.3,459.8H301.1 M245.2,515.6v107.2 M538.1,622.8v-3.6"/>
<line style="fill:none;stroke:#000000;stroke-width:0.51;stroke-linecap:round;stroke-linejoin:round;stroke-miterlimit:10;stroke-dasharray:3.6,1.8;stroke-dashoffset:1;" x1="248.8" y1="601.5" x2="245.3" y2="601.5"/>
<line style="fill:none;stroke:#000000;stroke-width:0.51;stroke-linecap:round;stroke-linejoin:round;stroke-miterlimit:10;stroke-dasharray:3.6,1.8;stroke-dashoffset:1;" x1="277.2" y1="601.5" x2="280.7" y2="601.5"/>
<line style="fill:none;stroke:#000000;stroke-width:0.51;stroke-linecap:round;stroke-linejoin:round;stroke-miterlimit:10;stroke-dasharray:3.6,1.8;stroke-dashoffset:1;" x1="277.2" y1="619.2" x2="277.2" y2="601.5"/>
<line style="fill:none;stroke:#000000;stroke-width:0.51;stroke-linecap:round;stroke-linejoin:round;stroke-miterlimit:10;stroke-dasharray:3.6,1.8;stroke-dashoffset:1;" x1="280.7" y1="601.5" x2="280.7" y2="622.7"/>
<line style="fill:none;stroke:#000000;stroke-width:0.51;stroke-linecap:round;stroke-linejoin:round;stroke-miterlimit:10;stroke-dasharray:3.6,1.8;" x1="500" y1="622.7" x2="489.6" y2="583.8"/>
<polyline style="fill:none;stroke:#000000;stroke-width:0.51;stroke-linecap:round;stroke-linejoin:round;stroke-miterlimit:10;stroke-dasharray:3.6,1.8;stroke-dashoffset:1;" points="
	259.5,601.5 259.5,600.8 259.7,600.1 260,599.6 260.4,599 261,598.6 261.5,598.2 262.2,598 262.8,597.9 263.5,598 264.2,598.1 
	264.8,598.4 265.3,598.8 265.8,599.3 266.2,599.8 266.4,600.5 266.5,601.1 266.5,601.8 266.4,602.5 266.2,603.1 265.8,603.7 
	265.3,604.1 264.8,604.5 264.2,604.8 263.5,605 262.8,605 262.2,604.9 261.5,604.7 261,604.4 260.4,603.9 260,603.4 259.7,602.8 
	259.5,602.1 259.5,601.5 "/>
<polyline style="fill:none;stroke:#000000;stroke-width:0.51;stroke-linecap:round;stroke-linejoin:round;stroke-miterlimit:10;stroke-dasharray:3.6,1.8;" points="
	245.3,601.5 245.4,600 245.5,598.5 245.9,597 246.3,595.6 246.9,594.2 247.5,592.8 248.3,591.5 249.2,590.3 250.2,589.2 
	251.3,588.2 252.5,587.2 253.7,586.4 255,585.6 256.4,585 257.8,584.5 259.3,584.1 260.8,583.9 262.3,583.8 263.8,583.8 
	265.3,583.9 266.7,584.1 268.2,584.5 269.6,585 271,585.6 272.3,586.4 273.5,587.2 274.7,588.2 275.8,589.2 276.8,590.3 
	277.7,591.5 278.5,592.8 279.2,594.2 279.7,595.6 280.2,597 280.5,598.5 280.7,600 280.7,601.5 "/>
<line style="fill:none;stroke:#000000;stroke-width:0.51;stroke-linecap:round;stroke-linejoin:round;stroke-miterlimit:10;stroke-dasharray:3.6,1.8;stroke-dashoffset:1;" x1="306.9" y1="459.7" x2="306.9" y2="463.3"/>
<line style="fill:none;stroke:#000000;stroke-width:0.51;stroke-linecap:round;stroke-linejoin:round;stroke-miterlimit:10;stroke-dasharray:3.6,1.8;stroke-dashoffset:1;" x1="314.7" y1="463.3" x2="314.7" y2="459.7"/>
<line style="fill:none;stroke:#000000;stroke-width:0.51;stroke-linecap:round;stroke-linejoin:round;stroke-miterlimit:10;stroke-dasharray:3.6,1.8;stroke-dashoffset:1;" x1="409.7" y1="459.7" x2="409.7" y2="463.3"/>
<line style="fill:none;stroke:#000000;stroke-width:0.51;stroke-linecap:round;stroke-linejoin:round;stroke-miterlimit:10;stroke-dasharray:3.6,1.8;stroke-dashoffset:1;" x1="417.5" y1="463.3" x2="417.5" y2="459.7"/>
<path style="fill:none;stroke:#000000;stroke-width:1.417;stroke-linecap:round;stroke-linejoin:round;stroke-miterlimit:10;" d="
	M926.4,622.8h-48 M926.4,601.5v21.3 M878.4,601.5h33.1 M915,601.5h7.8 M922.8,583.8L922.8,583.8v0.2v0.2v0.4v0.5v0.6v0.7v0.9v0.9
	v1.1v1.1v1.2v1.3v1.3v1.4v1.5v1.4v1.5v1.5 M926.4,583.8L926.4,583.8v0.2v0.2v0.4v0.5v0.6v0.7v0.9v0.9v1.1v1.1v1.2v1.3v1.3v1.4v1.5
	v1.4v1.5v1.5 M926.4,601.5h-3.6 M915,601.5h-3.5 M915,601.5V600v-1.5v-1.4v-1.5v-1.4v-1.3v-1.3v-1.2v-1.1v-1.1v-0.9v-0.9v-0.7v-0.6
	v-0.5v-0.4V584v-0.2 M911.5,583.8L911.5,583.8v0.2v0.2v0.4v0.5v0.6v0.7v0.9v0.9v1.1v1.1v1.2v1.3v1.3v1.4v1.5v1.4v1.5v1.5 M726,619.2
	V459.8 M761.4,459.8v124 M726,459.8h35.4 M878.4,619.2V459.8 M842.9,459.8v124 M878.4,459.8h-35.5 M757.9,619.2v-35.4 M846.5,619.2
	v-35.4 M757.9,583.8h88.6 M878.4,619.2H726 M726,622.8v-3.6 M878.4,622.8H726 M878.4,622.8v-3.6 M926.4,583.8h-3.6 M915,583.8h-3.5"
	/>
<line style="fill:none;stroke:#000000;stroke-width:0.51;stroke-linecap:round;stroke-linejoin:round;stroke-miterlimit:10;stroke-dasharray:3.6,1.8;stroke-dashoffset:1;" x1="761.5" y1="622.7" x2="761.5" y2="583.8"/>
<line style="fill:none;stroke:#000000;stroke-width:0.51;stroke-linecap:round;stroke-linejoin:round;stroke-miterlimit:10;stroke-dasharray:3.6,1.8;stroke-dashoffset:1;" x1="843" y1="583.7" x2="843" y2="622.7"/>
<line style="fill:none;stroke:#000000;stroke-width:0.51;stroke-linecap:round;stroke-linejoin:round;stroke-miterlimit:10;stroke-dasharray:3.6,1.8;" x1="757.9" y1="583.7" x2="757.9" y2="463.3"/>
<line style="fill:none;stroke:#000000;stroke-width:0.51;stroke-linecap:round;stroke-linejoin:round;stroke-miterlimit:10;stroke-dasharray:3.6,1.8;" x1="846.5" y1="583.7" x2="846.5" y2="463.3"/>
<line style="fill:none;stroke:#000000;stroke-width:0.51;stroke-linecap:round;stroke-linejoin:round;stroke-miterlimit:10;stroke-dasharray:3.6,1.8;stroke-dashoffset:2;" x1="726" y1="463.3" x2="757.9" y2="463.3"/>
<line style="fill:none;stroke:#000000;stroke-width:0.51;stroke-linecap:round;stroke-linejoin:round;stroke-miterlimit:10;stroke-dasharray:3.6,1.8;stroke-dashoffset:2;" x1="878.4" y1="463.3" x2="846.5" y2="463.3"/>
<line style="fill:none;stroke:#000000;stroke-width:0.51;stroke-linecap:round;stroke-linejoin:round;stroke-miterlimit:10;stroke-dasharray:3.6,1.8;stroke-dashoffset:1;" x1="846.5" y1="495.2" x2="843" y2="495.2"/>
<line style="fill:none;stroke:#000000;stroke-width:0.51;stroke-linecap:round;stroke-linejoin:round;stroke-miterlimit:10;stroke-dasharray:3.6,1.8;stroke-dashoffset:1;" x1="757.9" y1="495.2" x2="761.5" y2="495.2"/>
<line style="fill:none;stroke:#000000;stroke-width:0.51;stroke-linecap:round;stroke-linejoin:round;stroke-miterlimit:10;stroke-dasharray:3.6,1.8;stroke-dashoffset:1;" x1="757.9" y1="515.5" x2="761.5" y2="515.5"/>
<line style="fill:none;stroke:#000000;stroke-width:0.51;stroke-linecap:round;stroke-linejoin:round;stroke-miterlimit:10;stroke-dasharray:3.6,1.8;" x1="878.4" y1="515.5" x2="843" y2="515.5"/>
<line style="fill:none;stroke:#000000;stroke-width:0.51;stroke-linecap:round;stroke-linejoin:round;stroke-miterlimit:10;stroke-dasharray:3.6,1.8;stroke-dashoffset:2;" x1="726" y1="515.5" x2="757.9" y2="515.5"/>
<line style="fill:none;stroke:#000000;stroke-width:0.51;stroke-linecap:round;stroke-linejoin:round;stroke-miterlimit:10;stroke-dasharray:3.6,1.8;stroke-dashoffset:1;" x1="846.5" y1="515.5" x2="843" y2="515.5"/>
<line style="fill:none;stroke:#000000;stroke-width:0.51;stroke-linecap:round;stroke-linejoin:round;stroke-miterlimit:10;stroke-dasharray:3.6,1.8;stroke-dashoffset:2;" x1="878.4" y1="515.5" x2="846.5" y2="515.5"/>
<line style="fill:none;stroke:#000000;stroke-width:0.51;stroke-linecap:round;stroke-linejoin:round;stroke-miterlimit:10;stroke-dasharray:3.6,1.8;" x1="726" y1="515.5" x2="761.5" y2="515.5"/>
<line style="fill:none;stroke:#000000;stroke-width:0.51;stroke-linecap:round;stroke-linejoin:round;stroke-miterlimit:10;stroke-dasharray:3.6,1.8;stroke-dashoffset:1;" x1="915.1" y1="601.5" x2="911.5" y2="601.5"/>
<line style="fill:none;stroke:#000000;stroke-width:0.51;stroke-linecap:round;stroke-linejoin:round;stroke-miterlimit:10;stroke-dasharray:3.6,1.8;stroke-dashoffset:1;" x1="926.4" y1="601.5" x2="922.9" y2="601.5"/>
<line style="fill:none;stroke:#000000;stroke-width:0.51;stroke-linecap:round;stroke-linejoin:round;stroke-miterlimit:10;stroke-dasharray:3.6,1.8;stroke-dashoffset:1;" x1="761.5" y1="601.5" x2="843" y2="601.5"/>
<line style="fill:none;stroke:#000000;stroke-width:0.51;stroke-linecap:round;stroke-linejoin:round;stroke-miterlimit:10;stroke-dasharray:3.6,1.8;stroke-dashoffset:2;" x1="846.5" y1="601.5" x2="878.4" y2="601.5"/>
<line style="fill:none;stroke:#000000;stroke-width:0.51;stroke-linecap:round;stroke-linejoin:round;stroke-miterlimit:10;stroke-dasharray:3.6,1.8;" x1="915.1" y1="619.2" x2="922.9" y2="619.2"/>
<line style="fill:none;stroke:#000000;stroke-width:0.51;stroke-linecap:round;stroke-linejoin:round;stroke-miterlimit:10;stroke-dasharray:3.6,1.8;stroke-dashoffset:1;" x1="915.1" y1="601.5" x2="915.1" y2="619.2"/>
<line style="fill:none;stroke:#000000;stroke-width:0.51;stroke-linecap:round;stroke-linejoin:round;stroke-miterlimit:10;stroke-dasharray:3.6,1.8;stroke-dashoffset:1;" x1="922.9" y1="601.5" x2="922.9" y2="619.2"/>
<line style="fill:none;stroke:#000000;stroke-width:0.51;stroke-linecap:round;stroke-linejoin:round;stroke-miterlimit:10;stroke-dasharray:3.6,1.8;stroke-dashoffset:1;" x1="911.5" y1="619.2" x2="911.5" y2="601.5"/>
<line style="fill:none;stroke:#000000;stroke-width:0.51;stroke-linecap:round;stroke-linejoin:round;stroke-miterlimit:10;stroke-dasharray:3.6,1.8;stroke-dashoffset:1;" x1="878.4" y1="619.2" x2="911.5" y2="619.2"/>
<line style="fill:none;stroke:#000000;stroke-width:0.51;stroke-linecap:round;stroke-linejoin:round;stroke-miterlimit:10;stroke-dasharray:3.6,1.8;stroke-dashoffset:1;" x1="856.8" y1="459.7" x2="856.8" y2="463.3"/>
<line style="fill:none;stroke:#000000;stroke-width:0.51;stroke-linecap:round;stroke-linejoin:round;stroke-miterlimit:10;stroke-dasharray:3.6,1.8;stroke-dashoffset:1;" x1="864.6" y1="463.3" x2="864.6" y2="459.7"/>
<line style="fill:none;stroke:#000000;stroke-width:0.51;stroke-linecap:round;stroke-linejoin:round;stroke-miterlimit:10;stroke-dasharray:3.6,1.8;stroke-dashoffset:1;" x1="739.9" y1="459.7" x2="739.9" y2="463.3"/>
<line style="fill:none;stroke:#000000;stroke-width:0.51;stroke-linecap:round;stroke-linejoin:round;stroke-miterlimit:10;stroke-dasharray:3.6,1.8;stroke-dashoffset:1;" x1="747.7" y1="463.3" x2="747.7" y2="459.7"/>
<line style="fill:none;stroke:#000000;stroke-width:0.51;stroke-linecap:round;stroke-linejoin:round;stroke-miterlimit:10;stroke-dasharray:3.6,1.8;stroke-dashoffset:1;" x1="922.9" y1="605" x2="926.4" y2="605"/>
<line style="fill:none;stroke:#000000;stroke-width:0.51;stroke-linecap:round;stroke-linejoin:round;stroke-miterlimit:10;stroke-dasharray:3.6,1.8;stroke-dashoffset:1;" x1="926.4" y1="597.9" x2="922.9" y2="597.9"/>
<line style="fill:none;stroke:#000000;stroke-width:0.51;stroke-linecap:round;stroke-linejoin:round;stroke-miterlimit:10;stroke-dasharray:3.6,1.8;stroke-dashoffset:1;" x1="911.5" y1="605" x2="915.1" y2="605"/>
<line style="fill:none;stroke:#000000;stroke-width:0.51;stroke-linecap:round;stroke-linejoin:round;stroke-miterlimit:10;stroke-dasharray:3.6,1.8;stroke-dashoffset:1;" x1="915.1" y1="597.9" x2="911.5" y2="597.9"/>
<path style="fill:none;stroke:#000000;stroke-width:1.417;stroke-linecap:round;stroke-linejoin:round;stroke-miterlimit:10;" d="
	M466,161.6h72.1 M538.1,314H466 M538.1,161.6V314 M277.1,278.5V197 M280.7,278.5V197 M245.2,278.5V197 M248.8,278.5V197
	 M245.2,161.6v-33.1 M248.8,161.6v-33.1 M280.7,161.6v-33.1 M277.1,161.6v-33.1 M245.2,124.9v-7.8 M248.8,124.9v-7.8 M280.7,124.9
	v-7.8 M277.1,124.9v-7.8 M502.7,193.5h-9.5 M502.7,282.1v-88.6 M502.7,282.1h-9.5 M456.5,197h33 M456.5,278.5h33 M456.5,282.1h36.7
	 M493.2,282.1v-88.6 M456.5,193.5h36.7 M489.5,278.5V197 M245.2,124.9v3.6 M280.7,124.9h-0.1h-0.2h-0.3h-0.4h-0.6h-0.7h-0.8h-0.9
	h-0.9h-1.1h-1.2h-1.3h-1.3h-1.3h-1.5h-1.4h-1.5h-1.5h-1.5h-1.5h-1.5h-1.4h-1.4H255h-1.3h-1.3h-1.1h-1.1h-1h-0.9h-0.8h-0.7h-0.5h-0.5
	h-0.3h-0.2h-0.1 M280.7,124.9v3.6 M245.2,128.5L245.2,128.5h0.3h0.3h0.5h0.5h0.7h0.8h0.9h1h1.1h1.1h1.3h1.3h1.4h1.4h1.4h1.5h1.5h1.5
	h1.5h1.5h1.4h1.5h1.3h1.3h1.3h1.2h1.1h0.9h0.9h0.8h0.7h0.6h0.4h0.3h0.2h0.1 M245.2,113.6v3.5 M245.2,117.1L245.2,117.1h0.3h0.3h0.5
	h0.5h0.7h0.8h0.9h1h1.1h1.1h1.3h1.3h1.4h1.4h1.4h1.5h1.5h1.5h1.5h1.5h1.4h1.5h1.3h1.3h1.3h1.2h1.1h0.9h0.9h0.8h0.7h0.6h0.4h0.3h0.2
	h0.1 M245.2,113.6L245.2,113.6h0.3h0.3h0.5h0.5h0.7h0.8h0.9h1h1.1h1.1h1.3h1.3h1.4h1.4h1.4h1.5h1.5h1.5h1.5h1.5h1.4h1.5h1.3h1.3h1.3
	h1.2h1.1h0.9h0.9h0.8h0.7h0.6h0.4h0.3h0.2h0.1 M280.7,113.6v3.5 M423.3,278.5h33.2 M466,314h-42.7 M466,314v-31.9 M456.5,282.1v-3.6
	 M417.4,296.2v-0.7l-0.2-0.6l-0.3-0.7l-0.4-0.5l-0.5-0.5l-0.6-0.4l-0.6-0.3l-0.7-0.1h-0.7h-0.7l-0.7,0.3l-0.6,0.3l-0.5,0.4l-0.5,0.6
	l-0.4,0.6l-0.2,0.6l-0.1,0.7v0.7l0.1,0.7l0.2,0.6l0.4,0.6l0.5,0.6l0.5,0.4l0.6,0.3l0.7,0.2l0.7,0.1h0.7l0.7-0.1l0.6-0.3l0.6-0.4
	l0.5-0.5l0.4-0.6l0.3-0.6l0.2-0.7V296.2 M314.7,296.2l-0.1-0.7l-0.2-0.6l-0.3-0.7l-0.4-0.5l-0.5-0.5l-0.6-0.4l-0.6-0.3l-0.7-0.1
	h-0.7h-0.7l-0.6,0.3l-0.7,0.3l-0.5,0.4l-0.5,0.6l-0.3,0.6l-0.3,0.6l-0.1,0.7v0.7l0.1,0.7l0.3,0.6l0.3,0.6l0.5,0.6l0.5,0.4l0.7,0.3
	l0.6,0.2l0.7,0.1h0.7l0.7-0.1l0.6-0.3l0.6-0.4l0.5-0.5l0.4-0.6l0.3-0.6l0.2-0.7L314.7,296.2 M301.1,278.5h122.2 M423.3,314H301.1
	 M423.3,314v-35.5 M245.2,278.5L245.2,278.5h0.3h0.3h0.5h0.5h0.7h0.8h0.9h1.1h1.1h1.3h1.4h1.5h1.6h1.7h1.8h1.8h2h2.1h2.1h2.2h2.2
	h2.4h2.4h2.4h2.5h2.5h2.6h2.6h2.6h2.6h2.7h2.7 M245.2,314v-35.5 M301.1,314h-2.7h-2.7h-2.6h-2.6h-2.6h-2.6h-2.5h-2.5h-2.4h-2.4h-2.4
	h-2.2h-2.2h-2.1h-2.1h-2h-1.8h-1.8h-1.7h-1.6h-1.5h-1.4h-1.3h-1.1h-1.1h-0.9h-0.8h-0.7h-0.5h-0.5h-0.3h-0.2h-0.1 M301.1,314v-35.5
	 M423.3,197h33.2 M456.5,193.5v3.5 M466,161.6v31.9 M466,161.6h-42.7 M245.2,197L245.2,197h0.3h0.3h0.5h0.5h0.7h0.8h0.9h1.1h1.1h1.3
	h1.4h1.5h1.6h1.7h1.8h1.8h2h2.1h2.1h2.2h2.2h2.4h2.4h2.4h2.5h2.5h2.6h2.6h2.6h2.6h2.7h2.7 M301.1,161.6h-2.7h-2.7h-2.6h-2.6h-2.6
	h-2.6h-2.5h-2.5h-2.4h-2.4h-2.4h-2.2h-2.2h-2.1h-2.1h-2h-1.8h-1.8h-1.7h-1.6h-1.5h-1.4h-1.3h-1.1h-1.1h-0.9h-0.8h-0.7h-0.5h-0.5
	h-0.3h-0.2h-0.1 M245.2,161.6V197 M314.7,179.3l-0.1-0.7l-0.2-0.7l-0.3-0.6l-0.4-0.5l-0.5-0.5l-0.6-0.4l-0.6-0.3l-0.7-0.1l-0.7-0.1
	l-0.7,0.1l-0.6,0.2l-0.7,0.4l-0.5,0.4l-0.5,0.5l-0.3,0.6l-0.3,0.7l-0.1,0.7v0.7l0.1,0.7l0.3,0.6l0.3,0.6l0.5,0.5l0.5,0.5l0.7,0.3
	l0.6,0.2l0.7,0.1h0.7l0.7-0.2l0.6-0.3l0.6-0.3l0.5-0.5l0.4-0.6l0.3-0.6l0.2-0.7L314.7,179.3 M417.4,179.3v-0.7l-0.2-0.7l-0.3-0.6
	l-0.4-0.5l-0.5-0.5l-0.6-0.4l-0.6-0.3l-0.7-0.1l-0.7-0.1l-0.7,0.1l-0.7,0.2l-0.6,0.4l-0.5,0.4l-0.5,0.5l-0.4,0.6l-0.2,0.7l-0.1,0.7
	v0.7l0.1,0.7l0.2,0.6l0.4,0.6l0.5,0.5l0.5,0.5l0.6,0.3l0.7,0.2l0.7,0.1h0.7l0.7-0.2l0.6-0.3l0.6-0.3l0.5-0.5l0.4-0.6l0.3-0.6
	l0.2-0.7V179.3 M301.1,197h122.2 M423.3,161.6V197 M423.3,161.6H301.1 M301.1,161.6V197"/>
<line style="fill:none;stroke:#000000;stroke-width:0.51;stroke-linecap:round;stroke-linejoin:round;stroke-miterlimit:10;stroke-dasharray:3.6,1.8;stroke-dashoffset:2;" x1="420.6" y1="161.5" x2="420.6" y2="193.4"/>
<line style="fill:none;stroke:#000000;stroke-width:0.51;stroke-linecap:round;stroke-linejoin:round;stroke-miterlimit:10;stroke-dasharray:3.6,1.8;stroke-dashoffset:2;" x1="248.8" y1="161.5" x2="248.8" y2="193.4"/>
<polyline style="fill:none;stroke:#000000;stroke-width:0.51;stroke-linecap:round;stroke-linejoin:round;stroke-miterlimit:10;stroke-dasharray:3.6,1.8;" points="
	301.1,193.4 298.5,193.4 296,193.4 293.4,193.4 290.9,193.4 288.4,193.4 285.9,193.4 283.5,193.4 281.1,193.4 278.8,193.4 
	276.5,193.4 274.2,193.4 272.1,193.4 270,193.4 267.9,193.4 266,193.4 264.1,193.4 262.4,193.4 260.7,193.4 259.1,193.4 
	257.6,193.4 256.3,193.4 255,193.4 253.9,193.4 252.8,193.4 251.9,193.4 251.1,193.4 250.4,193.4 249.8,193.4 249.4,193.4 
	249.1,193.4 248.9,193.4 248.8,193.4 "/>
<line style="fill:none;stroke:#000000;stroke-width:0.51;stroke-linecap:round;stroke-linejoin:round;stroke-miterlimit:10;stroke-dasharray:3.6,1.8;stroke-dashoffset:2;" x1="301.1" y1="161.5" x2="301.1" y2="193.4"/>
<line style="fill:none;stroke:#000000;stroke-width:0.51;stroke-linecap:round;stroke-linejoin:round;stroke-miterlimit:10;stroke-dasharray:3.6,1.8;" x1="456.6" y1="193.4" x2="420.6" y2="193.4"/>
<line style="fill:none;stroke:#000000;stroke-width:0.51;stroke-linecap:round;stroke-linejoin:round;stroke-miterlimit:10;stroke-dasharray:3.6,1.8;stroke-dashoffset:1;" x1="420.6" y1="193.4" x2="301.1" y2="193.4"/>
<line style="fill:none;stroke:#000000;stroke-width:0.51;stroke-linecap:round;stroke-linejoin:round;stroke-miterlimit:10;stroke-dasharray:3.6,1.8;stroke-dashoffset:2;" x1="420.6" y1="313.9" x2="420.6" y2="282"/>
<line style="fill:none;stroke:#000000;stroke-width:0.51;stroke-linecap:round;stroke-linejoin:round;stroke-miterlimit:10;stroke-dasharray:3.6,1.8;" x1="456.6" y1="282" x2="420.6" y2="282"/>
<line style="fill:none;stroke:#000000;stroke-width:0.51;stroke-linecap:round;stroke-linejoin:round;stroke-miterlimit:10;stroke-dasharray:3.6,1.8;stroke-dashoffset:1;" x1="420.6" y1="282" x2="301.1" y2="282"/>
<line style="fill:none;stroke:#000000;stroke-width:0.51;stroke-linecap:round;stroke-linejoin:round;stroke-miterlimit:10;stroke-dasharray:3.6,1.8;stroke-dashoffset:2;" x1="248.8" y1="313.9" x2="248.8" y2="282"/>
<polyline style="fill:none;stroke:#000000;stroke-width:0.51;stroke-linecap:round;stroke-linejoin:round;stroke-miterlimit:10;stroke-dasharray:3.6,1.8;" points="
	301.1,282 298.5,282 296,282 293.4,282 290.9,282 288.4,282 285.9,282 283.5,282 281.1,282 278.8,282 276.5,282 274.2,282 
	272.1,282 270,282 267.9,282 266,282 264.1,282 262.4,282 260.7,282 259.1,282 257.6,282 256.3,282 255,282 253.9,282 252.8,282 
	251.9,282 251.1,282 250.4,282 249.8,282 249.4,282 249.1,282 248.9,282 248.8,282 "/>
<line style="fill:none;stroke:#000000;stroke-width:0.51;stroke-linecap:round;stroke-linejoin:round;stroke-miterlimit:10;stroke-dasharray:3.6,1.8;stroke-dashoffset:2;" x1="301.1" y1="313.9" x2="301.1" y2="282"/>
<line style="fill:none;stroke:#000000;stroke-width:0.51;stroke-linecap:round;stroke-linejoin:round;stroke-miterlimit:10;stroke-dasharray:3.6,1.8;stroke-dashoffset:1;" x1="301.1" y1="193.4" x2="301.1" y2="197"/>
<line style="fill:none;stroke:#000000;stroke-width:0.51;stroke-linecap:round;stroke-linejoin:round;stroke-miterlimit:10;stroke-dasharray:3.6,1.8;stroke-dashoffset:1;" x1="280.7" y1="193.4" x2="280.7" y2="197"/>
<line style="fill:none;stroke:#000000;stroke-width:0.51;stroke-linecap:round;stroke-linejoin:round;stroke-miterlimit:10;stroke-dasharray:3.6,1.8;stroke-dashoffset:1;" x1="396.2" y1="193.4" x2="396.2" y2="197"/>
<line style="fill:none;stroke:#000000;stroke-width:0.51;stroke-linecap:round;stroke-linejoin:round;stroke-miterlimit:10;stroke-dasharray:3.6,1.8;stroke-dashoffset:1;" x1="280.7" y1="282" x2="280.7" y2="278.5"/>
<line style="fill:none;stroke:#000000;stroke-width:0.51;stroke-linecap:round;stroke-linejoin:round;stroke-miterlimit:10;stroke-dasharray:3.6,1.8;stroke-dashoffset:1;" x1="301.1" y1="282" x2="301.1" y2="278.5"/>
<line style="fill:none;stroke:#000000;stroke-width:0.51;stroke-linecap:round;stroke-linejoin:round;stroke-miterlimit:10;stroke-dasharray:3.6,1.8;stroke-dashoffset:1;" x1="396.2" y1="282" x2="396.2" y2="278.5"/>
<line style="fill:none;stroke:#000000;stroke-width:0.51;stroke-linecap:round;stroke-linejoin:round;stroke-miterlimit:10;stroke-dasharray:3.6,1.8;stroke-dashoffset:1;" x1="419.9" y1="193.4" x2="419.9" y2="197"/>
<line style="fill:none;stroke:#000000;stroke-width:0.51;stroke-linecap:round;stroke-linejoin:round;stroke-miterlimit:10;stroke-dasharray:3.6,1.8;stroke-dashoffset:1;" x1="500" y1="278.5" x2="489.6" y2="278.5"/>
<line style="fill:none;stroke:#000000;stroke-width:0.51;stroke-linecap:round;stroke-linejoin:round;stroke-miterlimit:10;stroke-dasharray:3.6,1.8;stroke-dashoffset:1;" x1="489.6" y1="197" x2="500" y2="197"/>
<line style="fill:none;stroke:#000000;stroke-width:0.51;stroke-linecap:round;stroke-linejoin:round;stroke-miterlimit:10;stroke-dasharray:3.6,1.8;stroke-dashoffset:1;" x1="419.9" y1="282" x2="419.9" y2="278.5"/>
<line style="fill:none;stroke:#000000;stroke-width:0.51;stroke-linecap:round;stroke-linejoin:round;stroke-miterlimit:10;stroke-dasharray:3.6,1.8;stroke-dashoffset:2;" x1="277.2" y1="193.4" x2="277.2" y2="161.5"/>
<line style="fill:none;stroke:#000000;stroke-width:0.51;stroke-linecap:round;stroke-linejoin:round;stroke-miterlimit:10;stroke-dasharray:3.6,1.8;stroke-dashoffset:2;" x1="280.7" y1="193.4" x2="280.7" y2="161.5"/>
<line style="fill:none;stroke:#000000;stroke-width:0.51;stroke-linecap:round;stroke-linejoin:round;stroke-miterlimit:10;stroke-dasharray:3.6,1.8;stroke-dashoffset:2;" x1="462.4" y1="161.5" x2="462.4" y2="193.4"/>
<line style="fill:none;stroke:#000000;stroke-width:0.51;stroke-linecap:round;stroke-linejoin:round;stroke-miterlimit:10;stroke-dasharray:3.6,1.8;stroke-dashoffset:2;" x1="462.4" y1="282" x2="462.4" y2="313.9"/>
<line style="fill:none;stroke:#000000;stroke-width:0.51;stroke-linecap:round;stroke-linejoin:round;stroke-miterlimit:10;stroke-dasharray:3.6,1.8;stroke-dashoffset:1;" x1="500" y1="278.5" x2="500" y2="197"/>
<line style="fill:none;stroke:#000000;stroke-width:0.51;stroke-linecap:round;stroke-linejoin:round;stroke-miterlimit:10;stroke-dasharray:3.6,1.8;stroke-dashoffset:1;" x1="266.6" y1="117.1" x2="266.6" y2="113.5"/>
<line style="fill:none;stroke:#000000;stroke-width:0.51;stroke-linecap:round;stroke-linejoin:round;stroke-miterlimit:10;stroke-dasharray:3.6,1.8;stroke-dashoffset:1;" x1="259.5" y1="113.5" x2="259.5" y2="117.1"/>
<line style="fill:none;stroke:#000000;stroke-width:0.51;stroke-linecap:round;stroke-linejoin:round;stroke-miterlimit:10;stroke-dasharray:3.6,1.8;stroke-dashoffset:1;" x1="266.6" y1="128.4" x2="266.6" y2="124.9"/>
<line style="fill:none;stroke:#000000;stroke-width:0.51;stroke-linecap:round;stroke-linejoin:round;stroke-miterlimit:10;stroke-dasharray:3.6,1.8;stroke-dashoffset:1;" x1="259.5" y1="124.9" x2="259.5" y2="128.4"/>
<g>
	
		<circle style="fill:none;stroke:#ADAFB2;stroke-width:0.7087;stroke-linecap:round;stroke-linejoin:round;stroke-miterlimit:10;" cx="795.8" cy="681.1" r="7"/>
	
		<circle style="fill:none;stroke:#ADAFB2;stroke-width:0.7087;stroke-linecap:round;stroke-linejoin:round;stroke-miterlimit:10;" cx="795.8" cy="681.1" r="11.8"/>
	
		<polygon style="fill:none;stroke:#ADAFB2;stroke-width:0.7087;stroke-linecap:round;stroke-linejoin:round;stroke-miterlimit:10;" points="
		819,674.1 846.4,669.3 846.4,692.9 819,688.1 	"/>
	<g>
		<g>
			
				<line style="fill:none;stroke:#ADAFB2;stroke-width:0.7087;stroke-linecap:round;stroke-linejoin:round;" x1="780.6" y1="681.1" x2="784.6" y2="681.1"/>
			
				<line style="fill:none;stroke:#ADAFB2;stroke-width:0.7087;stroke-linecap:round;stroke-linejoin:round;stroke-dasharray:1.0848,2.1695;" x1="786.8" y1="681.1" x2="788.9" y2="681.1"/>
			
				<line style="fill:none;stroke:#ADAFB2;stroke-width:0.7087;stroke-linecap:round;stroke-linejoin:round;stroke-dasharray:8.6782,2.1695,1.0848,2.1695;" x1="790" y1="681.1" x2="845.4" y2="681.1"/>
			
				<line style="fill:none;stroke:#ADAFB2;stroke-width:0.7087;stroke-linecap:round;stroke-linejoin:round;" x1="846.4" y1="681.1" x2="850.4" y2="681.1"/>
		</g>
	</g>
	<g>
		<g>
			
				<line style="fill:none;stroke:#ADAFB2;stroke-width:0.7087;stroke-linecap:round;stroke-linejoin:round;" x1="795.8" y1="699.1" x2="795.8" y2="695.1"/>
			
				<line style="fill:none;stroke:#ADAFB2;stroke-width:0.7087;stroke-linecap:round;stroke-linejoin:round;stroke-dasharray:0.9039,1.8077;" x1="795.8" y1="693.3" x2="795.8" y2="691.5"/>
			
				<line style="fill:none;stroke:#ADAFB2;stroke-width:0.7087;stroke-linecap:round;stroke-linejoin:round;stroke-dasharray:7.2309,1.8077,0.9039,1.8077;" x1="795.8" y1="690.6" x2="795.8" y2="668"/>
			
				<line style="fill:none;stroke:#ADAFB2;stroke-width:0.7087;stroke-linecap:round;stroke-linejoin:round;" x1="795.8" y1="667.1" x2="795.8" y2="663.1"/>
		</g>
	</g>
</g>
<path style="fill:none;stroke:#000000;stroke-width:0.5;stroke-miterlimit:10;" d="M746.8,721.8c-0.8-0.1-1.6,0.2-2.1,0.8
	s-0.8,1.3-1,2.1c-0.2,0.5-0.3,1.1-0.1,1.6c0.2,0.5,0.8,0.8,1.3,0.9c1,0.2,2-0.2,2.8-0.9c0.8-0.6,1.4-1.5,1.8-2.4"/>
<path style="fill:none;stroke:#000000;stroke-width:0.5;stroke-miterlimit:10;" d="M747.2,724.7c1.2-1,2.5-1.8,4-2.3
	c0.8-0.3,1.8-0.5,2.6-0.2c0.8,0.3,1.6,1,1.5,1.9c-0.1,1-1,1.7-1.9,2c-0.6,0.2-1.2,0.3-1.8,0.3c-0.6-0.1-1.2-0.3-1.6-0.8
	c-0.1-0.2-0.2-0.4-0.1-0.6c0.1-0.1,0.1-0.1,0.2-0.1c0.6-0.1,1.3-0.1,1.8,0.3c0.5,0.3,0.8,0.7,1.3,1c0.6,0.4,1.3,0.5,1.9,0.6
	c1.5,0.2,3.1,0.2,4.6,0c0.2,0,0.4-0.1,0.6-0.2c0.2-0.2,0.2-0.4,0.2-0.7c0.1-1.4-0.3-2.7-0.6-4c0-0.1-0.1-0.2,0-0.3
	c0.1-0.1,0.2-0.1,0.3-0.1c1.4,0,2.7,0.4,3.9,1.1"/>
<line style="fill:none;stroke:#C0C0C0;stroke-width:1.417;stroke-linecap:round;stroke-linejoin:round;stroke-miterlimit:10;" x1="806.7" y1="765.4" x2="806.7" y2="801.6"/>
</svg>
