<?xml version="1.0" encoding="utf-8"?>
<!-- Generator: Adobe Illustrator 26.5.0, SVG Export Plug-In . SVG Version: 6.00 Build 0)  -->
<svg version="1.1" id="Layer_1" xmlns="http://www.w3.org/2000/svg" xmlns:xlink="http://www.w3.org/1999/xlink" x="0px" y="0px"
	 width="731.1px" height="1047.5px" viewBox="0 0 731.1 1047.5" style="enable-background:new 0 0 731.1 1047.5;"
	 xml:space="preserve">
<g>
	<line style="fill:#FFFFFF;stroke:#000000;stroke-width:2;stroke-miterlimit:10;" x1="731.1" y1="842.3" x2="472" y2="1009.8"/>
	<polyline style="fill:#FFFFFF;stroke:#000000;stroke-width:2;stroke-miterlimit:10;" points="92.7,368.1 198.6,305.1 469.6,148.8 
		731.1,1.2 	"/>
	<g>
		<path style="fill:#FFFFFF;stroke:#000000;stroke-width:2;stroke-miterlimit:10;" d="M198.6,353.2
			C93.3,332.5,17.4,402.4,17.4,536.4C17.4,703.7,135.9,907.7,282,992s264.6,16.9,264.6-150.4c0-134-76-291.5-181.3-392.2l0,48
			l-166.8-96.2L198.6,353.2z"/>
	</g>
	<line style="fill:none;stroke:#000000;stroke-miterlimit:10;" x1="365.4" y1="593.5" x2="365.4" y2="497.4"/>
	<line style="fill:none;stroke:#000000;stroke-miterlimit:10;" x1="198.6" y1="401.2" x2="198.6" y2="497.4"/>
	<line style="fill:none;stroke:#000000;stroke-miterlimit:10;" x1="636.4" y1="245" x2="719.8" y2="196.9"/>
	<polygon style="fill:#FFFFFF;stroke:#000000;stroke-width:2;stroke-miterlimit:10;" points="198.6,353.2 198.6,401.2 365.4,497.4 
		365.4,449.3 636.4,293 636.4,245 469.6,148.8 198.6,305.1 	"/>
	<g>
		<g>
			<g>
				<line style="fill:none;stroke:#000000;stroke-miterlimit:10;" x1="365.4" y1="497.4" x2="370.6" y2="494.4"/>
				
					<line style="fill:none;stroke:#000000;stroke-miterlimit:10;stroke-dasharray:12.0324,12.0324;" x1="381" y1="488.4" x2="626" y2="347.1"/>
				<polyline style="fill:none;stroke:#000000;stroke-miterlimit:10;" points="631.2,344.1 636.4,341.1 636.4,335.1 				"/>
				
					<line style="fill:none;stroke:#000000;stroke-miterlimit:10;stroke-dasharray:12.0251,12.0251;" x1="636.4" y1="323.1" x2="636.4" y2="305.1"/>
				<line style="fill:none;stroke:#000000;stroke-miterlimit:10;" x1="636.4" y1="299" x2="636.4" y2="293"/>
			</g>
		</g>
		<line style="fill:none;stroke:#000000;stroke-miterlimit:10;stroke-dasharray:12;" x1="469.6" y1="245" x2="469.6" y2="148.8"/>
		<polyline style="fill:none;stroke:#000000;stroke-miterlimit:10;stroke-dasharray:12;" points="636.4,341.1 469.6,245 
			198.6,401.2 		"/>
		<polyline style="fill:none;stroke:#000000;stroke-miterlimit:10;stroke-dasharray:12;" points="636.4,293.1 469.6,196.9 
			198.6,353.2 		"/>
	</g>
	<polygon style="fill:#2CB9FF;fill-opacity:0.5;" points="636.4,293 365.3,449.3 198.6,353.2 469.6,196.9 	"/>
	<polygon style="fill:none;stroke:#000000;stroke-width:2;stroke-miterlimit:10;" points="636.4,245 365.4,401.2 198.6,305.1 
		469.6,148.8 	"/>
	<polygon style="fill:#E50032;fill-opacity:0.5;" points="636.4,245 636.4,293 365.3,449.3 365.4,401.2 	"/>
	<polyline style="fill:none;stroke:#000000;stroke-width:2;stroke-miterlimit:10;" points="636.4,245 636.4,293 365.3,449.3 	"/>
	<polygon style="fill:none;stroke:#000000;stroke-width:2;stroke-miterlimit:10;" points="198.6,305.1 365.4,401.2 365.4,449.3 
		365.4,497.4 198.6,401.2 198.6,353.1 	"/>
	<g>
		<g>
			<line style="fill:#2653FF;stroke:#0C59FF;stroke-width:3;stroke-miterlimit:10;" x1="536.6" y1="367.7" x2="629.3" y2="421.2"/>
			<g>
				<polygon style="fill:#2653FF;stroke:#0C59FF;stroke-width:3;stroke-miterlimit:10;" points="521.7,359.1 551.2,366.2 
					537.7,368.3 534,376.2 				"/>
			</g>
		</g>
	</g>
	
		<text transform="matrix(1.0014 0 0 1 638.8903 439.5815)" style="fill:#2653FF; font-family:'TimesNewRomanPS-ItalicMT'; font-size:38.2402px;">F</text>
	
		<text transform="matrix(0.5838 0 0 0.583 662.2809 452.3154)" style="fill:#2653FF; font-family:'TimesNewRomanPS-ItalicMT'; font-size:38.2402px;">K</text>
	<line style="fill:none;stroke:#000000;stroke-miterlimit:10;" x1="198.6" y1="208.9" x2="198.6" y2="305.1"/>
	<line style="fill:none;stroke:#000000;stroke-miterlimit:10;" x1="469.6" y1="52.7" x2="469.6" y2="148.8"/>
	<line style="fill:none;stroke:#000000;stroke-miterlimit:10;" x1="469.6" y1="100.7" x2="198.6" y2="257"/>
	<line style="fill:none;stroke:#000000;stroke-miterlimit:10;" x1="209" y1="239" x2="198.6" y2="257"/>
	<line style="fill:none;stroke:#000000;stroke-miterlimit:10;" x1="209" y1="263" x2="198.6" y2="257"/>
	<line style="fill:none;stroke:#000000;stroke-miterlimit:10;" x1="469.6" y1="100.7" x2="459.2" y2="94.7"/>
	<line style="fill:none;stroke:#000000;stroke-miterlimit:10;" x1="459.2" y1="118.8" x2="469.6" y2="100.7"/>
	<line style="fill:none;stroke:#000000;stroke-miterlimit:10;" x1="198.6" y1="449.3" x2="365.4" y2="545.4"/>
	<line style="fill:none;stroke:#000000;stroke-miterlimit:10;" x1="354.9" y1="527.4" x2="365.4" y2="545.4"/>
	<line style="fill:none;stroke:#000000;stroke-miterlimit:10;" x1="354.9" y1="551.5" x2="365.4" y2="545.4"/>
	<line style="fill:none;stroke:#000000;stroke-miterlimit:10;" x1="209" y1="467.3" x2="198.6" y2="449.3"/>
	<line style="fill:none;stroke:#000000;stroke-miterlimit:10;" x1="209" y1="443.3" x2="198.6" y2="449.3"/>
	<line style="fill:none;stroke:#000000;stroke-miterlimit:10;" x1="636.4" y1="341.1" x2="719.8" y2="293"/>
	<line style="fill:none;stroke:#000000;stroke-miterlimit:10;" x1="678.1" y1="220.9" x2="678.1" y2="317.1"/>
	<line style="fill:none;stroke:#000000;stroke-miterlimit:10;" x1="667.6" y1="239" x2="678.1" y2="220.9"/>
	<line style="fill:none;stroke:#000000;stroke-miterlimit:10;" x1="688.5" y1="226.9" x2="678.1" y2="220.9"/>
	<line style="fill:none;stroke:#000000;stroke-miterlimit:10;" x1="667.6" y1="311.1" x2="678.1" y2="317.1"/>
	<line style="fill:none;stroke:#000000;stroke-miterlimit:10;" x1="688.5" y1="299.1" x2="678.1" y2="317.1"/>
	<text transform="matrix(1.0014 0 0 1 688.488 275.0601)" style="font-family:'TimesNewRomanPS-ItalicMT'; font-size:38.2402px;">h</text>
	<text transform="matrix(1.0014 0 0 1 323.6882 160.8813)" style="font-family:'TimesNewRomanPS-ItalicMT'; font-size:38.2402px;">l</text>
	<text transform="matrix(1.0014 0 0 1 262.1755 536.4272)" style="font-family:'TimesNewRomanPS-ItalicMT'; font-size:38.2402px;">b</text>
</g>
</svg>
